<svg xmlns="http://www.w3.org/2000/svg" width="26.569" height="26.092" viewBox="0 0 26.569 26.092">
  <g id="Groupe_631" data-name="Groupe 631" transform="translate(0 0)">
    <g id="Groupe_625" data-name="Groupe 625" transform="translate(0 0)">
      <g id="Groupe_624" data-name="Groupe 624" transform="translate(0)">
        <path id="Tracé_6490" data-name="Tracé 6490" d="M901.677,285.274a1.1,1.1,0,0,0,1.106,1.106l4.142.011,2.792,14.5a1.114,1.114,0,0,0,1.09.9h13.629a1.114,1.114,0,0,0,1.068-.813l2.7-9.736a1.109,1.109,0,0,0-1.068-1.4H909.9l-.9-4.781a1.114,1.114,0,0,0-1.09-.9h-5.118A1.122,1.122,0,0,0,901.677,285.274Z" transform="translate(-901.677 -284.157)" fill="#fef8f5"/>
        <path id="Tracé_6491" data-name="Tracé 6491" d="M1057.877,646.764a3.248,3.248,0,1,0,3.247-3.307A3.283,3.283,0,0,0,1057.877,646.764Z" transform="translate(-1049.409 -623.979)" fill="#fef8f5"/>
        <path id="Tracé_6492" data-name="Tracé 6492" d="M1216.277,646.764a3.248,3.248,0,1,0,3.247-3.307A3.283,3.283,0,0,0,1216.277,646.764Z" transform="translate(-1199.222 -623.979)" fill="#fef8f5"/>
      </g>
    </g>
  </g>
</svg>
