<svg id="clock_1_" data-name="clock (1)" xmlns="http://www.w3.org/2000/svg" width="56.078" height="56.078" viewBox="0 0 56.078 56.078">
  <g id="Groupe_36" data-name="Groupe 36">
    <path id="Tracé_5587" data-name="Tracé 5587" d="M49.184,46.546A27.85,27.85,0,0,0,56.078,29.9H51.1v-3.73h4.978A27.855,27.855,0,0,0,49.184,9.531L45.87,12.846l-2.638-2.638,3.314-3.314A27.849,27.849,0,0,0,29.9,0V4.686h-3.73V0A27.848,27.848,0,0,0,9.532,6.894l3.52,3.52-2.638,2.638L6.894,9.531A27.854,27.854,0,0,0,0,26.174H4.979V29.9H0A27.849,27.849,0,0,0,6.893,46.546l3.52-3.52,2.638,2.638-3.52,3.52a27.858,27.858,0,0,0,16.642,6.894V51.1H29.9v4.979a27.855,27.855,0,0,0,16.643-6.893l-3.521-3.52,2.639-2.639Zm-9.3-4.312L26.232,28.825l-.058-14.458,3.73-.015.052,12.9L42.5,39.573Z" fill="#fef8f5"/>
  </g>
</svg>
