<svg xmlns="http://www.w3.org/2000/svg" width="57.661" height="62.933" viewBox="0 0 57.661 62.933">
  <path id="logo-white" d="M41.577,0,38.62,27.751l-5.046-23.4L17.76,7.671,22.8,31.065,0,35.844,4.027,54.531l40.1,8.4L53.3,42.627,57.661,1.669ZM28.908,40.258a2.973,2.973,0,0,1-3.08.3c-1.158-.379-1.673-1.761-1.235-3.43.327-1.24,1.866-1.425,2.635-1.437a1.976,1.976,0,0,1,.845.171c.545.243,1.466.761,1.653,1.552a2.731,2.731,0,0,1-.817,2.844h0v0Zm11.608,1.287c-.6,1.03-2.178,1.166-3.729.417-1.046-.505-1.038-1.791-.924-2.574a2.419,2.419,0,0,1,.507-1.17,2.56,2.56,0,0,1,1.718-1.094,3.023,3.023,0,0,1,2.75,1.425,2.827,2.827,0,0,1-.316,3h0Z" fill="#fff" fill-rule="evenodd"/>
</svg>
