<svg id="email-marketing" xmlns="http://www.w3.org/2000/svg" width="68.408" height="68.408" viewBox="0 0 68.408 68.408">
  <path id="Tracé_6441" data-name="Tracé 6441" d="M171.036,2.28V0H165V6.036h2.28A3.76,3.76,0,0,0,171.036,2.28Z" transform="translate(-142.868)" fill="#fef8f5"/>
  <path id="Tracé_6442" data-name="Tracé 6442" d="M303.756,6.036h2.28V0H300V2.28A3.76,3.76,0,0,0,303.756,6.036Z" transform="translate(-259.76)" fill="#fef8f5"/>
  <path id="Tracé_6443" data-name="Tracé 6443" d="M189.144,44.776V10.06h-2.28a7.789,7.789,0,0,1-7.78-7.78V0H175.06V2.28a7.789,7.789,0,0,1-7.78,7.78H165V44.776l12.072-11.318ZM175.06,22.132h4.024v4.024H175.06Z" transform="translate(-142.868)" fill="#f8e813"/>
  <path id="Tracé_6444" data-name="Tracé 6444" d="M0,262.81v30.273l18.487-17.332Z" transform="translate(0 -227.558)" fill="#fef8f5"/>
  <path id="Tracé_6445" data-name="Tracé 6445" d="M372.173,275.751l18.487,17.332V262.81Z" transform="translate(-322.252 -227.558)" fill="#fef8f5"/>
  <path id="Tracé_6446" data-name="Tracé 6446" d="M375,150.645v22.809l16.109-11.276Z" transform="translate(-324.7 -130.438)" fill="#fef8f5"/>
  <path id="Tracé_6447" data-name="Tracé 6447" d="M31.012,150.643,14.9,162.176l16.109,11.276Z" transform="translate(-12.904 -130.437)" fill="#fef8f5"/>
  <path id="Tracé_6448" data-name="Tracé 6448" d="M20.932,319.994H83.725l-31.4-29.434Zm45.48-6.036H38.244v-4.024H66.412Zm-10.06-8.048H48.3v-4.024h8.048Z" transform="translate(-18.124 -251.586)" fill="#fef8f5"/>
</svg>
