<svg xmlns="http://www.w3.org/2000/svg" xmlns:xlink="http://www.w3.org/1999/xlink" width="334.542" height="193.42" viewBox="0 0 334.542 193.42">
  <defs>
    <filter id="Tracé_53" x="48.909" y="24.296" width="285.633" height="169.124" filterUnits="userSpaceOnUse">
      <feOffset dy="25" input="SourceAlpha"/>
      <feGaussianBlur stdDeviation="3" result="blur"/>
      <feFlood flood-opacity="0.161"/>
      <feComposite operator="in" in2="blur"/>
      <feComposite in="SourceGraphic"/>
    </filter>
    <filter id="Tracé_54" x="0" y="73.699" width="73.182" height="117.422" filterUnits="userSpaceOnUse">
      <feOffset dy="25" input="SourceAlpha"/>
      <feGaussianBlur stdDeviation="3" result="blur-2"/>
      <feFlood flood-opacity="0.161"/>
      <feComposite operator="in" in2="blur-2"/>
      <feComposite in="SourceGraphic"/>
    </filter>
    <filter id="Tracé_55" x="68.94" y="0" width="173.61" height="133.551" filterUnits="userSpaceOnUse">
      <feOffset dy="25" input="SourceAlpha"/>
      <feGaussianBlur stdDeviation="3" result="blur-3"/>
      <feFlood flood-opacity="0.161"/>
      <feComposite operator="in" in2="blur-3"/>
      <feComposite in="SourceGraphic"/>
    </filter>
  </defs>
  <g id="Groupe_639" data-name="Groupe 639" transform="matrix(0.996, 0.087, -0.087, 0.996, -3884.553, -3283.435)">
    <g transform="matrix(1, -0.09, 0.09, 1, 4155.94, 2932.38)" filter="url(#Tracé_53)">
      <path id="Tracé_53-2" data-name="Tracé 53" d="M4954.392,3299q-.225,1.492-.449,2.984c-.986,1.532-.642,3.2-.5,4.849q-.185,3.011-.368,6.022c-.447.373-.449.74.011,1.1q.156,2.113.313,4.225c-.017,1.673,1.418,1.575,2.2,1.323.979-.314,2.1-1.067,1.6-2.556,3.953-6.042,5.609-13.02,7.824-19.737a38.874,38.874,0,0,1,8.915-15.493c5.6-5.738,11.43-4.559,14.052,2.944l.565.8.014.056q-.04,5.487-.079,10.973l0-.01-.518.872c-.3,1.1-.927,2.478.458,3.025,1.056.418,1.754-.937,2.36-1.67,3.131-3.78,3.379-8.36,3.372-12.984l.6-1.014.034-.028a21.449,21.449,0,0,0,1.226-9.5q.242-2.275.481-4.548a1.409,1.409,0,0,0,.462-1.711c.121-2.038.264-4.074.361-6.113.173-3.692,3.393-5.49,6.8-3.779a.412.412,0,0,0,.255.476c.239.251.478.5.718.752.124.278.25.556.375.834a.627.627,0,0,0,.32.941q0,.716-.008,1.434a1.353,1.353,0,0,0-.327,1.749q-.229,1.865-.458,3.728c-.122.333-.242.666-.364,1-.793,3.266-1.58,6.534-1.241,9.942-.976,2.9-.816,5.93-1.069,8.913q-.212,1.49-.423,2.981a1.5,1.5,0,0,0-.408,1.73q-.205,2.266-.411,4.533c-.432,2.837-1.352,5.678.12,8.487,3.189-.1,4.31-2.657,5.711-4.844.744-1.16,1.353-2.406,2.022-3.614.582,0,.729-.324.63-.835a.668.668,0,0,0,.245-.594,3.116,3.116,0,0,0,1.323-2.585c1.846-2.64.333-5.927,1.674-8.664a1.785,1.785,0,0,0,.795-2.241l.024-.088c.1-.038.294-.074.294-.113a3.72,3.72,0,0,0-.076-.577l.573-1.641c.446-.1.593-.351.406-.778q.222-.733.443-1.468a.657.657,0,0,0,.479-.9c2-4.752,4.486-9.153,10.177-9.979,4.145-.6,6.519,1.312,6.612,5.527a26.361,26.361,0,0,1-6.655,18.377,4.212,4.212,0,0,1-3.865,1.6c-2.953-.664-2.959,1.292-2.979,3.1-.034,3.041.047,6.431,3.059,7.971,2.955,1.511,5.955-.039,8.337-1.959,5.1-4.11,8.414-9.229,8.17-16.121-.094-2.694,1.307-4.937,3.855-5.042,2.677-.11,2.847,2.542,2.917,4.7.373,11.511-9.171,23.6-19.87,25.43-4.516.771-8-.49-10.471-4.3-1.218-1.88-2.125-1.918-3.417-.068-2.022,2.9-4.209,5.614-7.523,7.282-5.673,2.854-10,.931-10.862-5.309-.407-2.951-.881-3.388-3.685-1.823-2.859,1.6-5.088,3.166-6.141,6.468s-3.616,5.756-6.309,7.854c-4.124,3.213-7.167,2.6-12.631-2.284a27.381,27.381,0,0,1-4.413,5.952c-2.437,2.289-5.291,3.605-8.59,2.509-3.156-1.049-4.742-3.759-5.2-6.862a52.547,52.547,0,0,1,.395-16.772c.155-.9.56-1.753-.1-2.8-2.185.639-2.614,2.7-3.211,4.387a154.429,154.429,0,0,0-5.692,19.578c-.508,2.423-1.369,4.552-4.058,4.3-2.947-.279-3.449-2.787-3.384-5.326.139-5.358,1.143-10.673.81-16.056-.063-1.026.209-2.347-1.025-2.677-1.3-.35-1.728,1.033-2.151,1.894a52.95,52.95,0,0,0-4.7,17.312,78.963,78.963,0,0,1-1.405,9.688c-.854,3.423-3.6,4.231-6.134,1.8-1.284-1.233-1.775-1.073-2.68.077a11.325,11.325,0,0,1-1.88,2c-4.112,3.191-9,4.008-11.154-2.328-.191-.561-.172-1.349-1.25-1.512-.794,1.5-1.6,3.082-2.454,4.634-4.966,9.042-9.528,9.606-15.976,1.776-3.381,4.6-6.979,8.879-12.931,10.175-3.571.778-6.817.577-9.074-2.66-1.113-1.6-1.7-1.147-2.469.145a31.423,31.423,0,0,1-2.473,3.98c-5.372,6.55-10.349,5.838-13.736-2.3-1.586,2.75-2.932,5.336-4.512,7.771-2.933,4.517-6.962,5.491-11.374,2.737a1.566,1.566,0,0,0-2.327.311,17.143,17.143,0,0,1-2.385,2c-5.174,3.431-8.342,2.383-10.535-3.44-.305-.809-.611-1.618-1.055-2.792-2.2,2.882-3.1,6.1-5.368,8.466-2.082,2.175-4.371,3.965-7.492,3.23-3.1-.731-3.958-3.421-4.575-6.248-1.016-4.655.458-9.076,1.024-13.582.392-3.107,1.211-6.163,1.1-9.329a2.821,2.821,0,0,0,.493-2.491,1.2,1.2,0,0,0,.257-.7c1.059-1.181.442-2.652.691-3.974l.813-.9c1.363-.257,2.722-.852,4.1-.052q.842.45,1.683.9.079,2.849.156,5.7-.158.712-.316,1.424a1.4,1.4,0,0,0-.417,1.724c-1.51,4.827-1.95,9.859-2.812,14.81-.133.763-.638,1.961.619,2.3,1.1.3,1.5-.726,1.964-1.507,3.685-6.177,6.346-12.708,7.034-19.944a5.211,5.211,0,0,1,.555-1.385c.866-.551.644-1.517.883-2.307a.389.389,0,0,0,.2-.63l.142.047a4.705,4.705,0,0,0,.966-3.416,1.832,1.832,0,0,0,.241-.7l.71-.82q.814-.508,1.629-1.019l2.388.207.1.057.759.6.782.974q-.325,3.192-.647,6.385c-.447,6.245-2.5,12.381-1.178,18.748.256,1.234-.136,2.919,1.61,3.065,1.328.111,2.117-1,2.842-2.226,2.7-4.566,2.969-9.857,4.672-14.7,2.462-7,4.361-14.438,11.438-18.648a.552.552,0,0,0,.755-.5l.089-.051c2.1-1.162,4.511,1.308,6.546-.569l.467-1.036c.217-.244.434-.488.648-.732a1.032,1.032,0,0,0,.3-.551,1.5,1.5,0,0,0,.741-.205l2.324.019.847.458c1.086.917.775,2.292,1.131,3.447-.006.291-.011.582-.017.873q-.179.749-.358,1.5a2.528,2.528,0,0,0-.524,2.495q-.182,1.055-.368,2.11-.182.488-.363.977-.182,1.524-.365,3.049l-.567.876c-.1,4.491-1.948,8.929-.389,13.471.268.781-.393,1.949.885,2.3,1.181.322,1.96-.425,2.7-1.187,2.935-3.017,3.318-7.127,4.472-10.851,2.169-7.014,3.686-14.229,7.12-20.822a17.749,17.749,0,0,1,5.7-6.763c3.926-2.645,7.126-1.691,9.382,2.53l.609.82a1.046,1.046,0,0,0,.17.717q.031,3.244.063,6.484-.179,1.43-.357,2.862-.164.507-.327,1.01-.2.719-.4,1.438c-.191.311-.382.623-.573.933q-.147,1.038-.292,2.077c-.634.129-1.312.207-1.257,1.114l-1.647,1.041-2.5-.344q-.538-.736-1.075-1.473l.034-4.156c.069-.111.141-.22.2-.334,1.031-1.868,2.012-4.731.312-5.538s-1.773,2.414-2.646,3.8c-1.021,1.616-2.226,3.183-2.378,5.209-1.451,4.966-2.572,9.929.151,14.851,1.415,1.847,2.771,2.075,4.843.592,7.094-5.076,11.213-12.113,14.048-20.121,2.191-6.191,4.514-12.331,9.537-16.934.936-.858,1.731-1.794,3.288-1.8,2.656-.005,5.25.876,7.622-2.117,1.845-2.326,4.351-.043,4.526,4.391a6.213,6.213,0,0,0-.6,4.02,19.192,19.192,0,0,1-.5,1.556c-.906,5.462-2.433,10.848-2.077,16.466.111,1.749.068,4.144,1.711,4.668,2.005.638,3.05-1.869,3.642-3.258,1.464-3.429,3.518-6.74,3.483-10.679,1.52-.63,1.6-1.942,1.564-3.306q.363-1.153.727-2.3c1.083-.935.7-2.133.591-3.283q.073-1.9.143-3.809.012-.819.024-1.637c.026-.508.053-1.017.079-1.524.239-1.069.894-2.14-.021-3.2,1.826-4.854,3.889-5.671,6.939-3.094,1.383,1.17.081,2.763,1.25,3.885,1.716-.759,2.236-2.76,3.964-3.562,3.482-1.613,5.556-.973,7.107,2.553.286.651-.017,1.731,1.077,1.834,1.286.122.708-1.1,1.084-1.645,1.783-2.564,3.431-5.354,6.024-7.111,4.072-2.76,7.258-1.671,10.534,3.135Q4954.315,3297.312,4954.392,3299Zm-66.793,32.873c.308,2.188-.087,4.146,1.852,4.618,1.567.382,2.083-1.364,2.7-2.4,3.878-6.458,5.9-13.575,7.155-20.937.177-1.04.125-2.28-.913-2.8-1.212-.608-1.883.607-2.479,1.356C4891.053,3317.819,4889.58,3325.269,4887.6,3331.875Zm-59.415,16.993c-.036,1.5-.271,3.158,1.551,3.613,1.848.461,2.382-1.376,3.03-2.51a62.75,62.75,0,0,0,6.884-19.821c.25-1.336.8-2.759-.543-3.518-1.51-.852-2.41.714-3.094,1.652C4831.531,3334.429,4829.605,3341.565,4828.185,3348.868Zm154.284-57.169a33.759,33.759,0,0,0-.493-4.543c-.412-1.582-1.537-2.058-2.994-1.154-4.218,2.615-5.5,11.827-2.2,15.619,1.782,2.046,3.457,1.766,4.116-.943C4981.665,3297.531,4982.032,3294.286,4982.469,3291.7Zm-11.249,12.177c-1.345,3.956-.76,7.484.162,10.972.353,1.333,1.355,2,2.639,1.01a11.457,11.457,0,0,0,4.144-6.4c.465-2.022-2.409-1.247-3.437-2.308C4973.749,3306.139,4972.674,3305.223,4971.22,3303.876Zm48.947-19.266c-.135.763-.381,1.632.463,2.084s1.457-.208,1.977-.793c2.226-2.516,3.191-5.589,3.865-8.792.164-.778.44-1.657-.506-2-.871-.316-1.421.473-1.836,1.095A27.06,27.06,0,0,0,5020.167,3284.61Z" transform="matrix(1, 0.09, -0.09, 1, -4418.29, -3637.46)" fill="#ec6527" stroke="#fff" stroke-width="3"/>
    </g>
    <g transform="matrix(1, -0.09, 0.09, 1, 4155.94, 2932.38)" filter="url(#Tracé_54)">
      <path id="Tracé_54-2" data-name="Tracé 54" d="M4215.269,3949.445l2.679,3.8a.636.636,0,0,0,.491.881l.016.04a2.72,2.72,0,0,0,.692,2.479l.085,7.7a2.287,2.287,0,0,0-.5,2.511q-.207,1.021-.418,2.044a.781.781,0,0,0-.465,1.04,34.414,34.414,0,0,1-.268,4.294c-.568,3.088-2.447,5.214-5.664,4.725-3.309-.5-3.635-3.5-3.229-6.129.581-3.734,1.618-7.4,2.487-11.084.238-1,.854-2.115-.316-2.82-1.015-.613-2.057-.041-2.912.581a28.419,28.419,0,0,0-6.014,6.688c-8.816,12.246-12.682,26.243-14.008,41.03-.271,3.019-.423,7,2.706,8.4,3.113,1.392,5.877-1.275,8.064-3.549,3.857-4.007,7.863-7.953,9.407-14.438-1.991.939-3.435,1.7-4.937,2.31-2.433.994-4.647.994-5.915-1.824s.545-4.309,2.676-5.164c6.547-2.627,13.031-5.39,19.335-8.549,2.526-1.266,4.108.167,5.319,1.791a2.794,2.794,0,0,1-1.283,4.3c-8.4,2.885-7.01,10.316-7.863,16.581-.629,4.646-.574,9.381-.907,14.071-.238,3.354-2.336,5.146-5.378,4.493-3.208-.687-3.409-3.015-2.955-5.768.27-1.642,1.63-3.079.835-5.211-2.433,2.262-4.75,4.451-7.106,6.595a14.3,14.3,0,0,1-5.475,2.982c-7.259,2.275-12.288-.659-14.027-8.078-1.591-6.8-.545-13.528.424-20.235a79.383,79.383,0,0,1,11.115-29.933,87.988,87.988,0,0,1,9.859-12.634C4205.365,3949.389,4210.242,3948.893,4215.269,3949.445Z" transform="matrix(1, 0.09, -0.09, 1, -3802.33, -4223.21)" fill="#ec6527" stroke="#fff" stroke-width="3"/>
    </g>
    <g transform="matrix(1, -0.09, 0.09, 1, 4155.94, 2932.38)" filter="url(#Tracé_55)">
      <path id="Tracé_55-2" data-name="Tracé 55" d="M4997.231,3009.2l-2.416-1.505c-.253-.22-.5-.44-.757-.66q-.378-.458-.753-.917-.349-.469-.692-.937l-.776-1.44a3.147,3.147,0,0,0-.761-2.548l-.246-1.361q0-2.015,0-4.029.067-1.126.138-2.253a1.56,1.56,0,0,0,.545-1.735q.557-2.677,1.116-5.354c.284-.441.57-.883.853-1.323a.823.823,0,0,0,.573-1.027c.336-.737,1.233-1.231.967-2.227.447-.143.761-.383.673-.918q.842-1.112,1.681-2.224.318-.458.638-.917.484-.69.97-1.38l2.4-2.2c.548-.373,1.017-.974.569-1.5-.873-1.021-2-.418-3.032-.147l-3.052-.772c-4.2-3.968-4.125-9.211-2.839-13.918,3.089-11.3,8.646-21.2,19.178-27.451a1.47,1.47,0,0,0,1.521-.64l.786-.257,4.055.015.857.229.586.224,2.1,1.373c.125.165.252.33.379.5.156.338.311.676.466,1.014q.224,3.57.448,7.141a4.916,4.916,0,0,0-.888,3.153,2.426,2.426,0,0,0-.688,2.372q-.1.758-.194,1.516c-.111.274-.223.549-.334.823-.112.516-.221,1.031-.333,1.546q-.061.406-.122.812a33.127,33.127,0,0,0-1.088,3.754c-.409,2.409-1.941,3.464-4.147,3.212a3.629,3.629,0,0,1-3.235-4.573c.646-3.587,1.9-7.059,2.776-10.61.308-1.257,1.837-2.856,0-3.825-1.318-.7-2.322.842-3.208,1.714a38.2,38.2,0,0,0-10.458,18.968c-.51,2.193-.6,4.666,1.186,6.293,1.859,1.689,3.987.2,5.895-.443a18.928,18.928,0,0,0,3.807-1.98c2.142-1.326,3.885-.356,5.2,1.146,1.431,1.635,1.585,3.568-.278,5.2-4.717,4.137-9.443,8.247-12.85,13.638-2.473,3.912-4.69,7.906-4.969,12.638-.309,5.235,3.443,7.883,8.149,5.579a26.394,26.394,0,0,0,13.776-14.8c1-2.691,1.907-5.562,3.565-7.836,4.044-5.55,3.315-11.2,1.249-17.07a3.436,3.436,0,0,0-.576-3.235.848.848,0,0,0-.174-.7q.038-2.345.073-4.69s.054-.082.052-.081l.612-.759,1.728-1.038h.813l.794.282.788.641.128.128q.282.464.567.929.571,1.11,1.141,2.219a2.221,2.221,0,0,0,.514,2.372q.11.774.217,1.548a4.554,4.554,0,0,0,.321,3.67c1.746-.728,1.862-2.345,2.364-3.715,2.254-4.01,2.241-9.4,7.279-11.736.992-.461.742-1.326.077-2.251-1.728-2.4-.314-3.72,1.876-4.638a17.815,17.815,0,0,1,3.211-1.308c5.23-1.046,8.336-3.678,7.624-9.493-.065-.545.459-1.163.709-1.748l1.2-1.072.213-.135a6.873,6.873,0,0,1,4.042.836l.121.137.6.773q.133.429.267.856c-.134,1.11-.508,2.23.143,3.307,0,0,.118.211.118.208.55.661,1.019.438,1.454-.136a.3.3,0,0,0,.393-.2,2.239,2.239,0,0,0,2.146-.9l3.4-1.284c.339.232.519.094.607-.259l.913-.391c.236-.129.47-.258.705-.388l.889-.333a1.261,1.261,0,0,0,1.514-.413l.076-.018,1.536-.138,1.573.2.693.85c1.452,5.371-4.087,4.882-6.146,7.33,1.128,2.146,4.923,1.894,4.719,5.408-.047.842,1.146.384,1.84-.078,1.7-1.129,3.539-2.054,5.172-3.266a4.575,4.575,0,0,1,6.11.027c1.581,2.126,1.182,4.622,1.306,7.02q-.142.751-.282,1.5a2.707,2.707,0,0,0-.727,2.4c-.555.637-1.194,1.237-.962,2.214-.062.281-.124.564-.187.846q-.381,1.023-.762,2.046a3.788,3.788,0,0,0-1.038,3.514c-.58,3.282-2.155,6.361-2.008,9.791.031.743-.2,1.573.753,1.984a1.708,1.708,0,0,0,2.285-.905c2.137-3.743,4.911-7.174,5.813-11.54,2.347-1.577,2.16-4.17,2.61-6.507q.237-.734.477-1.466c1.093-1.41,1.168-3.115,1.39-4.777,1.334-2.9,2.309-5.975,4.15-8.632.554.084.751-.186.7-.7l1.715-2.23c1.334.247,1.783-.8,2.378-1.631l-.018.025c2.071-.212,4.033-1.62,6.26-.345.755.431,1.317-.4,1.589-1.164l1.58-1.69a.563.563,0,0,0,.686-.211l2.326.026.185.059c.186.07.372.141.556.212l.9.62c.561,2.949-.539,5.791-.558,8.7q-.121.739-.242,1.476a4.052,4.052,0,0,0-.72,3.253c-.122.45-.245.9-.366,1.351-1.007.989-.51,2.188-.464,3.323-.289,2.688-1.312,5.335-.836,8.051.269,1.531-.029,4.013,1.537,4.33,2.2.445,3.561-1.5,4.236-3.6l-.075.065a.731.731,0,0,0,.552-.975q2.109-6.121,4.216-12.244l.956-2.542c.109-.375.22-.749.329-1.123.094-.2.188-.4.281-.594l.8-1.2.864-1.015a.511.511,0,0,0,.461-.359l1.49-.265c2.54,2,1.62,4.764,1.3,7.186-.3,2.224-1.348,4.348-2.066,6.515a3.366,3.366,0,0,0-.5,2.452.83.83,0,0,0-.279.7,4.339,4.339,0,0,0-1.212,3.291c-1.514,3.31-2.846,6.762-5.7,9.2a9.368,9.368,0,0,1-10.143,1.618c-.612-1.508-1.223-3.016-1.846-4.552-2.232.993-2.629,3.172-3.735,4.824-2.288,3.419-4.641,6.787-9.421,6.741-2.095-.55-3.153-3.79-5.061-3.163-1.636.539-2.616,3.057-3.9,4.682-.483.608-1.027,1.168-1.543,1.75l-2.867,1.921a13.2,13.2,0,0,1-5.643-.223l-.066-.036-1.333-1.11-.967-1.26q-.168-.772-.334-1.546a1.574,1.574,0,0,0-.5-1.685q-.132-.765-.267-1.53.042-1.649.083-3.3.057-.64.113-1.28c1.568-6.281,2.309-12.776,5.2-18.894-4.429,1.4-5.427,2.427-6.744,6.114a156.884,156.884,0,0,1-9.641,22.243,25.169,25.169,0,0,1-6.154,7.561c-3.413,2.785-6.774,2.489-9.407-.962-1.144-1.5-1.718-1.556-2.847-.151a33,33,0,0,1-3.507,3.687c-4.438,4.045-9.4,3.42-12.623-1.549-.634-.976-1.212-1.988-2.1-3.458-1.735,5.037-4.265,9.2-6.552,13.492-3.645,4.456-6.727,9.48-12.225,12.059l-.686.678-2.4,1.1a6.472,6.472,0,0,0-4.086,1.24l-1.508.225-3.2.073-.751-.334A2.417,2.417,0,0,0,4997.231,3009.2Zm48.009-61.748c1.906,2.547,1.237,4.7-.292,7.189-2.656,4.324-4.586,9.1-7.349,13.348-2.7,4.153-1.158,7.741.575,11.386,1.312,2.766,3.215,3.186,5.4.645,3.544-4.125,6.385-8.5,6.531-14.221.188-7.389,2.458-14.487,3.73-21.9C5050.277,2944.2,5048.181,2946.678,5045.241,2947.453Zm26.441-9.636c-6.7-.288-8.814,1.365-10.246,7.038-2.3,9.125-4.511,18.256-4.282,27.762.036,1.522-.211,3.523,1.563,4.053,1.609.48,2.308-1.332,3.145-2.448,4.3-5.737,5.966-12.726,8.992-19.07.628-1.315.7-2.258-1.5-2.453-3.735-.333-5.013-2.419-4.69-6.173C5065.018,2942.382,5067.941,2940.264,5071.682,2937.817Zm31.01,21.2c.2,2.1-.18,4.131,1.747,4.536,1.712.359,2.113-1.636,2.86-2.784,3.941-6.044,5.586-12.9,6.975-19.849.251-1.251.211-2.611-.86-3.189-1.4-.753-2.056.805-2.686,1.648C5106.235,2945.375,5104.223,2952.376,5102.691,2959.012Z" transform="matrix(1, 0.09, -0.09, 1, -4629.9, -3348.64)" fill="#ec6527" stroke="#fff" stroke-width="3"/>
    </g>
  </g>
</svg>
