<svg id="house" xmlns="http://www.w3.org/2000/svg" width="64.478" height="64.478" viewBox="0 0 64.478 64.478">
  <path id="Tracé_5577" data-name="Tracé 5577" d="M84.307,225.309h6.544v7.727H84.307Z" transform="translate(-73.689 -196.933)" fill="#f8e813"/>
  <path id="Tracé_5578" data-name="Tracé 5578" d="M375.694,225.309h6.544v7.727h-6.544Z" transform="translate(-328.378 -196.933)" fill="#f8e813"/>
  <path id="Tracé_5579" data-name="Tracé 5579" d="M230,225.309h6.544v7.727H230Z" transform="translate(-201.033 -196.933)" fill="#f8e813"/>
  <path id="Tracé_5580" data-name="Tracé 5580" d="M0,323.378a8.693,8.693,0,0,1,11.755,1.769,8.7,8.7,0,0,1,13.646,0,8.7,8.7,0,0,1,13.645,0,8.7,8.7,0,0,1,13.662.008,8.7,8.7,0,0,1,11.769-1.779v-6.708H0Z" transform="translate(0 -276.784)" fill="#fef8f5"/>
  <path id="Tracé_5581" data-name="Tracé 5581" d="M113.268,387.766a4.939,4.939,0,0,0-4.934,4.934h0v10.708H118.2V392.7A4.94,4.94,0,0,0,113.268,387.766Z" transform="translate(-94.69 -338.93)" fill="#fef8f5"/>
  <path id="Tracé_5582" data-name="Tracé 5582" d="M329.979,387.726a4.943,4.943,0,0,0-4.938,4.938h0v10.708h9.89V392.664h-.014A4.943,4.943,0,0,0,329.979,387.726Z" transform="translate(-284.105 -338.895)" fill="#fef8f5"/>
  <path id="Tracé_5583" data-name="Tracé 5583" d="M221.622,387.766a4.94,4.94,0,0,0-4.934,4.934v10.708h9.868V392.7A4.939,4.939,0,0,0,221.622,387.766Z" transform="translate(-189.398 -338.93)" fill="#fef8f5"/>
  <path id="Tracé_5584" data-name="Tracé 5584" d="M4.932,387.766A4.939,4.939,0,0,0,0,392.6v10.8H9.866V392.7A4.94,4.94,0,0,0,4.932,387.766Z" transform="translate(0 -338.93)" fill="#fef8f5"/>
  <path id="Tracé_5585" data-name="Tracé 5585" d="M438.5,387.726a4.943,4.943,0,0,0-4.938,4.938v10.709h9.873v-10.8A4.943,4.943,0,0,0,438.5,387.726Z" transform="translate(-378.963 -338.895)" fill="#fef8f5"/>
  <path id="Tracé_5586" data-name="Tracé 5586" d="M64.478,3.612H60.7v6.822H44.6V7.005H39.244a7.005,7.005,0,1,0-14.01,0H19.883v3.429H3.778V3.612H0V36.1H6.84V24.6h14.1V36.1h4.248V24.6h14.1V36.1h4.248V24.6h14.1V36.1h6.839ZM15.779,20.35H12V16.571h3.778Zm18.349,0H30.35V16.571h3.778Zm18.349,0H48.7V16.571h3.778Z" fill="#fef8f5"/>
</svg>
