<svg xmlns="http://www.w3.org/2000/svg" width="24.06" height="24.206" viewBox="0 0 24.06 24.206">
  <path id="linkedin_1_" data-name="linkedin (1)" d="M24.341,2H3.839A1.755,1.755,0,0,0,2.06,3.731V24.475a1.755,1.755,0,0,0,1.779,1.731h20.5a1.755,1.755,0,0,0,1.779-1.731V3.731A1.755,1.755,0,0,0,24.341,2ZM9.358,22.26H5.727V11.368H9.358ZM7.543,9.843h0a1.888,1.888,0,0,1,0-3.776,1.9,1.9,0,1,1,0,3.776ZM22.453,22.26H18.822V16.415c0-1.464-.52-2.421-1.84-2.421a2,2,0,0,0-1.864,1.319A2.421,2.421,0,0,0,15,16.2v6.051H11.367V11.356H15v1.537a3.631,3.631,0,0,1,3.28-1.815c2.421,0,4.175,1.561,4.175,4.914Z" transform="translate(-2.06 -2)" fill="#ec6527"/>
</svg>
