<svg xmlns="http://www.w3.org/2000/svg" width="23.829" height="23.829" viewBox="0 0 23.829 23.829">
  <path id="Tracé_6512" data-name="Tracé 6512" d="M11.914,2.118a36.532,36.532,0,0,1,4.766.132,6.14,6.14,0,0,1,2.251.4A4.649,4.649,0,0,1,21.181,4.9a6.14,6.14,0,0,1,.4,2.251c0,1.191.132,1.589.132,4.766a36.531,36.531,0,0,1-.132,4.766,6.14,6.14,0,0,1-.4,2.251,4.649,4.649,0,0,1-2.251,2.251,6.14,6.14,0,0,1-2.251.4c-1.191,0-1.589.132-4.766.132a36.531,36.531,0,0,1-4.766-.132,6.14,6.14,0,0,1-2.251-.4,4.649,4.649,0,0,1-2.251-2.251,6.14,6.14,0,0,1-.4-2.251c0-1.191-.132-1.589-.132-4.766a36.532,36.532,0,0,1,.132-4.766,6.14,6.14,0,0,1,.4-2.251,4.755,4.755,0,0,1,.927-1.324A2.238,2.238,0,0,1,4.9,2.648a6.14,6.14,0,0,1,2.251-.4,36.532,36.532,0,0,1,4.766-.132m0-2.118a39.115,39.115,0,0,0-4.9.132A8.173,8.173,0,0,0,4.1.662,5.182,5.182,0,0,0,1.986,1.986,5.182,5.182,0,0,0,.662,4.1a6.032,6.032,0,0,0-.53,2.912A39.115,39.115,0,0,0,0,11.914a39.115,39.115,0,0,0,.132,4.9,8.173,8.173,0,0,0,.53,2.912,5.182,5.182,0,0,0,1.324,2.118A5.182,5.182,0,0,0,4.1,23.167a8.173,8.173,0,0,0,2.912.53,39.115,39.115,0,0,0,4.9.132,39.115,39.115,0,0,0,4.9-.132,8.173,8.173,0,0,0,2.912-.53,5.554,5.554,0,0,0,3.442-3.442,8.173,8.173,0,0,0,.53-2.912c0-1.324.132-1.721.132-4.9a39.115,39.115,0,0,0-.132-4.9,8.173,8.173,0,0,0-.53-2.912,5.182,5.182,0,0,0-1.324-2.118A5.182,5.182,0,0,0,19.725.662a8.173,8.173,0,0,0-2.912-.53A39.115,39.115,0,0,0,11.914,0m0,5.825a5.992,5.992,0,0,0-6.09,6.09,6.09,6.09,0,1,0,6.09-6.09m0,10.061a3.9,3.9,0,0,1-3.971-3.971,3.9,3.9,0,0,1,3.971-3.971,3.9,3.9,0,0,1,3.971,3.971,3.9,3.9,0,0,1-3.971,3.971M18.269,4.1A1.456,1.456,0,1,0,19.725,5.56,1.469,1.469,0,0,0,18.269,4.1" fill="#ec6527" fill-rule="evenodd"/>
</svg>
