<svg xmlns="http://www.w3.org/2000/svg" xmlns:xlink="http://www.w3.org/1999/xlink" width="297.574" height="194.896" viewBox="0 0 297.574 194.896">
  <defs>
    <clipPath id="clip-path">
      <rect id="Rectangle_57" data-name="Rectangle 57" width="297.574" height="194.896" fill="none"/>
    </clipPath>
  </defs>
  <g id="Groupe_41" data-name="Groupe 41" transform="translate(-107.951 -199.843)">
    <g id="Groupe_40" data-name="Groupe 40" transform="translate(107.951 199.843)" clip-path="url(#clip-path)">
      <path id="Tracé_5594" data-name="Tracé 5594" d="M343.052,286.761a35.838,35.838,0,0,0-66.412,0Z" transform="translate(-161.35 -220.28)" fill="#fff"/>
      <path id="Tracé_5595" data-name="Tracé 5595" d="M277.065,389a35.838,35.838,0,0,0,66.412,0Z" transform="translate(-161.485 -259.72)" fill="#fff"/>
      <path id="Tracé_5596" data-name="Tracé 5596" d="M334.158,292.36A20.961,20.961,0,0,0,316.192,282.1a20.7,20.7,0,0,0-17.9,10.153l-1.607-.962a22.73,22.73,0,0,1,39.087.121Z" transform="translate(-167.695 -225.288)" fill="#f8e813"/>
      <path id="Tracé_5597" data-name="Tracé 5597" d="M290.649,284.572l.383.321-1.312,1.566,1.214,1.018L292,286.2l.382.321-1.065,1.271,1.623,1.36-.394.469-3.6-3.018Z" transform="translate(-165.245 -226.664)" fill="#233f93"/>
      <path id="Tracé_5598" data-name="Tracé 5598" d="M298.395,283.751l-2.106-.715-.559.486,1.26,1.45-.463.4-3.084-3.545,1.145-1a2.008,2.008,0,0,1,.8-.454,1.267,1.267,0,0,1,.737.011,1.368,1.368,0,0,1,.6.414,1.322,1.322,0,0,1,.041,1.752l2.182.711Zm-2.988-.6.681-.593a1.024,1.024,0,0,0,.4-.677.881.881,0,0,0-.243-.66.841.841,0,0,0-.611-.327,1.072,1.072,0,0,0-.718.321l-.681.593Z" transform="translate(-166.669 -225.322)" fill="#233f93"/>
      <path id="Tracé_5599" data-name="Tracé 5599" d="M302.949,280.183a2.241,2.241,0,0,1-1.167-.315,2.6,2.6,0,0,1-1.237-2.143,2.248,2.248,0,0,1,.31-1.168,2.487,2.487,0,0,1,2.073-1.2,2.222,2.222,0,0,1,1.162.314,2.452,2.452,0,0,1,.889.919,2.478,2.478,0,0,1,.352,1.229,2.229,2.229,0,0,1-.31,1.163,2.486,2.486,0,0,1-2.073,1.2m1.574-1.434a1.61,1.61,0,0,0,.21-.876,2.264,2.264,0,0,0-.986-1.708,1.624,1.624,0,0,0-.859-.256,1.842,1.842,0,0,0-1.542.891,1.62,1.62,0,0,0-.208.871,2.261,2.261,0,0,0,.986,1.708,1.611,1.611,0,0,0,.865.256,1.829,1.829,0,0,0,1.536-.886" transform="translate(-168.917 -223.748)" fill="#233f93"/>
      <path id="Tracé_5600" data-name="Tracé 5600" d="M312.956,270.842l1.373,4.459-.586.181-1.024-3.325-.458,3.781-.413.127-2.514-2.873,1.027,3.331-.586.18-1.374-4.459.632-.194,2.785,3.177.514-4.194Z" transform="translate(-171.404 -222.318)" fill="#233f93"/>
      <path id="Tracé_5601" data-name="Tracé 5601" d="M327.485,269.882l-.1,4.665-.614-.014.075-3.477L325.22,274.5l-.432-.01-1.481-3.518-.076,3.484-.614-.013.1-4.665.661.014,1.642,3.892,1.809-3.817Z" transform="translate(-175.904 -221.982)" fill="#233f93"/>
      <path id="Tracé_5602" data-name="Tracé 5602" d="M333.241,271.062l-.33,1.536,1.674.36-.105.495-1.675-.361-.34,1.582,1.872.4-.106.495-2.472-.532.99-4.6,2.471.531-.106.5Z" transform="translate(-178.798 -222.19)" fill="#233f93"/>
      <path id="Tracé_5603" data-name="Tracé 5603" d="M339.918,274.974l.485,2.711-.647-.254-.377-2.119-1.668,1.315-.634-.249,2.195-1.659L338.789,272l.64.252.381,2.128,1.677-1.319.64.251Z" transform="translate(-180.482 -222.685)" fill="#233f93"/>
      <rect id="Rectangle_54" data-name="Rectangle 54" width="4.699" height="0.614" transform="translate(161.098 55.658) rotate(-61.123)" fill="#233f93"/>
      <path id="Tracé_5604" data-name="Tracé 5604" d="M349.029,278.6a2.247,2.247,0,0,1,1.194-.17,2.332,2.332,0,0,1,1.134.474,2.417,2.417,0,0,1,.843,1.109,2.129,2.129,0,0,1,.027,1.343l-.584-.445a1.482,1.482,0,0,0-.051-.862,1.63,1.63,0,0,0-.561-.716,1.712,1.712,0,0,0-.841-.353,1.6,1.6,0,0,0-.882.146,2.293,2.293,0,0,0-1.193,1.566,1.605,1.605,0,0,0,.093.889,1.714,1.714,0,0,0,.564.718,1.645,1.645,0,0,0,.837.354,1.454,1.454,0,0,0,.842-.176l.584.446a2.111,2.111,0,0,1-1.3.322,2.43,2.43,0,0,1-1.29-.521,2.366,2.366,0,0,1-.761-.966,2.24,2.24,0,0,1-.155-1.191,2.616,2.616,0,0,1,1.5-1.965" transform="translate(-183.784 -224.714)" fill="#233f93"/>
      <path id="Tracé_5605" data-name="Tracé 5605" d="M354.026,287.426a2.241,2.241,0,0,1,.1-1.2,2.6,2.6,0,0,1,1.879-1.61,2.24,2.24,0,0,1,1.2.091,2.485,2.485,0,0,1,1.558,1.818,2.241,2.241,0,0,1-.1,1.2,2.638,2.638,0,0,1-1.884,1.614,2.225,2.225,0,0,1-1.2-.09,2.485,2.485,0,0,1-1.557-1.818m1.7,1.284a1.615,1.615,0,0,0,.9.046,2.264,2.264,0,0,0,1.5-1.283,1.621,1.621,0,0,0,.093-.892,1.842,1.842,0,0,0-1.158-1.352,1.633,1.633,0,0,0-.9-.046,2.268,2.268,0,0,0-1.5,1.284,1.619,1.619,0,0,0-.093.9,1.83,1.83,0,0,0,1.153,1.346" transform="translate(-185.834 -226.663)" fill="#233f93"/>
      <path id="Tracé_5606" data-name="Tracé 5606" d="M331.481,294.139a14.854,14.854,0,0,0-24.365,0l-.614-.429a15.6,15.6,0,0,1,25.594,0Z" transform="translate(-170.803 -227.444)" fill="#233f93"/>
      <path id="Tracé_5607" data-name="Tracé 5607" d="M316.666,400.329l-.29,0a22.841,22.841,0,0,1-19.432-11.437l1.625-.932a20.858,20.858,0,0,0,35.931.465l1.6.974a22.846,22.846,0,0,1-19.432,10.932" transform="translate(-167.777 -259.392)" fill="#f8e813"/>
      <path id="Tracé_5608" data-name="Tracé 5608" d="M295.1,396.43l-.379.323-.829-.978-3.205,2.716-.4-.467,3.2-2.715-.832-.983.381-.323Z" transform="translate(-165.671 -261.305)" fill="#233f93"/>
      <path id="Tracé_5609" data-name="Tracé 5609" d="M295.265,403.137a2.245,2.245,0,0,1-.1-1.2,2.6,2.6,0,0,1,1.592-1.893,2.249,2.249,0,0,1,1.2-.107,2.494,2.494,0,0,1,1.831,1.54,2.229,2.229,0,0,1,.1,1.2,2.64,2.64,0,0,1-1.6,1.9,2.237,2.237,0,0,1-1.2.106,2.5,2.5,0,0,1-1.832-1.541m1.885.991a1.62,1.62,0,0,0,.9-.1,2.27,2.27,0,0,0,1.269-1.51,1.634,1.634,0,0,0-.053-.9,1.849,1.849,0,0,0-1.362-1.146,1.639,1.639,0,0,0-.891.1,2.267,2.267,0,0,0-1.269,1.51,1.609,1.609,0,0,0,.053.9,1.831,1.831,0,0,0,1.357,1.142" transform="translate(-167.202 -263.17)" fill="#233f93"/>
      <path id="Tracé_5610" data-name="Tracé 5610" d="M308.561,409.082a1.217,1.217,0,0,1,.132.519,1.209,1.209,0,0,1-.539,1.048,1.25,1.25,0,0,1-.67.191,1.905,1.905,0,0,1-.814-.189l-1.6-.727,1.951-4.276,1.534.7a1.919,1.919,0,0,1,.677.482,1.167,1.167,0,0,1,.281.6,1.119,1.119,0,0,1-.1.622,1.048,1.048,0,0,1-.491.536,1.263,1.263,0,0,1-.707.111,1,1,0,0,1,.34.385m-.99,1.186a.738.738,0,0,0,.483-.44.763.763,0,0,0,.011-.673,1.086,1.086,0,0,0-.563-.5l-.969-.442-.688,1.51.987.449a1.072,1.072,0,0,0,.74.1m-.829-2.52.938.428a1,1,0,0,0,.692.092.783.783,0,0,0,.465-1.018,1.02,1.02,0,0,0-.536-.466l-.925-.422Z" transform="translate(-170.351 -264.991)" fill="#233f93"/>
      <path id="Tracé_5611" data-name="Tracé 5611" d="M313.451,412.981a2.244,2.244,0,0,1-.631-1.031,2.6,2.6,0,0,1,.573-2.406,2.252,2.252,0,0,1,1.028-.635,2.379,2.379,0,0,1,1.232-.023,2.4,2.4,0,0,1,1.1.577,2.232,2.232,0,0,1,.628,1.028,2.642,2.642,0,0,1-.575,2.413,2.231,2.231,0,0,1-1.024.632,2.491,2.491,0,0,1-2.328-.555m2.129.04a1.63,1.63,0,0,0,.756-.492,2.265,2.265,0,0,0,.457-1.918,1.62,1.62,0,0,0-.45-.776,1.841,1.841,0,0,0-1.731-.412,1.626,1.626,0,0,0-.751.49,2.268,2.268,0,0,0-.457,1.918,1.616,1.616,0,0,0,.452.78,1.826,1.826,0,0,0,1.724.411" transform="translate(-172.773 -265.994)" fill="#233f93"/>
      <path id="Tracé_5612" data-name="Tracé 5612" d="M324.286,414.706l-1.044-1.965-.74-.029-.075,1.92-.614-.024.185-4.7,1.514.06a2.02,2.02,0,0,1,.893.217,1.258,1.258,0,0,1,.529.513,1.365,1.365,0,0,1,.155.715,1.392,1.392,0,0,1-.313.845,1.37,1.37,0,0,1-.859.459l1.1,2.013Zm-1.765-2.485.9.035a1.022,1.022,0,0,0,.757-.216.882.882,0,0,0,.275-.648.845.845,0,0,0-.221-.656,1.066,1.066,0,0,0-.743-.258l-.9-.036Z" transform="translate(-175.65 -266.341)" fill="#233f93"/>
      <path id="Tracé_5613" data-name="Tracé 5613" d="M331.423,409.793a2.023,2.023,0,0,1,.973.686,2.761,2.761,0,0,1,.36,2.479,1.979,1.979,0,0,1-.737.925,2.952,2.952,0,0,1-1.278.468l-1.447.21-.678-4.65,1.448-.211a2.921,2.921,0,0,1,1.359.092m.55,3.382a1.834,1.834,0,0,0,.28-1.406,1.7,1.7,0,0,0-2.116-1.573l-.841.122.532,3.657.841-.122a1.87,1.87,0,0,0,1.3-.677" transform="translate(-177.803 -266.262)" fill="#233f93"/>
      <path id="Tracé_5614" data-name="Tracé 5614" d="M336.785,408.588l.492,1.492,1.627-.536.158.48-1.626.536.506,1.537,1.819-.6.159.48-2.4.791-1.473-4.469,2.4-.792.158.48Z" transform="translate(-180.155 -265.58)" fill="#233f93"/>
      <path id="Tracé_5615" data-name="Tracé 5615" d="M346.12,408.294l-1.813.955.153,1.1-.572.3-.675-4.926.627-.331,3.674,3.345-.573.3Zm-.388-.36-1.857-1.7.355,2.495Z" transform="translate(-182.424 -264.912)" fill="#233f93"/>
      <path id="Tracé_5616" data-name="Tracé 5616" d="M348.12,401.905l1.832,2.343a1.26,1.26,0,0,0,.815.543,1.343,1.343,0,0,0,1.339-1.046,1.26,1.26,0,0,0-.332-.923l-1.832-2.342.482-.377,1.828,2.336a1.92,1.92,0,0,1,.422.923,1.486,1.486,0,0,1-.133.863,2.165,2.165,0,0,1-1.418,1.109,1.456,1.456,0,0,1-.867-.079,1.941,1.941,0,0,1-.793-.635l-1.828-2.336Z" transform="translate(-183.824 -263.236)" fill="#233f93"/>
      <path id="Tracé_5617" data-name="Tracé 5617" d="M356.209,397.666l2.705.517-.468.513-2.113-.405.632,2.028-.459.5-.764-2.643-2.711-.521.463-.507,2.122.4-.631-2.038.463-.508Z" transform="translate(-185.532 -261.624)" fill="#233f93"/>
      <path id="Tracé_5618" data-name="Tracé 5618" d="M319.8,395.9h-.205a15.635,15.635,0,0,1-12.675-6.791l.618-.424a14.881,14.881,0,0,0,12.067,6.465l.195,0a14.837,14.837,0,0,0,12.258-6.467l.618.424A15.589,15.589,0,0,1,319.8,395.9" transform="translate(-170.935 -259.623)" fill="#233f93"/>
      <path id="Tracé_5619" data-name="Tracé 5619" d="M372.08,360.415H178.916V343.333L166.939,328.08l11.977-15.253V295.745H372.08v17.3l11.8,15.032-11.8,15.03Zm-191.29-1.873H370.207V342.463L381.5,328.08,370.207,313.7V297.618H180.789v15.857L169.321,328.08l11.468,14.6Z" transform="translate(-126.624 -230.201)" fill="#ec6527"/>
      <path id="Tracé_5620" data-name="Tracé 5620" d="M373.621,357.112H171.186v-7.251l-14.04-18.929,14.04-19.423v-6.765H373.621v6.947l13.853,19.24-13.853,18.747Zm-201.686-.749H372.871v-6.931l.073-.1,13.6-18.407-13.676-18.993v-6.44H171.935v6.258l-13.86,19.175,13.86,18.688Z" transform="translate(-123.524 -233.05)" fill="#ec6527"/>
      <path id="Tracé_5621" data-name="Tracé 5621" d="M193.552,311.554a2.1,2.1,0,1,1-2.1-2.1,2.1,2.1,0,0,1,2.1,2.1" transform="translate(-133.718 -234.54)" fill="#ec6527"/>
      <path id="Tracé_5622" data-name="Tracé 5622" d="M191.826,317.284a.287.287,0,0,0-.536,0,25.593,25.593,0,0,0-1.605,5.276,1.884,1.884,0,1,0,3.743,0,24.013,24.013,0,0,0-1.6-5.276" transform="translate(-133.824 -236.961)" fill="#f8e813"/>
      <path id="Tracé_5623" data-name="Tracé 5623" d="M196.932,311.245a.287.287,0,0,0,0,.535,25.556,25.556,0,0,0,5.276,1.606,1.884,1.884,0,1,0,0-3.743,24.011,24.011,0,0,0-5.276,1.6" transform="translate(-136.06 -234.601)" fill="#f8e813"/>
      <path id="Tracé_5624" data-name="Tracé 5624" d="M195.565,315.144a.287.287,0,0,0-.378.379,25.514,25.514,0,0,0,2.6,4.865,1.884,1.884,0,1,0,2.646-2.646,24.018,24.018,0,0,0-4.863-2.6" transform="translate(-135.558 -236.334)" fill="#f8e813"/>
      <path id="Tracé_5625" data-name="Tracé 5625" d="M191.326,369.844a2.1,2.1,0,1,1-2.1,2.1,2.1,2.1,0,0,1,2.1-2.1" transform="translate(-133.678 -253.657)" fill="#ec6527"/>
      <path id="Tracé_5626" data-name="Tracé 5626" d="M197.056,371.783a.287.287,0,0,0,0,.535,25.523,25.523,0,0,0,5.275,1.606,1.884,1.884,0,1,0,0-3.743,24.015,24.015,0,0,0-5.276,1.6" transform="translate(-136.1 -253.764)" fill="#f8e813"/>
      <path id="Tracé_5627" data-name="Tracé 5627" d="M191.016,364.909a.287.287,0,0,0,.535,0,25.54,25.54,0,0,0,1.606-5.275,1.884,1.884,0,1,0-3.743,0,24.014,24.014,0,0,0,1.6,5.276" transform="translate(-133.738 -249.76)" fill="#f8e813"/>
      <path id="Tracé_5628" data-name="Tracé 5628" d="M194.916,367.031a.287.287,0,0,0,.379.378,25.553,25.553,0,0,0,4.865-2.6,1.884,1.884,0,1,0-2.646-2.646,23.982,23.982,0,0,0-2.6,4.863" transform="translate(-135.472 -251.016)" fill="#f8e813"/>
      <path id="Tracé_5629" data-name="Tracé 5629" d="M455.905,311.554a2.1,2.1,0,1,0,2.1-2.1,2.1,2.1,0,0,0-2.1,2.1" transform="translate(-218.097 -234.54)" fill="#ec6527"/>
      <path id="Tracé_5630" data-name="Tracé 5630" d="M457.844,317.284a.287.287,0,0,1,.535,0,25.555,25.555,0,0,1,1.606,5.276,1.884,1.884,0,1,1-3.743,0,23.976,23.976,0,0,1,1.6-5.276" transform="translate(-218.204 -236.961)" fill="#f8e813"/>
      <path id="Tracé_5631" data-name="Tracé 5631" d="M450.969,311.245a.287.287,0,0,1,0,.535,25.544,25.544,0,0,1-5.276,1.606,1.884,1.884,0,1,1,0-3.743,24.011,24.011,0,0,1,5.276,1.6" transform="translate(-214.199 -234.601)" fill="#f8e813"/>
      <path id="Tracé_5632" data-name="Tracé 5632" d="M453.092,315.144a.287.287,0,0,1,.378.379,25.551,25.551,0,0,1-2.6,4.865,1.884,1.884,0,1,1-2.646-2.646,24.017,24.017,0,0,1,4.863-2.6" transform="translate(-215.456 -236.334)" fill="#f8e813"/>
      <path id="Tracé_5633" data-name="Tracé 5633" d="M458.131,369.844a2.1,2.1,0,1,0,2.1,2.1,2.1,2.1,0,0,0-2.1-2.1" transform="translate(-218.136 -253.657)" fill="#ec6527"/>
      <path id="Tracé_5634" data-name="Tracé 5634" d="M450.845,371.783a.287.287,0,0,1,0,.535,25.51,25.51,0,0,1-5.275,1.606,1.884,1.884,0,1,1,0-3.743,24.019,24.019,0,0,1,5.276,1.6" transform="translate(-214.16 -253.764)" fill="#f8e813"/>
      <path id="Tracé_5635" data-name="Tracé 5635" d="M458.654,364.909a.287.287,0,0,1-.535,0,25.541,25.541,0,0,1-1.606-5.275,1.884,1.884,0,1,1,3.742,0,24.006,24.006,0,0,1-1.6,5.276" transform="translate(-218.29 -249.76)" fill="#f8e813"/>
      <path id="Tracé_5636" data-name="Tracé 5636" d="M453.738,367.031a.287.287,0,0,1-.38.378,25.566,25.566,0,0,1-4.865-2.6,1.884,1.884,0,1,1,2.646-2.646,24.015,24.015,0,0,1,2.6,4.863" transform="translate(-215.54 -251.016)" fill="#f8e813"/>
      <path id="Tracé_5637" data-name="Tracé 5637" d="M210.657,346.052a7.051,7.051,0,0,0,1.117-.571,8.1,8.1,0,0,0,.9-.654,4.68,4.68,0,0,0,.558-.53l-1.5,6.081H199.615a10.439,10.439,0,0,0,.687-.979,8.467,8.467,0,0,0,.472-.96,2.546,2.546,0,0,0,.215-1v-9.755a1.759,1.759,0,0,0-.3-.715,4.176,4.176,0,0,0-.6-.714,11.536,11.536,0,0,0-.858-.816,4.923,4.923,0,0,0,1.01-.9,4.1,4.1,0,0,0,.536-.817,1.893,1.893,0,0,0,.193-.612c.014-.163.022-.258.022-.286v-9.713a2.7,2.7,0,0,0-.215-1.1,3.724,3.724,0,0,0-.472-.817,3.99,3.99,0,0,0-.644-.693h7.175a2.56,2.56,0,0,0-1.031,1.143,3.135,3.135,0,0,0-.344,1.305v9.877a2.5,2.5,0,0,0,.044.327,2.591,2.591,0,0,0,.215.612,3.956,3.956,0,0,0,.515.8,4.7,4.7,0,0,0,.988.878q-.431.408-.816.816a5,5,0,0,0-.623.714,1.627,1.627,0,0,0-.324.715V346.3h4.04a3.091,3.091,0,0,0,1.16-.245" transform="translate(-136.845 -238.037)" fill="#fff"/>
      <path id="Tracé_5638" data-name="Tracé 5638" d="M231.647,350.318a6.565,6.565,0,0,0,.73-.9,4.81,4.81,0,0,0,.452-.938,2.211,2.211,0,0,0,.107-1.1q-.086-.571-.172-1.163t-.172-1.041q-.087-.53-.172-1.061h-5.714l-.472,3.347a1.861,1.861,0,0,0,.107,1,5.12,5.12,0,0,0,.45.918,7.21,7.21,0,0,0,.688.939h-7a4.557,4.557,0,0,0,.6-.694c.144-.218.28-.442.409-.674a2.919,2.919,0,0,0,.28-.674l1.417-9.755a1.842,1.842,0,0,0-.172-1.1,8.309,8.309,0,0,0-.558-.98q-.388-.49-.817-.979a6.181,6.181,0,0,0,1.4-.9,3.293,3.293,0,0,0,.709-.858,2.231,2.231,0,0,0,.3-.9q.6-4.2,1.009-6.817t.493-2.816a1.491,1.491,0,0,0-.128-.919,7.525,7.525,0,0,0-.473-.878q-.3-.448-.687-.938h10.654a9.27,9.27,0,0,0-.73.938,5.827,5.827,0,0,0-.451.878,1.371,1.371,0,0,0-.107.837l1.5,9.756a4.854,4.854,0,0,0,.15.53,2.7,2.7,0,0,0,.365.694,3.558,3.558,0,0,0,.688.714,4.523,4.523,0,0,0,1.116.633,7.751,7.751,0,0,0-.815.9,5.042,5.042,0,0,0-.538.938,2.05,2.05,0,0,0-.15,1.143q.258,1.592.494,3.246t.43,3.041q.193,1.388.322,2.307t.172,1.041a3.323,3.323,0,0,0,.3.776c.144.272.286.517.43.734a5.176,5.176,0,0,0,.6.776Zm.172-10.327-2.234-14.98-2.234,14.98Z" transform="translate(-143.571 -238.018)" fill="#fff"/>
      <path id="Tracé_5639" data-name="Tracé 5639" d="M274.22,326.744a11.627,11.627,0,0,0-1.246-1.1,8.526,8.526,0,0,0-1.181-.8,2.386,2.386,0,0,0-1.139-.347h-3.136v8.327a2.251,2.251,0,0,0,.043.326,2.955,2.955,0,0,0,.709,1.409,5.29,5.29,0,0,0,1.01.878c-.316.273-.6.545-.86.816a3.856,3.856,0,0,0-.6.735,1.879,1.879,0,0,0-.3.735v10.449a1.545,1.545,0,0,0,.215.756,5.236,5.236,0,0,0,.472.714,3.556,3.556,0,0,0,.73.735h-7.261a5.979,5.979,0,0,0,.688-.776,5.5,5.5,0,0,0,.472-.714,1.633,1.633,0,0,0,.215-.8V337.725a1.882,1.882,0,0,0-.3-.735,3.856,3.856,0,0,0-.6-.735q-.386-.407-.86-.816a4.881,4.881,0,0,0,1.009-.9,4.059,4.059,0,0,0,.538-.817,1.92,1.92,0,0,0,.193-.612c.014-.163.022-.258.022-.286V324.5h-2.965a2.384,2.384,0,0,0-1.139.347,6.7,6.7,0,0,0-1.138.8,11.764,11.764,0,0,0-1.246,1.1l1.2-6.245h15.253Z" transform="translate(-154.994 -238.037)" fill="#fff"/>
      <path id="Tracé_5640" data-name="Tracé 5640" d="M293.569,350.318a6.572,6.572,0,0,0,.731-.9,4.851,4.851,0,0,0,.451-.938,2.219,2.219,0,0,0,.108-1.1q-.087-.571-.172-1.163t-.172-1.041q-.087-.53-.172-1.061h-5.715l-.472,3.347a1.868,1.868,0,0,0,.108,1,5.119,5.119,0,0,0,.45.918,7.208,7.208,0,0,0,.688.939h-7a4.6,4.6,0,0,0,.6-.694c.144-.218.28-.442.408-.674a2.889,2.889,0,0,0,.28-.674l1.418-9.755a1.842,1.842,0,0,0-.172-1.1,8.22,8.22,0,0,0-.558-.98q-.387-.49-.816-.979a6.182,6.182,0,0,0,1.4-.9,3.308,3.308,0,0,0,.709-.858,2.218,2.218,0,0,0,.3-.9q.6-4.2,1.01-6.817t.493-2.816a1.491,1.491,0,0,0-.129-.919,7.527,7.527,0,0,0-.473-.878q-.3-.448-.688-.938h10.655a9.27,9.27,0,0,0-.73.938,5.825,5.825,0,0,0-.451.878,1.37,1.37,0,0,0-.107.837l1.5,9.756a4.854,4.854,0,0,0,.15.53,2.7,2.7,0,0,0,.365.694,3.6,3.6,0,0,0,.688.714,4.523,4.523,0,0,0,1.116.633,7.815,7.815,0,0,0-.815.9,5.042,5.042,0,0,0-.538.938,2.05,2.05,0,0,0-.15,1.143q.258,1.592.494,3.246t.43,3.041q.193,1.388.322,2.307t.172,1.041a3.3,3.3,0,0,0,.3.776c.143.272.286.517.429.734a5.22,5.22,0,0,0,.6.776Zm.172-10.327-2.234-14.98-2.234,14.98Z" transform="translate(-163.173 -238.018)" fill="#fff"/>
      <path id="Tracé_5641" data-name="Tracé 5641" d="M324.432,348.532a.716.716,0,0,0,.58-.1q.324-.183.625-.387a6.741,6.741,0,0,0,.73-.612v6.653a9.666,9.666,0,0,0-.73-.775,3.241,3.241,0,0,0-.8-.551,3.319,3.319,0,0,0-.969-.307,5.231,5.231,0,0,1-2.543-.734,5.062,5.062,0,0,1-1.636-1.633,6.927,6.927,0,0,1-1.6.2h-1.292a6.83,6.83,0,0,1-2.65-.51A7.008,7.008,0,0,1,312,348.388a6.608,6.608,0,0,1-1.465-2.041,5.89,5.89,0,0,1-.538-2.51v-6.286a1.73,1.73,0,0,0-.3-.714,4.11,4.11,0,0,0-.6-.714,11.844,11.844,0,0,0-.86-.816,4.9,4.9,0,0,0,1.009-.9,4.044,4.044,0,0,0,.537-.817,1.916,1.916,0,0,0,.193-.612c.015-.163.022-.258.022-.286v-6.163a5.9,5.9,0,0,1,.538-2.51A6.624,6.624,0,0,1,312,321.98a7.018,7.018,0,0,1,2.155-1.388,6.843,6.843,0,0,1,2.65-.511h1.336a6.846,6.846,0,0,1,2.65.511,6.7,6.7,0,0,1,3.575,3.429,5.9,5.9,0,0,1,.54,2.51v6.122c0,.027.008.123.022.286a2.165,2.165,0,0,0,.172.612,3.33,3.33,0,0,0,.515.816,5.39,5.39,0,0,0,1.052.939,11.691,11.691,0,0,0-.858.816,4.536,4.536,0,0,0-.623.734,1.348,1.348,0,0,0-.28.735v6.245a6.042,6.042,0,0,1-.388,2.163,6.236,6.236,0,0,1-1.076,1.836,1.545,1.545,0,0,0,.99.694m-6.357-2.49a2.309,2.309,0,0,0,1.654-.633,2.078,2.078,0,0,0,.666-1.571V337.47a2.23,2.23,0,0,0-.343-.694,4.785,4.785,0,0,0-.6-.694,10.811,10.811,0,0,0-.816-.775,5.353,5.353,0,0,0,1.009-.878,3.671,3.671,0,0,0,.537-.8,2.594,2.594,0,0,0,.215-.612,2.441,2.441,0,0,0,.042-.327v-6.163a2.051,2.051,0,0,0-.686-1.571,2.329,2.329,0,0,0-1.633-.633h-1.332a2.306,2.306,0,0,0-1.654.633,2.079,2.079,0,0,0-.666,1.571v6.163c0,.055.006.157.021.306a1.935,1.935,0,0,0,.193.592,4.073,4.073,0,0,0,.537.817,4.9,4.9,0,0,0,1.009.9q-.473.408-.86.816a4.177,4.177,0,0,0-.6.714,1.726,1.726,0,0,0-.3.714v6.286a2.078,2.078,0,0,0,.666,1.571,2.309,2.309,0,0,0,1.654.633Z" transform="translate(-171.352 -237.905)" fill="#fff"/>
      <path id="Tracé_5642" data-name="Tracé 5642" d="M354.664,335.457a10.69,10.69,0,0,0-.817.775,5.047,5.047,0,0,0-.623.715,1.623,1.623,0,0,0-.323.715v6.327a5.9,5.9,0,0,1-.538,2.509,6.756,6.756,0,0,1-6.207,3.94h-1.29a7,7,0,0,1-4.833-1.9,6.564,6.564,0,0,1-1.461-2.041,5.9,5.9,0,0,1-.537-2.509v-6.245a1.9,1.9,0,0,0-.3-.735,3.916,3.916,0,0,0-.6-.735q-.385-.407-.858-.816a5.025,5.025,0,0,0,1.052-.959,4.61,4.61,0,0,0,.538-.837,2.417,2.417,0,0,0,.172-.857v-9.919a1.829,1.829,0,0,0-.215-.857,4.914,4.914,0,0,0-.473-.735,5.676,5.676,0,0,0-.644-.735h7.176a4.3,4.3,0,0,0-.688.735,4.914,4.914,0,0,0-.473.735,1.737,1.737,0,0,0-.214.817v10a2.669,2.669,0,0,0,.043.347,2.435,2.435,0,0,0,.214.633,4.05,4.05,0,0,0,.517.8,3.979,3.979,0,0,0,.988.837,10.8,10.8,0,0,0-.816.775,5.1,5.1,0,0,0-.623.715,1.614,1.614,0,0,0-.322.715v6.327a2.048,2.048,0,0,0,.687,1.571,2.327,2.327,0,0,0,1.633.633h1.29a2.307,2.307,0,0,0,1.654-.633,2.076,2.076,0,0,0,.666-1.571v-6.245a1.9,1.9,0,0,0-.3-.735,3.913,3.913,0,0,0-.6-.735q-.386-.407-.859-.816a5.031,5.031,0,0,0,1.052-.959,4.628,4.628,0,0,0,.536-.837,2.4,2.4,0,0,0,.172-.857v-9.959a1.729,1.729,0,0,0-.215-.756,4.419,4.419,0,0,0-.473-.755,8.892,8.892,0,0,0-.644-.776h7.175a3.7,3.7,0,0,0-.688.776,5.232,5.232,0,0,0-.472.837,2.283,2.283,0,0,0-.215.96v9.715a3.054,3.054,0,0,0,.042.347,2.523,2.523,0,0,0,.215.633,3.827,3.827,0,0,0,1.5,1.633" transform="translate(-180.228 -238.056)" fill="#fff"/>
      <path id="Tracé_5643" data-name="Tracé 5643" d="M377.667,345.931a7.938,7.938,0,0,0,.989-.552,7.493,7.493,0,0,0,.9-.734l-1.2,5.714H364.993q.343-.49.645-.98a8.749,8.749,0,0,0,.472-.959,2.574,2.574,0,0,0,.216-1v-9.755a1.772,1.772,0,0,0-.3-.714,4.152,4.152,0,0,0-.6-.715q-.386-.407-.859-.816a4.712,4.712,0,0,0,.988-.878,4.08,4.08,0,0,0,.515-.8,2.394,2.394,0,0,0,.259-.938V322.97a2,2,0,0,0-.216-.857,5.784,5.784,0,0,0-.472-.816,9.878,9.878,0,0,0-.645-.857H378.27l1.2,5.714q-.515-.407-.988-.735a10.936,10.936,0,0,0-.988-.53,3.778,3.778,0,0,0-1.117-.327h-5.714V333.7h4.211a2.275,2.275,0,0,0,.9-.183,4.141,4.141,0,0,0,.774-.428,5.448,5.448,0,0,0,.731-.653v6.653a4.127,4.127,0,0,0-.6-.612,3.467,3.467,0,0,0-.752-.449,2.537,2.537,0,0,0-1.053-.2h-4.211v8.408h5.844a3.169,3.169,0,0,0,1.159-.306" transform="translate(-189.183 -238.018)" fill="#fff"/>
      <path id="Tracé_5644" data-name="Tracé 5644" d="M397.518,350.378a1.588,1.588,0,0,0,.279-.2,2.194,2.194,0,0,0,.388-.45,2.539,2.539,0,0,0,.321-.755,2.436,2.436,0,0,0,0-1.122l-2.449-7.307h-2.32v7.307a1.942,1.942,0,0,0,.194.8,6.838,6.838,0,0,0,.45.837,9.624,9.624,0,0,0,.687.9h-7a9.792,9.792,0,0,0,.645-.857,8.474,8.474,0,0,0,.472-.755,1.45,1.45,0,0,0,.216-.674V337.683a1.76,1.76,0,0,0-.3-.714,4.157,4.157,0,0,0-.6-.714,11.73,11.73,0,0,0-.859-.817,4.694,4.694,0,0,0,.988-.878,4.076,4.076,0,0,0,.516-.8,2.628,2.628,0,0,0,.215-.612,2.535,2.535,0,0,0,.044-.327v-9.592a2.206,2.206,0,0,0-.216-.919,7.468,7.468,0,0,0-.472-.878q-.3-.449-.645-.939H396.7a6.811,6.811,0,0,1,2.642.511,6.989,6.989,0,0,1,2.148,1.388,6.615,6.615,0,0,1,1.461,2.041,5.921,5.921,0,0,1,.536,2.51v7.183a5.98,5.98,0,0,1-.881,3.164,6.627,6.627,0,0,1-2.342,2.306q.817,2.286,1.461,4.123l1.461,4.163a3.577,3.577,0,0,0,.581,1.021,7.843,7.843,0,0,0,.709.775,6.334,6.334,0,0,0,.858.694Zm-.816-14.041a2.274,2.274,0,0,0,1.654-.653,2.1,2.1,0,0,0,.666-1.552v-7.183a2.087,2.087,0,0,0-.666-1.572,2.311,2.311,0,0,0-1.654-.632h-2.965v11.592Z" transform="translate(-196.486 -238.037)" fill="#fff"/>
      <path id="Tracé_5645" data-name="Tracé 5645" d="M420.588,348.686a4.139,4.139,0,0,0,.451.857,3.7,3.7,0,0,0,.687.776h-7.132a6.4,6.4,0,0,0,.645-.817,5.614,5.614,0,0,0,.472-.816,2.247,2.247,0,0,0,.215-.98V337.665a1.754,1.754,0,0,0-.3-.714,4.175,4.175,0,0,0-.6-.714,11.721,11.721,0,0,0-.859-.817,4.883,4.883,0,0,0,1.01-.9,4.076,4.076,0,0,0,.536-.817,1.912,1.912,0,0,0,.193-.612c.014-.164.022-.259.022-.286v-9.837a2.074,2.074,0,0,0-.215-.9,5.66,5.66,0,0,0-.472-.817,6.5,6.5,0,0,0-.645-.816h7.132a3.278,3.278,0,0,0-.687.694,3.472,3.472,0,0,0-.451.776,2.446,2.446,0,0,0-.193.979v9.918c0,.055.007.157.021.306a1.923,1.923,0,0,0,.193.592,4.047,4.047,0,0,0,.536.817,4.87,4.87,0,0,0,1.011.9q-.474.409-.86.817a4.138,4.138,0,0,0-.6.714,1.735,1.735,0,0,0-.3.714v9.96a2.859,2.859,0,0,0,.193,1.061" transform="translate(-204.884 -238.018)" fill="#fff"/>
      <path id="Tracé_5646" data-name="Tracé 5646" d="M438.223,350.318a6.513,6.513,0,0,0,.73-.9,4.811,4.811,0,0,0,.452-.938,2.211,2.211,0,0,0,.107-1.1q-.086-.571-.172-1.163t-.172-1.041q-.087-.53-.172-1.061h-5.715l-.472,3.347a1.874,1.874,0,0,0,.107,1,5.213,5.213,0,0,0,.45.918,7.277,7.277,0,0,0,.688.939h-7a4.556,4.556,0,0,0,.6-.694c.144-.218.279-.442.408-.674a2.888,2.888,0,0,0,.28-.674l1.418-9.755a1.842,1.842,0,0,0-.172-1.1,8.409,8.409,0,0,0-.558-.98q-.388-.49-.816-.979a6.18,6.18,0,0,0,1.4-.9,3.307,3.307,0,0,0,.709-.858,2.218,2.218,0,0,0,.3-.9q.6-4.2,1.01-6.817t.493-2.816a1.5,1.5,0,0,0-.128-.919,7.523,7.523,0,0,0-.473-.878q-.3-.448-.688-.938h10.655a9.275,9.275,0,0,0-.73.938,5.827,5.827,0,0,0-.451.878,1.37,1.37,0,0,0-.107.837l1.5,9.756a4.862,4.862,0,0,0,.15.53,2.7,2.7,0,0,0,.365.694,3.558,3.558,0,0,0,.688.714,4.516,4.516,0,0,0,1.117.633,7.759,7.759,0,0,0-.816.9,5,5,0,0,0-.538.938,2.056,2.056,0,0,0-.15,1.143q.258,1.592.494,3.246t.43,3.041q.193,1.388.322,2.307t.172,1.041a3.294,3.294,0,0,0,.3.776c.144.272.286.517.43.734a5.22,5.22,0,0,0,.6.776Zm.172-10.327-2.235-14.98-2.234,14.98Z" transform="translate(-208.964 -238.018)" fill="#fff"/>
      <path id="Tracé_5647" data-name="Tracé 5647" d="M265.263,290.355h6.467a24.511,24.511,0,0,1,2.963-5.2s-7.674-2.749-9.43,5.2" transform="translate(-157.749 -226.705)" fill="#ec6527"/>
      <path id="Tracé_5648" data-name="Tracé 5648" d="M255.862,289.521a9.859,9.859,0,0,1,4.155,1.175,9.262,9.262,0,0,1-8.393-.336,9.869,9.869,0,0,1,4.237-.839" transform="translate(-153.432 -228.229)" fill="#fff"/>
      <path id="Tracé_5649" data-name="Tracé 5649" d="M258.927,282.1a9.8,9.8,0,0,1,3.267,2.809,9.225,9.225,0,0,1-7.464-3.828,9.871,9.871,0,0,1,4.2,1.019" transform="translate(-154.414 -225.558)" fill="#fff"/>
      <path id="Tracé_5650" data-name="Tracé 5650" d="M265.778,276.2a9.708,9.708,0,0,1,1.244,4.11,9.136,9.136,0,0,1-4.238-7.2,9.786,9.786,0,0,1,2.994,3.093" transform="translate(-156.964 -223.034)" fill="#fff"/>
      <path id="Tracé_5651" data-name="Tracé 5651" d="M274.346,274.458a9.7,9.7,0,0,1-1.183,4.127,9.09,9.09,0,0,1,.339-8.336,9.694,9.694,0,0,1,.844,4.209" transform="translate(-159.981 -222.13)" fill="#fff"/>
      <path id="Tracé_5652" data-name="Tracé 5652" d="M281.539,276.212a9.758,9.758,0,0,1-2.548,3.466,9.114,9.114,0,0,1,3.223-7.7,9.683,9.683,0,0,1-.675,4.239" transform="translate(-162.087 -222.676)" fill="#fff"/>
      <path id="Tracé_5653" data-name="Tracé 5653" d="M380.863,290.355H374.4a24.523,24.523,0,0,0-2.962-5.2s7.673-2.749,9.429,5.2" transform="translate(-191.358 -226.705)" fill="#ec6527"/>
      <path id="Tracé_5654" data-name="Tracé 5654" d="M390.743,289.521a9.863,9.863,0,0,0-4.155,1.175,9.264,9.264,0,0,0,8.393-.336,9.871,9.871,0,0,0-4.238-.839" transform="translate(-196.155 -228.229)" fill="#fff"/>
      <path id="Tracé_5655" data-name="Tracé 5655" d="M388.109,282.1a9.79,9.79,0,0,0-3.266,2.809,9.225,9.225,0,0,0,7.463-3.828,9.871,9.871,0,0,0-4.2,1.019" transform="translate(-195.602 -225.558)" fill="#fff"/>
      <path id="Tracé_5656" data-name="Tracé 5656" d="M382.752,276.2a9.7,9.7,0,0,0-1.243,4.11,9.132,9.132,0,0,0,4.237-7.2,9.794,9.794,0,0,0-2.994,3.093" transform="translate(-194.547 -223.034)" fill="#fff"/>
      <path id="Tracé_5657" data-name="Tracé 5657" d="M375.2,274.458a9.707,9.707,0,0,0,1.182,4.127,9.087,9.087,0,0,0-.338-8.336,9.694,9.694,0,0,0-.844,4.209" transform="translate(-192.548 -222.13)" fill="#fff"/>
      <path id="Tracé_5658" data-name="Tracé 5658" d="M367.44,276.212a9.758,9.758,0,0,0,2.548,3.466,9.113,9.113,0,0,0-3.223-7.7,9.7,9.7,0,0,0,.675,4.239" transform="translate(-189.872 -222.676)" fill="#fff"/>
      <path id="Tracé_5659" data-name="Tracé 5659" d="M267.944,409.12l-.821-14.522H252.6v-.749h15.229l.86,15.229Z" transform="translate(-153.741 -261.256)" fill="#f8e813"/>
      <rect id="Rectangle_55" data-name="Rectangle 55" width="17.612" height="0.749" transform="translate(101.018 145.156) rotate(-45)" fill="#f8e813"/>
      <path id="Tracé_5660" data-name="Tracé 5660" d="M267.066,404.134l-.712-.232,2.807-8.663a.152.152,0,0,0-.038-.161.156.156,0,0,0-.161-.038l-8.664,2.808-.231-.713,8.663-2.808a.908.908,0,0,1,1.143,1.144Z" transform="translate(-156.104 -261.393)" fill="#f8e813"/>
      <path id="Tracé_5661" data-name="Tracé 5661" d="M279.089,403.051a33.981,33.981,0,0,1-5.236-8.916l.7-.259a33.883,33.883,0,0,0,5.107,8.693Z" transform="translate(-160.468 -261.265)" fill="#f8e813"/>
      <path id="Tracé_5662" data-name="Tracé 5662" d="M376.308,409.12l-.748-.042.86-15.229h15.229v.749h-14.52Z" transform="translate(-192.664 -261.256)" fill="#f8e813"/>
      <rect id="Rectangle_56" data-name="Rectangle 56" width="0.749" height="17.612" transform="matrix(0.707, -0.707, 0.707, 0.707, 183.845, 133.232)" fill="#f8e813"/>
      <path id="Tracé_5663" data-name="Tracé 5663" d="M380.074,404.134l-2.808-8.663a.908.908,0,0,1,1.143-1.144l8.664,2.808-.231.713-8.665-2.808a.158.158,0,0,0-.2.2l2.808,8.664Z" transform="translate(-193.189 -261.393)" fill="#f8e813"/>
      <path id="Tracé_5664" data-name="Tracé 5664" d="M369.922,403.051l-.573-.482a33.883,33.883,0,0,0,5.107-8.693l.7.259a33.995,33.995,0,0,1-5.237,8.916" transform="translate(-190.697 -261.265)" fill="#f8e813"/>
    </g>
  </g>
</svg>
