<svg xmlns="http://www.w3.org/2000/svg" width="538.844" height="251.571" viewBox="0 0 538.844 251.571">
  <g id="Groupe_40" data-name="Groupe 40" transform="translate(917.457 -1554.959)">
    <path id="Tracé_5594" data-name="Tracé 5594" d="M-571.031,1607.285a83.841,83.841,0,0,0-109.22-46.147,83.844,83.844,0,0,0-46.147,46.147Z" fill="#fff"/>
    <path id="Tracé_5595" data-name="Tracé 5595" d="M-725.716,1754.2A83.841,83.841,0,0,0-616.5,1800.35a83.842,83.842,0,0,0,46.147-46.146Z" fill="#fff"/>
    <path id="Tracé_5596" data-name="Tracé 5596" d="M-606.682,1608.663a49.037,49.037,0,0,0-42.033-23.989,48.451,48.451,0,0,0-41.864,23.754l-3.763-2.253a53.153,53.153,0,0,1,72.886-18.389,53.149,53.149,0,0,1,18.556,18.671Z" fill="#f8e813"/>
    <path id="Tracé_5597" data-name="Tracé 5597" d="M-702.733,1587.228l.894.748-3.072,3.664,2.822,2.38,2.493-2.972.894.748-2.493,2.972,3.8,3.18-.941,1.1-8.424-7.056Z" fill="#233f93"/>
    <path id="Tracé_5598" data-name="Tracé 5598" d="M-687.944,1588.446l-4.925-1.674-1.308,1.138,2.949,3.392-1.082.941-7.215-8.293,2.676-2.329a4.718,4.718,0,0,1,1.882-1.063,2.967,2.967,0,0,1,1.726.024,3.2,3.2,0,0,1,1.411.969,3.234,3.234,0,0,1,.823,1.942,3.209,3.209,0,0,1-.724,2.16l5.1,1.665Zm-6.99-1.411,1.594-1.387a2.393,2.393,0,0,0,.941-1.586,2.056,2.056,0,0,0-.569-1.542,1.965,1.965,0,0,0-1.411-.767,2.508,2.508,0,0,0-1.679.748l-1.6,1.387Z" fill="#233f93"/>
    <path id="Tracé_5599" data-name="Tracé 5599" d="M-682.554,1583.78a5.239,5.239,0,0,1-2.728-.738,6.078,6.078,0,0,1-2.893-5.015,5.253,5.253,0,0,1,.725-2.732,5.818,5.818,0,0,1,4.849-2.823,5.2,5.2,0,0,1,2.719.734,5.735,5.735,0,0,1,2.079,2.15,5.789,5.789,0,0,1,.823,2.874,5.214,5.214,0,0,1-.724,2.718,5.814,5.814,0,0,1-4.85,2.823m3.683-3.354a3.765,3.765,0,0,0,.471-2.051,5.3,5.3,0,0,0-2.31-3.993,3.794,3.794,0,0,0-2.009-.6,4.306,4.306,0,0,0-3.607,2.084,3.788,3.788,0,0,0-.471,2.037,5.287,5.287,0,0,0,2.3,3.993,3.771,3.771,0,0,0,2.023.6,4.28,4.28,0,0,0,3.593-2.075" fill="#233f93"/>
    <path id="Tracé_5600" data-name="Tracé 5600" d="M-664.957,1565.276l3.213,10.433-1.369.423-2.394-7.78-1.073,8.848-.964.3-5.884-6.722,2.4,7.795-1.373.423-3.213-10.433,1.477-.47,6.515,7.431,1.2-9.812Z" fill="#233f93"/>
    <path id="Tracé_5601" data-name="Tracé 5601" d="M-641.5,1563.813l-.235,10.912-1.435-.033.174-8.132-3.8,8.057h-1.011l-3.467-8.231-.178,8.151-1.435-.028.235-10.913,1.548.033,3.843,9.107,4.233-8.938Z" fill="#233f93"/>
    <path id="Tracé_5602" data-name="Tracé 5602" d="M-634.777,1566.089l-.772,3.594,3.914.842-.245,1.157-3.918-.842-.8,3.7,4.379.941-.249,1.157-5.781-1.247,2.319-10.762,5.781,1.242-.25,1.157Z" fill="#233f93"/>
    <path id="Tracé_5603" data-name="Tracé 5603" d="M-623.117,1574.081l1.134,6.341-1.515-.593-.884-4.958-3.9,3.077-1.482-.584,5.132-3.88-1.129-6.36,1.5.588.894,4.977,3.923-3.086,1.495.588Z" fill="#233f93"/>
    <rect id="Rectangle_54" data-name="Rectangle 54" width="10.993" height="1.435" transform="translate(-619.231 1581.964) rotate(-61.123)" fill="#233f93"/>
    <path id="Tracé_5604" data-name="Tracé 5604" d="M-609.527,1577.8a5.259,5.259,0,0,1,2.794-.4,5.467,5.467,0,0,1,2.653,1.11,5.655,5.655,0,0,1,1.971,2.592,4.982,4.982,0,0,1,.065,3.142l-1.368-1.039a3.466,3.466,0,0,0-.118-2.018,3.818,3.818,0,0,0-1.312-1.675,4.022,4.022,0,0,0-1.966-.828,3.766,3.766,0,0,0-2.065.339,5.366,5.366,0,0,0-2.79,3.664,3.768,3.768,0,0,0,.217,2.079,4.007,4.007,0,0,0,1.317,1.68,3.857,3.857,0,0,0,1.956.827,3.4,3.4,0,0,0,1.971-.414l1.369,1.045a4.944,4.944,0,0,1-3.034.752,5.687,5.687,0,0,1-3.015-1.218,5.541,5.541,0,0,1-1.778-2.258,5.238,5.238,0,0,1-.362-2.785,6.113,6.113,0,0,1,3.5-4.595" fill="#233f93"/>
    <path id="Tracé_5605" data-name="Tracé 5605" d="M-602.632,1593.907a5.248,5.248,0,0,1,.221-2.822,6.079,6.079,0,0,1,4.4-3.763,5.247,5.247,0,0,1,2.822.212,5.814,5.814,0,0,1,3.645,4.233,5.242,5.242,0,0,1-.226,2.823,6.176,6.176,0,0,1-4.407,3.763,5.209,5.209,0,0,1-2.822-.212,5.818,5.818,0,0,1-3.641-4.234m3.97,3a3.761,3.761,0,0,0,2.107.109,5.3,5.3,0,0,0,3.505-3,3.794,3.794,0,0,0,.216-2.089,4.312,4.312,0,0,0-2.709-3.161,3.827,3.827,0,0,0-2.094-.108,5.309,5.309,0,0,0-3.5,3,3.79,3.79,0,0,0-.216,2.1,4.281,4.281,0,0,0,2.7,3.152" fill="#233f93"/>
    <path id="Tracé_5606" data-name="Tracé 5606" d="M-620.21,1607.784a34.751,34.751,0,0,0-48.385-8.616,34.743,34.743,0,0,0-8.615,8.616l-1.44-1a36.506,36.506,0,0,1,50.829-9.046,36.5,36.5,0,0,1,9.046,9.046Z" fill="#233f93"/>
    <path id="Tracé_5607" data-name="Tracé 5607" d="M-647.8,1781.471h-.678a53.433,53.433,0,0,1-45.462-26.755l3.8-2.178a48.8,48.8,0,0,0,66.591,18.109,48.8,48.8,0,0,0,17.466-17.017l3.763,2.276a53.451,53.451,0,0,1-45.463,25.575" fill="#f8e813"/>
    <path id="Tracé_5608" data-name="Tracé 5608" d="M-693.321,1767.873l-.889.757-1.938-2.286-7.5,6.355-.94-1.091,7.5-6.355-1.947-2.3.889-.758Z" fill="#233f93"/>
    <path id="Tracé_5609" data-name="Tracé 5609" d="M-696.51,1779.2a5.249,5.249,0,0,1-.235-2.822,6.071,6.071,0,0,1,3.725-4.431,5.266,5.266,0,0,1,2.823-.249,5.839,5.839,0,0,1,4.285,3.6,5.221,5.221,0,0,1,.235,2.822,6.178,6.178,0,0,1-3.735,4.441,5.232,5.232,0,0,1-2.822.249,5.837,5.837,0,0,1-4.285-3.608m4.412,2.319a3.758,3.758,0,0,0,2.1-.235,5.311,5.311,0,0,0,2.968-3.533,3.824,3.824,0,0,0-.123-2.093,4.326,4.326,0,0,0-3.184-2.681,3.839,3.839,0,0,0-2.084.235,5.3,5.3,0,0,0-2.968,3.533,3.764,3.764,0,0,0,.127,2.1,4.285,4.285,0,0,0,3.175,2.672" fill="#233f93"/>
    <path id="Tracé_5610" data-name="Tracé 5610" d="M-672.775,1788.847a2.834,2.834,0,0,1,.311,1.214,2.821,2.821,0,0,1-1.261,2.45,2.925,2.925,0,0,1-1.566.471,4.466,4.466,0,0,1-1.882-.442l-3.73-1.7,4.563-10.005,3.589,1.637a4.484,4.484,0,0,1,1.585,1.128,2.733,2.733,0,0,1,.659,1.412,2.626,2.626,0,0,1-.231,1.453,2.45,2.45,0,0,1-1.148,1.251,2.958,2.958,0,0,1-1.655.259,2.347,2.347,0,0,1,.8.9m-2.315,2.775a1.724,1.724,0,0,0,1.129-1.03,1.788,1.788,0,0,0,.024-1.576,2.545,2.545,0,0,0-1.317-1.18l-2.267-1.035-1.609,3.532,2.309,1.049a2.5,2.5,0,0,0,1.731.235m-1.937-5.893,2.2,1a2.36,2.36,0,0,0,1.618.216,1.83,1.83,0,0,0,1.1-2.341l-.016-.044a2.382,2.382,0,0,0-1.256-1.091l-2.164-.988Z" fill="#233f93"/>
    <path id="Tracé_5611" data-name="Tracé 5611" d="M-667,1795.625a5.249,5.249,0,0,1-1.477-2.413,6.078,6.078,0,0,1,1.341-5.645,5.263,5.263,0,0,1,2.4-1.486,5.813,5.813,0,0,1,5.447,1.3,5.225,5.225,0,0,1,1.468,2.4,6.181,6.181,0,0,1-1.346,5.644,5.217,5.217,0,0,1-2.4,1.477,5.828,5.828,0,0,1-5.447-1.3m4.982.094a3.809,3.809,0,0,0,1.768-1.152,5.3,5.3,0,0,0,1.068-4.488,3.777,3.777,0,0,0-1.054-1.815,4.3,4.3,0,0,0-4.049-.941,3.8,3.8,0,0,0-1.76,1.148,5.306,5.306,0,0,0-1.067,4.487,3.755,3.755,0,0,0,1.058,1.825,4.27,4.27,0,0,0,4.036.941" fill="#233f93"/>
    <path id="Tracé_5612" data-name="Tracé 5612" d="M-648.385,1798.866l-2.442-4.6-1.731-.07-.174,4.492-1.434-.057.432-10.988,3.542.141a4.728,4.728,0,0,1,2.089.509,2.943,2.943,0,0,1,1.237,1.2,3.193,3.193,0,0,1,.362,1.674,3.257,3.257,0,0,1-.734,1.976,3.209,3.209,0,0,1-2.008,1.073l2.577,4.7Zm-4.13-5.814,2.112.08a2.386,2.386,0,0,0,1.768-.5,2.065,2.065,0,0,0,.645-1.515,1.976,1.976,0,0,0-.518-1.533,2.49,2.49,0,0,0-1.735-.6l-2.108-.085Z" fill="#233f93"/>
    <path id="Tracé_5613" data-name="Tracé 5613" d="M-636.725,1787.539a4.744,4.744,0,0,1,2.277,1.6,6.46,6.46,0,0,1,.842,5.8,4.633,4.633,0,0,1-1.726,2.164,6.917,6.917,0,0,1-2.992,1.1l-3.387.47-1.585-10.88,3.387-.47a6.849,6.849,0,0,1,3.179.216m1.289,7.912a4.289,4.289,0,0,0,.654-3.293,3.97,3.97,0,0,0-4.13-3.8,4.026,4.026,0,0,0-.818.12l-1.966.287,1.246,8.557,1.966-.287a4.377,4.377,0,0,0,3.053-1.586" fill="#233f93"/>
    <path id="Tracé_5614" data-name="Tracé 5614" d="M-629.683,1786.316l1.152,3.49,3.806-1.255.367,1.124-3.806,1.256,1.186,3.593,4.233-1.411.372,1.125-5.617,1.848-3.448-10.456,5.617-1.854.371,1.125Z" fill="#233f93"/>
    <path id="Tracé_5615" data-name="Tracé 5615" d="M-613.154,1787.2l-4.233,2.234.357,2.578-1.341.706-1.58-11.525,1.468-.776,8.593,7.827-1.34.706Zm-.908-.842-4.346-3.984.828,5.838Z" fill="#233f93"/>
    <path id="Tracé_5616" data-name="Tracé 5616" d="M-611.752,1776.17l4.285,5.48a2.946,2.946,0,0,0,1.9,1.27,3.142,3.142,0,0,0,3.133-2.446,2.947,2.947,0,0,0-.776-2.159l-4.286-5.48,1.129-.884,4.276,5.466a4.5,4.5,0,0,1,.988,2.159,3.486,3.486,0,0,1-.311,2.018,5.061,5.061,0,0,1-3.316,2.591,3.407,3.407,0,0,1-2.027-.183,4.54,4.54,0,0,1-1.854-1.486l-4.275-5.466Z" fill="#233f93"/>
    <path id="Tracé_5617" data-name="Tracé 5617" d="M-596.822,1770.022l6.326,1.209-1.1,1.2-4.943-.941,1.476,4.746-1.072,1.176-1.787-6.181-6.341-1.218,1.082-1.186,4.962.941-1.481-4.774,1.081-1.19Z" fill="#233f93"/>
    <path id="Tracé_5618" data-name="Tracé 5618" d="M-647.854,1770.582h-.47a36.575,36.575,0,0,1-29.634-15.885l1.444-.992a34.808,34.808,0,0,0,28.223,15.123h.47a34.709,34.709,0,0,0,28.693-15.128l1.444.993a36.467,36.467,0,0,1-30.1,15.889" fill="#233f93"/>
    <path id="Tracé_5619" data-name="Tracé 5619" d="M-421.879,1756.386h-451.88V1716.4l-28.02-35.683,28.02-35.683v-39.982h451.9v40.48l27.611,35.166-27.611,35.161ZM-869.393,1752h443.135v-37.63l26.421-33.651-26.421-33.651v-37.631H-869.4v37.1L-896.21,1680.7l26.812,34.168Z" fill="#ec6527"/>
    <path id="Tracé_5620" data-name="Tracé 5620" d="M-411.022,1741.992H-884.61v-16.966l-32.847-44.286,32.847-45.439v-15.828h473.588v16.261l32.409,45.01-32.409,43.859Zm-471.838-1.754h470.083v-16.214l.169-.235,31.822-43.063-31.986-44.433v-15.052H-882.865v14.638l-32.428,44.86,32.428,43.722Z" fill="#ec6527"/>
    <path id="Tracé_5621" data-name="Tracé 5621" d="M-856.133,1631.938a4.917,4.917,0,0,1-4.921,4.911,4.916,4.916,0,0,1-4.91-4.921,4.914,4.914,0,0,1,4.91-4.91,4.92,4.92,0,0,1,4.921,4.92" fill="#ec6527"/>
    <path id="Tracé_5622" data-name="Tracé 5622" d="M-860.419,1639.666a.672.672,0,0,0-.872-.379.679.679,0,0,0-.379.379,59.892,59.892,0,0,0-3.763,12.343,4.408,4.408,0,0,0,3.881,4.877,4.408,4.408,0,0,0,4.878-3.881,4.484,4.484,0,0,0,0-1,56.188,56.188,0,0,0-3.763-12.343" fill="#f8e813"/>
    <path id="Tracé_5623" data-name="Tracé 5623" d="M-853.706,1631.058a.673.673,0,0,0-.379.873.674.674,0,0,0,.379.378,59.746,59.746,0,0,0,12.342,3.763,4.408,4.408,0,0,0,4.9-3.858,4.408,4.408,0,0,0-3.859-4.9,4.491,4.491,0,0,0-1.037,0,56.181,56.181,0,0,0-12.342,3.763" fill="#f8e813"/>
    <path id="Tracé_5624" data-name="Tracé 5624" d="M-855.729,1636.129a.672.672,0,0,0-.886.347.673.673,0,0,0,0,.542,59.74,59.74,0,0,0,6.072,11.383,4.408,4.408,0,0,0,6.191.73,4.407,4.407,0,0,0,.729-6.19,4.378,4.378,0,0,0-.729-.73,56.21,56.21,0,0,0-11.379-6.078" fill="#f8e813"/>
    <path id="Tracé_5625" data-name="Tracé 5625" d="M-861.246,1723.568a4.914,4.914,0,0,1,4.91,4.92,4.915,4.915,0,0,1-4.92,4.911,4.917,4.917,0,0,1-4.911-4.911,4.92,4.92,0,0,1,4.921-4.92" fill="#ec6527"/>
    <path id="Tracé_5626" data-name="Tracé 5626" d="M-853.509,1727.853a.672.672,0,0,0-.378.873.669.669,0,0,0,.378.378,59.721,59.721,0,0,0,12.338,3.763,4.408,4.408,0,0,0,4.9-3.858,4.408,4.408,0,0,0-3.859-4.9,4.386,4.386,0,0,0-1.037,0,56.233,56.233,0,0,0-12.342,3.763" fill="#f8e813"/>
    <path id="Tracé_5627" data-name="Tracé 5627" d="M-862.112,1721.141a.672.672,0,0,0,.873.378.669.669,0,0,0,.378-.378A59.71,59.71,0,0,0-857.1,1708.8a4.407,4.407,0,0,0-3.881-4.877,4.407,4.407,0,0,0-4.877,3.881,4.369,4.369,0,0,0,0,1,56.188,56.188,0,0,0,3.763,12.343" fill="#f8e813"/>
    <path id="Tracé_5628" data-name="Tracé 5628" d="M-857.065,1723.163a.673.673,0,0,0,.347.886.672.672,0,0,0,.542,0,59.707,59.707,0,0,0,11.383-6.072,4.407,4.407,0,0,0,.73-6.19,4.407,4.407,0,0,0-6.19-.73,4.422,4.422,0,0,0-.73.73,56.079,56.079,0,0,0-6.077,11.378" fill="#f8e813"/>
    <path id="Tracé_5629" data-name="Tracé 5629" d="M-439.772,1631.938a4.917,4.917,0,0,0,4.92,4.911,4.917,4.917,0,0,0,4.911-4.921,4.915,4.915,0,0,0-4.916-4.91,4.919,4.919,0,0,0-4.915,4.92" fill="#ec6527"/>
    <path id="Tracé_5630" data-name="Tracé 5630" d="M-435.482,1639.666a.672.672,0,0,1,.873-.378.67.67,0,0,1,.378.378,59.754,59.754,0,0,1,3.763,12.343,4.408,4.408,0,0,1-3.881,4.877,4.407,4.407,0,0,1-4.877-3.881,4.366,4.366,0,0,1,0-1,56.065,56.065,0,0,1,3.763-12.343" fill="#f8e813"/>
    <path id="Tracé_5631" data-name="Tracé 5631" d="M-442.2,1631.058a.673.673,0,0,1,.379.873.674.674,0,0,1-.379.378,59.7,59.7,0,0,1-12.343,3.763,4.407,4.407,0,0,1-4.895-3.858,4.408,4.408,0,0,1,3.859-4.9,4.483,4.483,0,0,1,1.036,0,56.173,56.173,0,0,1,12.343,3.763" fill="#f8e813"/>
    <path id="Tracé_5632" data-name="Tracé 5632" d="M-440.172,1636.129a.672.672,0,0,1,.886.347.673.673,0,0,1,0,.542,59.738,59.738,0,0,1-6.072,11.383,4.408,4.408,0,0,1-6.19.73,4.408,4.408,0,0,1-.73-6.191,4.372,4.372,0,0,1,.73-.729,56.228,56.228,0,0,1,11.378-6.078" fill="#f8e813"/>
    <path id="Tracé_5633" data-name="Tracé 5633" d="M-434.659,1723.568a4.915,4.915,0,0,0-4.911,4.92,4.917,4.917,0,0,0,4.92,4.911,4.916,4.916,0,0,0,4.911-4.911,4.914,4.914,0,0,0-4.911-4.92h-.009" fill="#ec6527"/>
    <path id="Tracé_5634" data-name="Tracé 5634" d="M-442.4,1727.853a.673.673,0,0,1,.379.873.674.674,0,0,1-.379.378,59.683,59.683,0,0,1-12.338,3.763,4.407,4.407,0,0,1-4.9-3.858,4.408,4.408,0,0,1,3.858-4.9,4.385,4.385,0,0,1,1.037,0,56.242,56.242,0,0,1,12.343,3.763" fill="#f8e813"/>
    <path id="Tracé_5635" data-name="Tracé 5635" d="M-433.789,1721.141a.672.672,0,0,1-.873.378.67.67,0,0,1-.378-.378A59.775,59.775,0,0,1-438.8,1708.8a4.407,4.407,0,0,1,3.858-4.9,4.407,4.407,0,0,1,4.9,3.858,4.385,4.385,0,0,1,0,1.037,56.188,56.188,0,0,1-3.763,12.343" fill="#f8e813"/>
    <path id="Tracé_5636" data-name="Tracé 5636" d="M-438.859,1723.163a.674.674,0,0,1-.347.886.672.672,0,0,1-.542,0,59.747,59.747,0,0,1-11.384-6.072,4.407,4.407,0,0,1-.729-6.19,4.407,4.407,0,0,1,6.19-.73,4.378,4.378,0,0,1,.729.73,56.138,56.138,0,0,1,6.078,11.378" fill="#f8e813"/>
    <path id="Tracé_5637" data-name="Tracé 5637" d="M-823.433,1704.447a16.468,16.468,0,0,0,2.611-1.336,18.929,18.929,0,0,0,2.107-1.529,11,11,0,0,0,1.308-1.237l-3.519,14.229h-28.34a24.27,24.27,0,0,0,1.609-2.291,19.751,19.751,0,0,0,1.119-2.229,5.973,5.973,0,0,0,.5-2.352v-22.823a4.127,4.127,0,0,0-.706-1.675,9.784,9.784,0,0,0-1.411-1.669,26.632,26.632,0,0,0-2.009-1.91,11.51,11.51,0,0,0,2.352-2.1,9.538,9.538,0,0,0,1.256-1.91,4.451,4.451,0,0,0,.471-1.411c.033-.381.051-.6.051-.668v-22.747a6.305,6.305,0,0,0-.5-2.578,8.7,8.7,0,0,0-1.1-1.914,9.306,9.306,0,0,0-1.506-1.623h16.784a5.984,5.984,0,0,0-2.414,2.676,7.337,7.337,0,0,0-.8,3.053v23.11a5.828,5.828,0,0,0,.1.766,5.978,5.978,0,0,0,.5,1.411,9.237,9.237,0,0,0,1.2,1.882,11.007,11.007,0,0,0,2.31,2.051q-1.007.94-1.91,1.91a11.687,11.687,0,0,0-1.458,1.669,3.831,3.831,0,0,0-.758,1.675v20.146h9.45a7.215,7.215,0,0,0,2.714-.574" fill="#fff"/>
    <path id="Tracé_5638" data-name="Tracé 5638" d="M-790.064,1714.475a15.452,15.452,0,0,0,1.708-2.1,11.283,11.283,0,0,0,1.058-2.2,5.174,5.174,0,0,0,.249-2.578q-.2-1.335-.4-2.723t-.4-2.437q-.2-1.237-.4-2.484h-13.368l-1.106,7.832a4.354,4.354,0,0,0,.25,2.352,11.961,11.961,0,0,0,1.053,2.15,16.864,16.864,0,0,0,1.609,2.2H-816.2a10.747,10.747,0,0,0,1.411-1.623,18.26,18.26,0,0,0,.941-1.576,6.855,6.855,0,0,0,.654-1.576l3.292-22.822a4.307,4.307,0,0,0-.4-2.578,19.509,19.509,0,0,0-1.3-2.291q-.909-1.148-1.91-2.291a14.454,14.454,0,0,0,3.264-2.1,7.719,7.719,0,0,0,1.661-2.009,5.218,5.218,0,0,0,.7-2.1q1.412-9.836,2.352-15.946t1.153-6.585a3.492,3.492,0,0,0-.3-2.15,17.523,17.523,0,0,0-1.106-2.05q-.7-1.05-1.608-2.2h24.93a21.718,21.718,0,0,0-1.708,2.2,13.582,13.582,0,0,0-1.053,2.05,3.21,3.21,0,0,0-.25,1.957l3.519,22.823a11.4,11.4,0,0,0,.352,1.242,6.344,6.344,0,0,0,.857,1.623,8.317,8.317,0,0,0,1.608,1.669,10.576,10.576,0,0,0,2.611,1.482,18.128,18.128,0,0,0-1.91,2.1,11.84,11.84,0,0,0-1.261,2.2,4.8,4.8,0,0,0-.348,2.672q.6,3.726,1.157,7.592t1.007,7.112q.471,3.246.753,5.4a18.6,18.6,0,0,0,.4,2.436,7.788,7.788,0,0,0,.7,1.816c.339.635.668,1.209,1.007,1.717a12.07,12.07,0,0,0,1.411,1.815Zm.405-24.158-5.226-35.048-5.226,35.048Z" fill="#fff"/>
    <path id="Tracé_5639" data-name="Tracé 5639" d="M-717.188,1659.281a27.239,27.239,0,0,0-2.916-2.578,19.988,19.988,0,0,0-2.761-1.881,5.575,5.575,0,0,0-2.667-.814h-7.338v19.483a5.273,5.273,0,0,0,.1.762,7.238,7.238,0,0,0,.471,1.411,7.161,7.161,0,0,0,1.209,1.882,12.364,12.364,0,0,0,2.352,2.051q-1.109.958-2.014,1.909a9.046,9.046,0,0,0-1.411,1.717,4.389,4.389,0,0,0-.705,1.722v24.46a3.611,3.611,0,0,0,.5,1.768,12.285,12.285,0,0,0,1.1,1.67,8.328,8.328,0,0,0,1.708,1.717h-17a14.017,14.017,0,0,0,1.608-1.816,12.806,12.806,0,0,0,1.106-1.67,3.82,3.82,0,0,0,.5-1.881V1684.94a4.408,4.408,0,0,0-.706-1.721,8.914,8.914,0,0,0-1.411-1.717q-.9-.94-2.013-1.91a11.424,11.424,0,0,0,2.352-2.1,9.485,9.485,0,0,0,1.256-1.909,4.488,4.488,0,0,0,.47-1.411c.033-.381.052-.6.052-.668v-19.484h-6.938a5.594,5.594,0,0,0-2.667.814,15.676,15.676,0,0,0-2.663,1.882,27.535,27.535,0,0,0-2.916,2.577l2.822-14.609h35.683Z" fill="#fff"/>
    <path id="Tracé_5640" data-name="Tracé 5640" d="M-691.058,1714.475a15.372,15.372,0,0,0,1.707-2.1,11.35,11.35,0,0,0,1.054-2.2,5.176,5.176,0,0,0,.254-2.578q-.2-1.335-.4-2.723t-.4-2.437q-.2-1.237-.405-2.484H-702.6l-1.106,7.832a4.373,4.373,0,0,0,.254,2.352,12.031,12.031,0,0,0,1.054,2.15,16.858,16.858,0,0,0,1.609,2.2h-16.393a10.85,10.85,0,0,0,1.411-1.623q.507-.767.941-1.576a6.812,6.812,0,0,0,.654-1.576l3.316-22.822a4.315,4.315,0,0,0-.4-2.578,19.194,19.194,0,0,0-1.308-2.291q-.9-1.148-1.909-2.291a14.5,14.5,0,0,0,3.264-2.1,7.74,7.74,0,0,0,1.661-2.009,5.161,5.161,0,0,0,.7-2.1q1.411-9.836,2.352-15.946t1.153-6.585a3.492,3.492,0,0,0-.3-2.15,17.523,17.523,0,0,0-1.106-2.05q-.7-1.05-1.608-2.2h24.93a21.609,21.609,0,0,0-1.708,2.2,13.678,13.678,0,0,0-1.054,2.05,3.216,3.216,0,0,0-.249,1.957l3.518,22.823a11.423,11.423,0,0,0,.353,1.242,6.359,6.359,0,0,0,.852,1.623,8.4,8.4,0,0,0,1.608,1.669,10.574,10.574,0,0,0,2.611,1.482,18.379,18.379,0,0,0-1.91,2.1,11.816,11.816,0,0,0-1.256,2.2,4.794,4.794,0,0,0-.352,2.672q.606,3.726,1.157,7.592t1.006,7.112q.471,3.246.753,5.4a18.6,18.6,0,0,0,.4,2.436,7.684,7.684,0,0,0,.7,1.816c.334.635.668,1.209,1,1.717a12.2,12.2,0,0,0,1.411,1.815Zm.4-24.158-5.226-35.048-5.225,35.048Z" fill="#fff"/>
    <path id="Tracé_5641" data-name="Tracé 5641" d="M-637.99,1710.562a1.673,1.673,0,0,0,1.359-.24q.758-.429,1.463-.908A15.789,15.789,0,0,0-633.46,1708v15.565a22.477,22.477,0,0,0-1.708-1.811,7.573,7.573,0,0,0-1.881-1.289,7.765,7.765,0,0,0-2.268-.72,12.218,12.218,0,0,1-5.95-1.717,11.841,11.841,0,0,1-3.829-3.819,16.174,16.174,0,0,1-3.73.47h-3a15.978,15.978,0,0,1-6.2-1.195,16.4,16.4,0,0,1-5.042-3.25,15.448,15.448,0,0,1-3.429-4.774,13.783,13.783,0,0,1-1.261-5.871v-14.718a4.052,4.052,0,0,0-.7-1.67,9.667,9.667,0,0,0-1.412-1.67,27.511,27.511,0,0,0-2.013-1.909,11.456,11.456,0,0,0,2.352-2.1,9.469,9.469,0,0,0,1.256-1.91,4.481,4.481,0,0,0,.47-1.411c.033-.381.052-.607.052-.668v-14.417a13.787,13.787,0,0,1,1.261-5.875,15.5,15.5,0,0,1,3.429-4.774,16.414,16.414,0,0,1,5.042-3.246,16.013,16.013,0,0,1,6.2-1.195h3.123a16.031,16.031,0,0,1,6.2,1.195,15.672,15.672,0,0,1,8.363,8.02,13.8,13.8,0,0,1,1.261,5.875v14.323a4.868,4.868,0,0,0,.051.668,5.059,5.059,0,0,0,.4,1.411,7.776,7.776,0,0,0,1.2,1.91,12.661,12.661,0,0,0,2.46,2.2,27.429,27.429,0,0,0-2.008,1.909,10.571,10.571,0,0,0-1.458,1.717,3.152,3.152,0,0,0-.654,1.722V1699.6a14.1,14.1,0,0,1-.908,5.061,14.6,14.6,0,0,1-2.517,4.3,3.615,3.615,0,0,0,2.315,1.623m-14.874-5.824a5.4,5.4,0,0,0,3.872-1.481,4.863,4.863,0,0,0,1.557-3.674v-14.9a5.234,5.234,0,0,0-.8-1.623,11.171,11.171,0,0,0-1.411-1.623,25.533,25.533,0,0,0-1.91-1.811,12.456,12.456,0,0,0,2.352-2.05,8.609,8.609,0,0,0,1.256-1.882,6.013,6.013,0,0,0,.5-1.411,5.739,5.739,0,0,0,.1-.762v-14.417a4.8,4.8,0,0,0-1.6-3.674,5.451,5.451,0,0,0-3.819-1.481h-3.114a5.393,5.393,0,0,0-3.871,1.481,4.86,4.86,0,0,0-1.557,3.674v14.417a4.963,4.963,0,0,0,.047.715,4.546,4.546,0,0,0,.47,1.383,9.536,9.536,0,0,0,1.256,1.91,11.449,11.449,0,0,0,2.352,2.1,24.715,24.715,0,0,0-2.013,1.91,9.708,9.708,0,0,0-1.411,1.67,4.038,4.038,0,0,0-.7,1.67v14.7a4.859,4.859,0,0,0,1.557,3.674,5.4,5.4,0,0,0,3.871,1.482Z" fill="#fff"/>
    <path id="Tracé_5642" data-name="Tracé 5642" d="M-588.026,1679.62a24.92,24.92,0,0,0-1.91,1.811,11.741,11.741,0,0,0-1.458,1.675,3.8,3.8,0,0,0-.753,1.674v14.8a13.776,13.776,0,0,1-1.261,5.87,15.8,15.8,0,0,1-14.52,9.22h-3.02a16.386,16.386,0,0,1-11.289-4.441,15.357,15.357,0,0,1-3.415-4.774,13.777,13.777,0,0,1-1.256-5.87v-14.61a4.44,4.44,0,0,0-.7-1.722,9.194,9.194,0,0,0-1.411-1.717q-.9-.94-2.008-1.91a11.79,11.79,0,0,0,2.46-2.243,10.791,10.791,0,0,0,1.26-1.957,5.64,5.64,0,0,0,.4-2v-23.2a4.264,4.264,0,0,0-.5-2,11.467,11.467,0,0,0-1.106-1.717,13.24,13.24,0,0,0-1.51-1.717h16.788a10.062,10.062,0,0,0-1.608,1.717,11.467,11.467,0,0,0-1.106,1.717,4.058,4.058,0,0,0-.5,1.909v23.4a6.273,6.273,0,0,0,.1.809,5.7,5.7,0,0,0,.5,1.482,9.438,9.438,0,0,0,1.209,1.881,9.318,9.318,0,0,0,2.309,1.957,25.332,25.332,0,0,0-1.909,1.811,11.91,11.91,0,0,0-1.459,1.674,3.771,3.771,0,0,0-.752,1.675v14.8a4.791,4.791,0,0,0,1.609,3.674,5.445,5.445,0,0,0,3.819,1.481h3.015a5.4,5.4,0,0,0,3.871-1.481,4.857,4.857,0,0,0,1.557-3.674v-14.61a4.438,4.438,0,0,0-.7-1.722,9.156,9.156,0,0,0-1.412-1.717q-.9-.941-2.008-1.909a11.762,11.762,0,0,0,2.46-2.244,10.774,10.774,0,0,0,1.256-1.957,5.636,5.636,0,0,0,.405-2v-23.322a4.042,4.042,0,0,0-.5-1.769,10.371,10.371,0,0,0-1.1-1.764,20.883,20.883,0,0,0-1.505-1.815h16.788a8.663,8.663,0,0,0-1.609,1.815,12.229,12.229,0,0,0-1.106,1.957,5.355,5.355,0,0,0-.5,2.244v22.729a7.346,7.346,0,0,0,.1.809,5.913,5.913,0,0,0,.5,1.481,8.938,8.938,0,0,0,3.519,3.82" fill="#fff"/>
    <path id="Tracé_5643" data-name="Tracé 5643" d="M-555.156,1704.212a18.617,18.617,0,0,0,2.314-1.289,17.5,17.5,0,0,0,2.112-1.717l-2.822,13.368h-31.262q.806-1.148,1.51-2.29a20.576,20.576,0,0,0,1.106-2.244,6.027,6.027,0,0,0,.5-2.352v-22.823a4.139,4.139,0,0,0-.706-1.67,9.7,9.7,0,0,0-1.411-1.674q-.9-.94-2.008-1.91a11,11,0,0,0,2.314-2.051,9.516,9.516,0,0,0,1.2-1.881,5.587,5.587,0,0,0,.607-2.2V1650.5a4.674,4.674,0,0,0-.5-2,13.64,13.64,0,0,0-1.1-1.91,23.5,23.5,0,0,0-1.51-2h31.045l2.822,13.369q-1.2-.942-2.314-1.717a25.355,25.355,0,0,0-2.315-1.242,8.824,8.824,0,0,0-2.61-.767H-571.53v21.388h9.85a5.309,5.309,0,0,0,2.112-.428,9.668,9.668,0,0,0,1.811-1,12.769,12.769,0,0,0,1.707-1.528v15.564a9.7,9.7,0,0,0-1.411-1.411,8.131,8.131,0,0,0-1.759-1.049,5.942,5.942,0,0,0-2.465-.47h-9.845v19.671h13.641a7.407,7.407,0,0,0,2.714-.715" fill="#fff"/>
    <path id="Tracé_5644" data-name="Tracé 5644" d="M-525.809,1714.569a3.718,3.718,0,0,0,.654-.47,5.1,5.1,0,0,0,.907-1.054,5.911,5.911,0,0,0,.753-1.768,5.707,5.707,0,0,0,0-2.625l-5.729-17.094h-5.428v17.089a4.542,4.542,0,0,0,.47,1.882,16.171,16.171,0,0,0,1.054,1.957,22.565,22.565,0,0,0,1.609,2.1H-547.9a22.766,22.766,0,0,0,1.51-2,19.8,19.8,0,0,0,1.1-1.768,3.393,3.393,0,0,0,.5-1.576v-24.352a4.123,4.123,0,0,0-.7-1.67,9.667,9.667,0,0,0-1.411-1.669,27.044,27.044,0,0,0-2.009-1.91,10.982,10.982,0,0,0,2.315-2.051,9.509,9.509,0,0,0,1.208-1.882,6.15,6.15,0,0,0,.5-1.411,5.923,5.923,0,0,0,.1-.762v-22.441a5.178,5.178,0,0,0-.5-2.15,17.431,17.431,0,0,0-1.1-2.051q-.707-1.048-1.51-2.2h20.226a15.939,15.939,0,0,1,6.181,1.2,16.344,16.344,0,0,1,5.023,3.246,15.46,15.46,0,0,1,3.42,4.774,13.859,13.859,0,0,1,1.256,5.875v16.8a13.992,13.992,0,0,1-2.06,7.4,15.536,15.536,0,0,1-5.527,5.372q1.91,5.347,3.419,9.642l3.415,9.737a8.379,8.379,0,0,0,1.36,2.39,18.358,18.358,0,0,0,1.66,1.811,14.85,14.85,0,0,0,2.009,1.623Zm-1.91-32.851a5.322,5.322,0,0,0,3.871-1.529,4.922,4.922,0,0,0,1.557-3.631v-16.8a4.882,4.882,0,0,0-1.557-3.678,5.4,5.4,0,0,0-3.871-1.477h-6.938v27.117Z" fill="#fff"/>
    <path id="Tracé_5645" data-name="Tracé 5645" d="M-491.481,1710.656a9.728,9.728,0,0,0,1.054,2,8.638,8.638,0,0,0,1.609,1.815H-505.5a14.788,14.788,0,0,0,1.51-1.91,13.136,13.136,0,0,0,1.106-1.909,5.258,5.258,0,0,0,.5-2.291v-23.491a4.106,4.106,0,0,0-.706-1.67,9.745,9.745,0,0,0-1.411-1.67,27.7,27.7,0,0,0-2.008-1.914,11.426,11.426,0,0,0,2.352-2.1,9.531,9.531,0,0,0,1.255-1.91,4.466,4.466,0,0,0,.471-1.411c.033-.386.052-.607.052-.668V1650.5a4.858,4.858,0,0,0-.5-2.1,13.2,13.2,0,0,0-1.105-1.91,15.091,15.091,0,0,0-1.51-1.909h16.684a7.655,7.655,0,0,0-1.608,1.622,8.115,8.115,0,0,0-1.054,1.816,5.712,5.712,0,0,0-.47,2.291v23.2a4.61,4.61,0,0,0,.051.715,4.476,4.476,0,0,0,.471,1.383,9.376,9.376,0,0,0,1.256,1.909,11.4,11.4,0,0,0,2.351,2.1,27.445,27.445,0,0,0-2.013,1.915,9.671,9.671,0,0,0-1.411,1.67,4.053,4.053,0,0,0-.705,1.67v23.3a6.681,6.681,0,0,0,.47,2.484" fill="#fff"/>
    <path id="Tracé_5646" data-name="Tracé 5646" d="M-459.768,1714.475a15.183,15.183,0,0,0,1.708-2.1,11.281,11.281,0,0,0,1.058-2.2,5.174,5.174,0,0,0,.249-2.578q-.2-1.335-.4-2.723t-.4-2.437q-.2-1.237-.4-2.484H-471.33l-1.105,7.832a4.383,4.383,0,0,0,.249,2.352,12.167,12.167,0,0,0,1.054,2.15,16.858,16.858,0,0,0,1.609,2.2h-16.384a10.687,10.687,0,0,0,1.411-1.623,18.268,18.268,0,0,0,.941-1.576,6.727,6.727,0,0,0,.654-1.576l3.316-22.822a4.307,4.307,0,0,0-.4-2.578,19.929,19.929,0,0,0-1.308-2.291q-.908-1.148-1.91-2.291a14.454,14.454,0,0,0,3.264-2.1,7.718,7.718,0,0,0,1.661-2.009,5.176,5.176,0,0,0,.7-2.1q1.411-9.836,2.352-15.946t1.152-6.585a3.514,3.514,0,0,0-.3-2.15,17.667,17.667,0,0,0-1.105-2.05q-.7-1.05-1.609-2.2h24.93a21.613,21.613,0,0,0-1.708,2.2,13.669,13.669,0,0,0-1.053,2.05,3.2,3.2,0,0,0-.249,1.957l3.518,22.823a11.409,11.409,0,0,0,.353,1.242,6.339,6.339,0,0,0,.856,1.623,8.265,8.265,0,0,0,1.609,1.669,10.551,10.551,0,0,0,2.61,1.482,18.219,18.219,0,0,0-1.91,2.1,11.693,11.693,0,0,0-1.26,2.2,4.8,4.8,0,0,0-.348,2.672q.6,3.726,1.157,7.592t1.006,7.112q.471,3.246.753,5.4a18.618,18.618,0,0,0,.4,2.436,7.684,7.684,0,0,0,.705,1.816c.339.635.668,1.209,1.007,1.717a12.2,12.2,0,0,0,1.411,1.815Zm.4-24.158-5.231-35.048-5.226,35.048Z" fill="#fff"/>
    <path id="Tracé_5647" data-name="Tracé 5647" d="M-744.587,1600.662h15.127a57.389,57.389,0,0,1,6.933-12.155s-17.954-6.43-22.06,12.155" fill="#ec6527"/>
    <path id="Tracé_5648" data-name="Tracé 5648" d="M-756.483,1595.145a23.033,23.033,0,0,1,9.722,2.747,21.667,21.667,0,0,1-19.633-.786,23.092,23.092,0,0,1,9.911-1.961" fill="#fff"/>
    <path id="Tracé_5649" data-name="Tracé 5649" d="M-751.61,1584.025a22.914,22.914,0,0,1,7.643,6.585,21.579,21.579,0,0,1-17.46-8.937,23.1,23.1,0,0,1,9.817,2.385" fill="#fff"/>
    <path id="Tracé_5650" data-name="Tracé 5650" d="M-741.549,1576.127a22.717,22.717,0,0,1,2.912,9.615,21.375,21.375,0,0,1-9.916-16.854,22.9,22.9,0,0,1,7,7.234" fill="#fff"/>
    <path id="Tracé_5651" data-name="Tracé 5651" d="M-728.557,1574.17a22.687,22.687,0,0,1-2.766,9.657,21.265,21.265,0,0,1,.795-19.5,22.684,22.684,0,0,1,1.976,9.845" fill="#fff"/>
    <path id="Tracé_5652" data-name="Tracé 5652" d="M-716.661,1577a22.845,22.845,0,0,1-5.96,8.11,21.324,21.324,0,0,1,7.526-18.025,22.641,22.641,0,0,1-1.58,9.915" fill="#fff"/>
    <path id="Tracé_5653" data-name="Tracé 5653" d="M-552.776,1600.662H-567.9a57.414,57.414,0,0,0-6.928-12.155s17.949-6.43,22.056,12.155" fill="#ec6527"/>
    <path id="Tracé_5654" data-name="Tracé 5654" d="M-540.88,1595.145a23.069,23.069,0,0,0-9.723,2.747,21.669,21.669,0,0,0,19.634-.786,23.085,23.085,0,0,0-9.916-1.961" fill="#fff"/>
    <path id="Tracé_5655" data-name="Tracé 5655" d="M-545.753,1584.025a22.9,22.9,0,0,0-7.644,6.585,21.581,21.581,0,0,0,17.461-8.937,23.1,23.1,0,0,0-9.817,2.385" fill="#fff"/>
    <path id="Tracé_5656" data-name="Tracé 5656" d="M-555.815,1576.127a22.7,22.7,0,0,0-2.907,9.615,21.364,21.364,0,0,0,9.916-16.854,22.908,22.908,0,0,0-7,7.234" fill="#fff"/>
    <path id="Tracé_5657" data-name="Tracé 5657" d="M-568.8,1574.17a22.692,22.692,0,0,0,2.766,9.657,21.262,21.262,0,0,0-.791-19.5,22.683,22.683,0,0,0-1.975,9.845" fill="#fff"/>
    <path id="Tracé_5658" data-name="Tracé 5658" d="M-580.7,1577a22.835,22.835,0,0,0,5.96,8.11,21.321,21.321,0,0,0-7.526-18.025,22.687,22.687,0,0,0,1.581,9.915" fill="#fff"/>
    <path id="Tracé_5659" data-name="Tracé 5659" d="M-728.938,1797.676l-1.919-33.976h-33.98v-1.754h35.626l2.013,35.627Z" fill="#f8e813"/>
    <rect id="Rectangle_55" data-name="Rectangle 55" width="41.201" height="1.755" transform="translate(-759.785 1791.34) rotate(-45)" fill="#f8e813"/>
    <path id="Tracé_5660" data-name="Tracé 5660" d="M-736.52,1785.691l-1.666-.541,6.586-20.269a.358.358,0,0,0-.09-.376.366.366,0,0,0-.376-.089L-752.335,1771l-.541-1.67,20.269-6.585a2.122,2.122,0,0,1,2.677,1.355,2.13,2.13,0,0,1,0,1.321Z" fill="#f8e813"/>
    <path id="Tracé_5661" data-name="Tracé 5661" d="M-718.6,1783.456a79.5,79.5,0,0,1-12.23-20.861l1.642-.607a79.266,79.266,0,0,0,11.948,20.34Z" fill="#f8e813"/>
    <path id="Tracé_5662" data-name="Tracé 5662" d="M-566.483,1797.676l-1.75-.1,2.014-35.626h35.626v1.754h-33.971Z" fill="#f8e813"/>
    <rect id="Rectangle_56" data-name="Rectangle 56" width="1.754" height="41.199" transform="translate(-566.017 1763.447) rotate(-45)" fill="#f8e813"/>
    <path id="Tracé_5663" data-name="Tracé 5663" d="M-558.905,1785.691l-6.585-20.269a2.121,2.121,0,0,1,1.355-2.676,2.116,2.116,0,0,1,1.321,0l20.269,6.585-.541,1.67-20.269-6.585a.365.365,0,0,0-.47.219.362.362,0,0,0,0,.251l6.585,20.269Z" fill="#f8e813"/>
    <path id="Tracé_5664" data-name="Tracé 5664" d="M-576.827,1783.456l-1.34-1.128a79.265,79.265,0,0,0,11.948-20.34l1.646.607a79.476,79.476,0,0,1-12.23,20.861" fill="#f8e813"/>
  </g>
</svg>
