<svg xmlns="http://www.w3.org/2000/svg" width="54.897" height="54.898" viewBox="0 0 54.897 54.898">
  <g id="telephone" transform="translate(0 0)">
    <g id="Groupe_574" data-name="Groupe 574" transform="translate(38.698 32.315)">
      <g id="Groupe_573" data-name="Groupe 573">
        <path id="Tracé_6449" data-name="Tracé 6449" d="M375.7,309.583l-6.823-6.824a4.943,4.943,0,0,0-6.824,0l-1.138,1.138,13.648,13.647,1.137-1.137A4.821,4.821,0,0,0,375.7,309.583Z" transform="translate(-360.917 -301.393)" fill="#f8e813"/>
      </g>
    </g>
    <g id="Groupe_576" data-name="Groupe 576" transform="translate(0 4.872)">
      <g id="Groupe_575" data-name="Groupe 575" transform="translate(0)">
        <path id="Tracé_6450" data-name="Tracé 6450" d="M36.361,77.6a3.619,3.619,0,0,1-4.8-.247l-13.49-13.5a3.62,3.62,0,0,1-.247-4.8L4.212,45.443a17.366,17.366,0,0,0,.836,23.581L26.4,90.382a17.266,17.266,0,0,0,23.581.836Z" transform="translate(0 -45.443)" fill="#fef8f5"/>
      </g>
    </g>
    <g id="Groupe_578" data-name="Groupe 578" transform="translate(6.392 0)">
      <g id="Groupe_577" data-name="Groupe 577">
        <path id="Tracé_6451" data-name="Tracé 6451" d="M74.4,8.19,67.574,1.366a4.943,4.943,0,0,0-6.824,0L59.612,2.5,73.26,16.151,74.4,15.013A4.821,4.821,0,0,0,74.4,8.19Z" transform="translate(-59.612 0)" fill="#f8e813"/>
      </g>
    </g>
  </g>
</svg>
