<svg xmlns="http://www.w3.org/2000/svg" xmlns:xlink="http://www.w3.org/1999/xlink" width="1553" height="32.695" viewBox="0 0 1553 32.695">
  <defs>
    <clipPath id="clip-path">
      <rect width="1553" height="32.695" fill="none"/>
    </clipPath>
  </defs>
  <g id="Grille_de_répétition_5" data-name="Grille de répétition 5" clip-path="url(#clip-path)">
    <g transform="translate(15 -3162.305)">
      <path id="Tracé_6435" data-name="Tracé 6435" d="M-3993.309,3263.7l-24.034,32.7h47.1Z" transform="translate(4002.343 -101.392)" fill="#fff"/>
    </g>
    <g transform="translate(42 -3162.305)">
      <path id="Tracé_6435-2" data-name="Tracé 6435" d="M-3993.309,3263.7l-24.034,32.7h47.1Z" transform="translate(4002.343 -101.392)" fill="#fff"/>
    </g>
    <g transform="translate(69 -3162.305)">
      <path id="Tracé_6435-3" data-name="Tracé 6435" d="M-3993.309,3263.7l-24.034,32.7h47.1Z" transform="translate(4002.343 -101.392)" fill="#fff"/>
    </g>
    <g transform="translate(96 -3162.305)">
      <path id="Tracé_6435-4" data-name="Tracé 6435" d="M-3993.309,3263.7l-24.034,32.7h47.1Z" transform="translate(4002.343 -101.392)" fill="#fff"/>
    </g>
    <g transform="translate(123 -3162.305)">
      <path id="Tracé_6435-5" data-name="Tracé 6435" d="M-3993.309,3263.7l-24.034,32.7h47.1Z" transform="translate(4002.343 -101.392)" fill="#fff"/>
    </g>
    <g transform="translate(150 -3162.305)">
      <path id="Tracé_6435-6" data-name="Tracé 6435" d="M-3993.309,3263.7l-24.034,32.7h47.1Z" transform="translate(4002.343 -101.392)" fill="#fff"/>
    </g>
    <g transform="translate(177 -3162.305)">
      <path id="Tracé_6435-7" data-name="Tracé 6435" d="M-3993.309,3263.7l-24.034,32.7h47.1Z" transform="translate(4002.343 -101.392)" fill="#fff"/>
    </g>
    <g transform="translate(204 -3162.305)">
      <path id="Tracé_6435-8" data-name="Tracé 6435" d="M-3993.309,3263.7l-24.034,32.7h47.1Z" transform="translate(4002.343 -101.392)" fill="#fff"/>
    </g>
    <g transform="translate(231 -3162.305)">
      <path id="Tracé_6435-9" data-name="Tracé 6435" d="M-3993.309,3263.7l-24.034,32.7h47.1Z" transform="translate(4002.343 -101.392)" fill="#fff"/>
    </g>
    <g transform="translate(258 -3162.305)">
      <path id="Tracé_6435-10" data-name="Tracé 6435" d="M-3993.309,3263.7l-24.034,32.7h47.1Z" transform="translate(4002.343 -101.392)" fill="#fff"/>
    </g>
    <g transform="translate(285 -3162.305)">
      <path id="Tracé_6435-11" data-name="Tracé 6435" d="M-3993.309,3263.7l-24.034,32.7h47.1Z" transform="translate(4002.343 -101.392)" fill="#fff"/>
    </g>
    <g transform="translate(312 -3162.305)">
      <path id="Tracé_6435-12" data-name="Tracé 6435" d="M-3993.309,3263.7l-24.034,32.7h47.1Z" transform="translate(4002.343 -101.392)" fill="#fff"/>
    </g>
    <g transform="translate(339 -3162.305)">
      <path id="Tracé_6435-13" data-name="Tracé 6435" d="M-3993.309,3263.7l-24.034,32.7h47.1Z" transform="translate(4002.343 -101.392)" fill="#fff"/>
    </g>
    <g transform="translate(366 -3162.305)">
      <path id="Tracé_6435-14" data-name="Tracé 6435" d="M-3993.309,3263.7l-24.034,32.7h47.1Z" transform="translate(4002.343 -101.392)" fill="#fff"/>
    </g>
    <g transform="translate(393 -3162.305)">
      <path id="Tracé_6435-15" data-name="Tracé 6435" d="M-3993.309,3263.7l-24.034,32.7h47.1Z" transform="translate(4002.343 -101.392)" fill="#fff"/>
    </g>
    <g transform="translate(420 -3162.305)">
      <path id="Tracé_6435-16" data-name="Tracé 6435" d="M-3993.309,3263.7l-24.034,32.7h47.1Z" transform="translate(4002.343 -101.392)" fill="#fff"/>
    </g>
    <g transform="translate(447 -3162.305)">
      <path id="Tracé_6435-17" data-name="Tracé 6435" d="M-3993.309,3263.7l-24.034,32.7h47.1Z" transform="translate(4002.343 -101.392)" fill="#fff"/>
    </g>
    <g transform="translate(474 -3162.305)">
      <path id="Tracé_6435-18" data-name="Tracé 6435" d="M-3993.309,3263.7l-24.034,32.7h47.1Z" transform="translate(4002.343 -101.392)" fill="#fff"/>
    </g>
    <g transform="translate(501 -3162.305)">
      <path id="Tracé_6435-19" data-name="Tracé 6435" d="M-3993.309,3263.7l-24.034,32.7h47.1Z" transform="translate(4002.343 -101.392)" fill="#fff"/>
    </g>
    <g transform="translate(528 -3162.305)">
      <path id="Tracé_6435-20" data-name="Tracé 6435" d="M-3993.309,3263.7l-24.034,32.7h47.1Z" transform="translate(4002.343 -101.392)" fill="#fff"/>
    </g>
    <g transform="translate(555 -3162.305)">
      <path id="Tracé_6435-21" data-name="Tracé 6435" d="M-3993.309,3263.7l-24.034,32.7h47.1Z" transform="translate(4002.343 -101.392)" fill="#fff"/>
    </g>
    <g transform="translate(582 -3162.305)">
      <path id="Tracé_6435-22" data-name="Tracé 6435" d="M-3993.309,3263.7l-24.034,32.7h47.1Z" transform="translate(4002.343 -101.392)" fill="#fff"/>
    </g>
    <g transform="translate(609 -3162.305)">
      <path id="Tracé_6435-23" data-name="Tracé 6435" d="M-3993.309,3263.7l-24.034,32.7h47.1Z" transform="translate(4002.343 -101.392)" fill="#fff"/>
    </g>
    <g transform="translate(636 -3162.305)">
      <path id="Tracé_6435-24" data-name="Tracé 6435" d="M-3993.309,3263.7l-24.034,32.7h47.1Z" transform="translate(4002.343 -101.392)" fill="#fff"/>
    </g>
    <g transform="translate(663 -3162.305)">
      <path id="Tracé_6435-25" data-name="Tracé 6435" d="M-3993.309,3263.7l-24.034,32.7h47.1Z" transform="translate(4002.343 -101.392)" fill="#fff"/>
    </g>
    <g transform="translate(690 -3162.305)">
      <path id="Tracé_6435-26" data-name="Tracé 6435" d="M-3993.309,3263.7l-24.034,32.7h47.1Z" transform="translate(4002.343 -101.392)" fill="#fff"/>
    </g>
    <g transform="translate(717 -3162.305)">
      <path id="Tracé_6435-27" data-name="Tracé 6435" d="M-3993.309,3263.7l-24.034,32.7h47.1Z" transform="translate(4002.343 -101.392)" fill="#fff"/>
    </g>
    <g transform="translate(744 -3162.305)">
      <path id="Tracé_6435-28" data-name="Tracé 6435" d="M-3993.309,3263.7l-24.034,32.7h47.1Z" transform="translate(4002.343 -101.392)" fill="#fff"/>
    </g>
    <g transform="translate(771 -3162.305)">
      <path id="Tracé_6435-29" data-name="Tracé 6435" d="M-3993.309,3263.7l-24.034,32.7h47.1Z" transform="translate(4002.343 -101.392)" fill="#fff"/>
    </g>
    <g transform="translate(798 -3162.305)">
      <path id="Tracé_6435-30" data-name="Tracé 6435" d="M-3993.309,3263.7l-24.034,32.7h47.1Z" transform="translate(4002.343 -101.392)" fill="#fff"/>
    </g>
    <g transform="translate(825 -3162.305)">
      <path id="Tracé_6435-31" data-name="Tracé 6435" d="M-3993.309,3263.7l-24.034,32.7h47.1Z" transform="translate(4002.343 -101.392)" fill="#fff"/>
    </g>
    <g transform="translate(852 -3162.305)">
      <path id="Tracé_6435-32" data-name="Tracé 6435" d="M-3993.309,3263.7l-24.034,32.7h47.1Z" transform="translate(4002.343 -101.392)" fill="#fff"/>
    </g>
    <g transform="translate(879 -3162.305)">
      <path id="Tracé_6435-33" data-name="Tracé 6435" d="M-3993.309,3263.7l-24.034,32.7h47.1Z" transform="translate(4002.343 -101.392)" fill="#fff"/>
    </g>
    <g transform="translate(906 -3162.305)">
      <path id="Tracé_6435-34" data-name="Tracé 6435" d="M-3993.309,3263.7l-24.034,32.7h47.1Z" transform="translate(4002.343 -101.392)" fill="#fff"/>
    </g>
    <g transform="translate(933 -3162.305)">
      <path id="Tracé_6435-35" data-name="Tracé 6435" d="M-3993.309,3263.7l-24.034,32.7h47.1Z" transform="translate(4002.343 -101.392)" fill="#fff"/>
    </g>
    <g transform="translate(960 -3162.305)">
      <path id="Tracé_6435-36" data-name="Tracé 6435" d="M-3993.309,3263.7l-24.034,32.7h47.1Z" transform="translate(4002.343 -101.392)" fill="#fff"/>
    </g>
    <g transform="translate(987 -3162.305)">
      <path id="Tracé_6435-37" data-name="Tracé 6435" d="M-3993.309,3263.7l-24.034,32.7h47.1Z" transform="translate(4002.343 -101.392)" fill="#fff"/>
    </g>
    <g transform="translate(1014 -3162.305)">
      <path id="Tracé_6435-38" data-name="Tracé 6435" d="M-3993.309,3263.7l-24.034,32.7h47.1Z" transform="translate(4002.343 -101.392)" fill="#fff"/>
    </g>
    <g transform="translate(1041 -3162.305)">
      <path id="Tracé_6435-39" data-name="Tracé 6435" d="M-3993.309,3263.7l-24.034,32.7h47.1Z" transform="translate(4002.343 -101.392)" fill="#fff"/>
    </g>
    <g transform="translate(1068 -3162.305)">
      <path id="Tracé_6435-40" data-name="Tracé 6435" d="M-3993.309,3263.7l-24.034,32.7h47.1Z" transform="translate(4002.343 -101.392)" fill="#fff"/>
    </g>
    <g transform="translate(1095 -3162.305)">
      <path id="Tracé_6435-41" data-name="Tracé 6435" d="M-3993.309,3263.7l-24.034,32.7h47.1Z" transform="translate(4002.343 -101.392)" fill="#fff"/>
    </g>
    <g transform="translate(1122 -3162.305)">
      <path id="Tracé_6435-42" data-name="Tracé 6435" d="M-3993.309,3263.7l-24.034,32.7h47.1Z" transform="translate(4002.343 -101.392)" fill="#fff"/>
    </g>
    <g transform="translate(1149 -3162.305)">
      <path id="Tracé_6435-43" data-name="Tracé 6435" d="M-3993.309,3263.7l-24.034,32.7h47.1Z" transform="translate(4002.343 -101.392)" fill="#fff"/>
    </g>
    <g transform="translate(1176 -3162.305)">
      <path id="Tracé_6435-44" data-name="Tracé 6435" d="M-3993.309,3263.7l-24.034,32.7h47.1Z" transform="translate(4002.343 -101.392)" fill="#fff"/>
    </g>
    <g transform="translate(1203 -3162.305)">
      <path id="Tracé_6435-45" data-name="Tracé 6435" d="M-3993.309,3263.7l-24.034,32.7h47.1Z" transform="translate(4002.343 -101.392)" fill="#fff"/>
    </g>
    <g transform="translate(1230 -3162.305)">
      <path id="Tracé_6435-46" data-name="Tracé 6435" d="M-3993.309,3263.7l-24.034,32.7h47.1Z" transform="translate(4002.343 -101.392)" fill="#fff"/>
    </g>
    <g transform="translate(1257 -3162.305)">
      <path id="Tracé_6435-47" data-name="Tracé 6435" d="M-3993.309,3263.7l-24.034,32.7h47.1Z" transform="translate(4002.343 -101.392)" fill="#fff"/>
    </g>
    <g transform="translate(1284 -3162.305)">
      <path id="Tracé_6435-48" data-name="Tracé 6435" d="M-3993.309,3263.7l-24.034,32.7h47.1Z" transform="translate(4002.343 -101.392)" fill="#fff"/>
    </g>
    <g transform="translate(1311 -3162.305)">
      <path id="Tracé_6435-49" data-name="Tracé 6435" d="M-3993.309,3263.7l-24.034,32.7h47.1Z" transform="translate(4002.343 -101.392)" fill="#fff"/>
    </g>
    <g transform="translate(1338 -3162.305)">
      <path id="Tracé_6435-50" data-name="Tracé 6435" d="M-3993.309,3263.7l-24.034,32.7h47.1Z" transform="translate(4002.343 -101.392)" fill="#fff"/>
    </g>
    <g transform="translate(1365 -3162.305)">
      <path id="Tracé_6435-51" data-name="Tracé 6435" d="M-3993.309,3263.7l-24.034,32.7h47.1Z" transform="translate(4002.343 -101.392)" fill="#fff"/>
    </g>
    <g transform="translate(1392 -3162.305)">
      <path id="Tracé_6435-52" data-name="Tracé 6435" d="M-3993.309,3263.7l-24.034,32.7h47.1Z" transform="translate(4002.343 -101.392)" fill="#fff"/>
    </g>
    <g transform="translate(1419 -3162.305)">
      <path id="Tracé_6435-53" data-name="Tracé 6435" d="M-3993.309,3263.7l-24.034,32.7h47.1Z" transform="translate(4002.343 -101.392)" fill="#fff"/>
    </g>
    <g transform="translate(1446 -3162.305)">
      <path id="Tracé_6435-54" data-name="Tracé 6435" d="M-3993.309,3263.7l-24.034,32.7h47.1Z" transform="translate(4002.343 -101.392)" fill="#fff"/>
    </g>
    <g transform="translate(1473 -3162.305)">
      <path id="Tracé_6435-55" data-name="Tracé 6435" d="M-3993.309,3263.7l-24.034,32.7h47.1Z" transform="translate(4002.343 -101.392)" fill="#fff"/>
    </g>
    <g transform="translate(1500 -3162.305)">
      <path id="Tracé_6435-56" data-name="Tracé 6435" d="M-3993.309,3263.7l-24.034,32.7h47.1Z" transform="translate(4002.343 -101.392)" fill="#fff"/>
    </g>
    <g transform="translate(1527 -3162.305)">
      <path id="Tracé_6435-57" data-name="Tracé 6435" d="M-3993.309,3263.7l-24.034,32.7h47.1Z" transform="translate(4002.343 -101.392)" fill="#fff"/>
    </g>
    <g transform="translate(1554 -3162.305)">
      <path id="Tracé_6435-58" data-name="Tracé 6435" d="M-3993.309,3263.7l-24.034,32.7h47.1Z" transform="translate(4002.343 -101.392)" fill="#fff"/>
    </g>
  </g>
</svg>
