<svg xmlns="http://www.w3.org/2000/svg" width="29.991" height="29.992" viewBox="0 0 29.991 29.992">
  <g id="Groupe_662" data-name="Groupe 662" transform="translate(-312.009 -4758.49)">
    <g id="right-arrow" transform="matrix(1, -0.017, 0.017, 1, 322.097, 4768.717)">
      <path id="Tracé_5589" data-name="Tracé 5589" d="M1.92,0H0L3.839,4.768,0,9.594H1.92L5.759,4.768Z" transform="translate(0 0)" fill="#ea6527"/>
      <path id="Tracé_5590" data-name="Tracé 5590" d="M1.92,0H0L3.839,4.768,0,9.594H1.92L5.759,4.768Z" transform="translate(3.89 0)" fill="#ea6527"/>
    </g>
    <g id="Tracé_6545" data-name="Tracé 6545" transform="matrix(-1, 0.017, -0.017, -1, 342, 4787.967)" fill="none">
      <path d="M14.741,0a14.742,14.742,0,0,1,7.787,27.259,14.5,14.5,0,0,1-7.787,2.223A14.741,14.741,0,0,1,14.741,0Z" stroke="none"/>
      <path d="M 14.74072265625 1.000001907348633 C 11.07044219970703 1.000001907348633 7.619842529296875 2.429283142089844 5.024562835693359 5.024562835693359 C 2.429283142089844 7.619842529296875 1.000001907348633 11.07044219970703 1.000001907348633 14.74072265625 C 1.000001907348633 18.41100311279297 2.429283142089844 21.86160278320312 5.024562835693359 24.45688247680664 C 7.619842529296875 27.05216217041016 11.07044219970703 28.48144340515137 14.74072265625 28.48144340515137 C 17.3448429107666 28.48144340515137 19.91833305358887 27.74857330322266 21.98783302307129 26.41739273071289 C 23.96676254272461 25.14674377441406 25.60583305358887 23.42508316040039 26.72786331176758 21.43851280212402 C 27.87506294250488 19.40737152099609 28.48144340515137 17.09131240844727 28.48144340515137 14.74072265625 C 28.48144340515137 11.07044219970703 27.05216217041016 7.619842529296875 24.45688247680664 5.024562835693359 C 21.86160278320312 2.429283142089844 18.41100311279297 1.000001907348633 14.74072265625 1.000001907348633 M 14.74072265625 1.9073486328125e-06 C 22.88180160522461 1.9073486328125e-06 29.48144340515137 6.599641799926758 29.48144340515137 14.74072265625 C 29.48144340515137 19.95101165771484 26.77823257446289 24.52993202209473 22.52813339233398 27.25886344909668 C 20.40253257751465 28.62613296508789 17.67151260375977 29.48144340515137 14.74072265625 29.48144340515137 C 6.599641799926758 29.48144340515137 1.9073486328125e-06 22.88180160522461 1.9073486328125e-06 14.74072265625 C 1.9073486328125e-06 6.599641799926758 6.599641799926758 1.9073486328125e-06 14.74072265625 1.9073486328125e-06 Z" stroke="none" fill="#ea6527"/>
    </g>
  </g>
</svg>
