<svg xmlns="http://www.w3.org/2000/svg" width="197.373" height="158.339" viewBox="0 0 197.373 158.339">
  <g id="Groupe_26" data-name="Groupe 26" transform="matrix(-0.829, -0.559, 0.559, -0.829, -91.504, 327.412)">
    <path id="Tracé_71" data-name="Tracé 71" d="M-27.011,305.672A81.708,81.708,0,0,1-52.4,280.478a81.782,81.782,0,0,1,34.059,10.945A81.707,81.707,0,0,1,7.048,316.616a81.792,81.792,0,0,1-34.059-10.945" transform="translate(78.282 9.664)" fill="#f8e813"/>
    <path id="Tracé_72" data-name="Tracé 72" d="M-50.2,322.515a81.093,81.093,0,0,1-12.382-33.463,81.8,81.8,0,0,1,26.307,24.234A81.125,81.125,0,0,1-23.9,346.749,81.794,81.794,0,0,1-50.2,322.515" transform="translate(67.308 18.899)" fill="#f8e813"/>
    <path id="Tracé_73" data-name="Tracé 73" d="M-78.138,326.642a80.342,80.342,0,0,1,7.494-34.763,81.071,81.071,0,0,1,9.268,34.433,80.342,80.342,0,0,1-7.494,34.763,81.071,81.071,0,0,1-9.268-34.433" transform="translate(50.533 21.944)" fill="#f8e813"/>
    <path id="Tracé_74" data-name="Tracé 74" d="M-93.532,313.842a80.379,80.379,0,0,1,25.138-25.15,80.312,80.312,0,0,1-10.787,33.874,80.378,80.378,0,0,1-25.138,25.15,80.312,80.312,0,0,1,10.787-33.874" transform="translate(22.355 18.512)" fill="#f8e813"/>
    <path id="Tracé_75" data-name="Tracé 75" d="M-103.165,294.466A80.827,80.827,0,0,1-70.8,279.592,80.281,80.281,0,0,1-92.7,307.586a80.807,80.807,0,0,1-32.37,14.872,80.253,80.253,0,0,1,21.908-27.992" transform="translate(0 8.709)" fill="#f8e813"/>
  </g>
</svg>
