<svg xmlns="http://www.w3.org/2000/svg" width="69.554" height="46.455" viewBox="0 0 69.554 46.455">
  <g id="Groupe_636" data-name="Groupe 636" transform="translate(-0.128 0.846) rotate(-2)">
    <path id="Tracé_6417" data-name="Tracé 6417" d="M12.884.02A30.579,30.579,0,0,0,0,3.663a30.605,30.605,0,0,0,13.138,2.6A30.6,30.6,0,0,0,26.024,2.62,30.6,30.6,0,0,0,12.884.02" transform="translate(42.055 40.824)" fill="#fff"/>
    <path id="Tracé_6418" data-name="Tracé 6418" d="M10.127,3.16A30.351,30.351,0,0,0,0,11.869,30.635,30.635,0,0,0,13.011,8.71,30.373,30.373,0,0,0,23.14,0,30.6,30.6,0,0,0,10.127,3.16" transform="translate(38.357 22.944)" fill="#fff"/>
    <path id="Tracé_6419" data-name="Tracé 6419" d="M3.855,9.591A30.078,30.078,0,0,0,0,22.335a30.366,30.366,0,0,0,9.284-9.593A30.074,30.074,0,0,0,13.138,0,30.367,30.367,0,0,0,3.855,9.591" transform="translate(31.292 6.05)" fill="#fff"/>
    <path id="Tracé_6420" data-name="Tracé 6420" d="M.02,13.049a30.1,30.1,0,0,0,3.666,12.8A30.055,30.055,0,0,0,6.3,12.8,30.1,30.1,0,0,0,2.637,0,30.056,30.056,0,0,0,.02,13.049" transform="translate(17.914 0)" fill="#fff"/>
    <path id="Tracé_6421" data-name="Tracé 6421" d="M2.164,13.142a30.254,30.254,0,0,0,7.9,10.746A30.019,30.019,0,0,0,7.97,10.746,30.254,30.254,0,0,0,.07,0,30.059,30.059,0,0,0,2.164,13.142" transform="translate(0 3.653)" fill="#fff"/>
  </g>
</svg>
