<svg xmlns="http://www.w3.org/2000/svg" width="96.224" height="103.12" viewBox="0 0 96.224 103.12">
  <g id="Groupe_44" data-name="Groupe 44" transform="translate(-422.927 -326.162) rotate(6)">
    <path id="Tracé_66" data-name="Tracé 66" d="M504.818,294.507a15.611,15.611,0,1,0,15.612-15.612,15.612,15.612,0,0,0-15.612,15.612" transform="translate(15.283 0)" fill="#ec6527"/>
    <path id="Tracé_67" data-name="Tracé 67" d="M518.007,309.588a2.132,2.132,0,0,1,3.977.009c3.836,9.928,11.924,31.748,11.924,39.178,0,8.622-6.221,15.612-13.9,15.612s-13.9-6.99-13.9-15.612c0-7.927,8.048-29.38,11.9-39.187" transform="translate(15.702 9.493)" fill="#f8e813"/>
    <path id="Tracé_68" data-name="Tracé 68" d="M512.392,291.522a2.132,2.132,0,0,1-.009,3.977c-9.928,3.836-31.748,11.926-39.178,11.926-8.622,0-15.612-6.222-15.612-13.9s6.99-13.9,15.612-13.9c7.927,0,29.38,8.048,39.187,11.9" transform="translate(0 0.237)" fill="#f8e813"/>
    <path id="Tracé_69" data-name="Tracé 69" d="M513.891,300.815a2.132,2.132,0,0,1,2.806,2.819c-4.308,9.733-14.017,30.881-19.271,36.135-6.1,6.1-15.439,6.641-20.867,1.212s-4.887-14.772,1.211-20.868c5.605-5.605,26.464-15.085,36.12-19.3" transform="translate(4.926 7.033)" fill="#f8e813"/>
  </g>
</svg>
