<svg xmlns="http://www.w3.org/2000/svg" width="565.364" height="445.081" viewBox="0 0 565.364 445.081">
  <g id="Groupe_635" data-name="Groupe 635" transform="matrix(0.719, -0.695, 0.695, 0.719, -525.795, 397.181)" opacity="0.068">
    <path id="Tracé_66" data-name="Tracé 66" d="M504.818,346.016a67.118,67.118,0,1,0,67.121-67.121,67.122,67.122,0,0,0-67.121,67.121" transform="translate(221.515 0)" fill="#ec6527"/>
    <path id="Tracé_67" data-name="Tracé 67" d="M557.253,314.072a9.167,9.167,0,0,1,17.1.04c16.492,42.685,51.267,136.5,51.267,168.437,0,37.069-26.746,67.121-59.752,67.121s-59.757-30.052-59.757-67.121c0-34.081,34.6-126.315,51.141-168.477" transform="translate(227.585 137.597)" fill="#f8e813"/>
    <path id="Tracé_68" data-name="Tracé 68" d="M693.191,330.769a9.166,9.166,0,0,1-.04,17.1c-42.685,16.492-136.5,51.273-168.437,51.273-37.069,0-67.121-26.752-67.121-59.758s30.052-59.757,67.121-59.757c34.081,0,126.315,34.6,168.476,51.142" transform="translate(0 3.434)" fill="#f8e813"/>
    <path id="Tracé_69" data-name="Tracé 69" d="M649.4,301.429a9.166,9.166,0,0,1,12.064,12.121C642.944,355.394,601.2,446.319,578.617,468.9c-26.211,26.217-66.376,28.55-89.713,5.212s-21.01-63.507,5.207-89.718c24.1-24.1,113.778-64.856,155.291-82.969" transform="translate(71.41 101.942)" fill="#f8e813"/>
  </g>
</svg>
