<svg xmlns="http://www.w3.org/2000/svg" width="162.173" height="109.96" viewBox="0 0 162.173 109.96">
  <g id="Groupe_634" data-name="Groupe 634" transform="translate(0)">
    <g id="Groupe_4" data-name="Groupe 4">
      <g id="Groupe_3" data-name="Groupe 3">
        <g id="Groupe_2" data-name="Groupe 2">
          <ellipse id="Ellipse_1" data-name="Ellipse 1" cx="62.981" cy="44.694" rx="62.981" ry="44.694" transform="translate(15.026 13.143)" fill="#fff"/>
          <ellipse id="Ellipse_2" data-name="Ellipse 2" cx="29.949" cy="21.278" rx="29.949" ry="21.278" transform="translate(79.768 4.411)" fill="#fff"/>
          <ellipse id="Ellipse_3" data-name="Ellipse 3" cx="0.16" cy="1.451" rx="0.16" ry="1.451" transform="translate(123.586 14.283)" fill="#374399"/>
          <ellipse id="Ellipse_4" data-name="Ellipse 4" cx="4.012" cy="4.695" rx="4.012" ry="4.695" transform="translate(134.559 37.578)" fill="#fff"/>
          <g id="Groupe_1" data-name="Groupe 1">
            <path id="Tracé_1" data-name="Tracé 1" d="M-967.715-555.819c.013-.112.025-.223.038-.335.708-.171.522-.963.963-1.367a3.615,3.615,0,0,0,.968-2.214,10.146,10.146,0,0,1,.7-3c.343-.677.913-1.315,1.209-2.023a22.623,22.623,0,0,1,3.145-5.529.653.653,0,0,0,.071-.619l.025.061-.03-.059c.439.053.636-.125.549-.574l.049.076-.052-.074c.625,0,.748-.539.994-.932.679-1.084,1.064-2.324,1.846-3.365.3-.4,1.053-.548.864-1.285a.1.1,0,0,1,.014-.009c.342.137.484-.11.678-.319a74.782,74.782,0,0,1,7.729-7.309c.277-.225.629-.432.542-.891l-.008.009a.823.823,0,0,0,.671-.18c1.225-.723,2.143-1.818,3.323-2.612a75.581,75.581,0,0,1,9.351-5.866c1.792-.858,3.219-2.242,4.964-3.168.607-.322,1.269-.214,1.8-.572a22.373,22.373,0,0,1,4.781-2.445c1.6-.6,2.874-1.859,4.527-2.359.659-.2.9-.927,1.472-1.1.973-.3,1.9-.711,2.838-1.088a1.419,1.419,0,0,1,1.3-.033c.506.241,1.225.5,1.465-.444l.064.005c.911.283,1.609-.406,2.429-.552.3-.054-.109-.243-.074-.393a.174.174,0,0,1,.257.029c1.134.261,2.159-.375,3.28-.384a10,10,0,0,0,4.145-.559,10.546,10.546,0,0,1,1.963-.37c1.171-.3,2.505.249,3.541-.688l.391.008a2.839,2.839,0,0,0,2.023,0l.379.054c0,.516.37.461.713.475.856.034,1.715.077,2.567.118,1.113.054,2.14.568,3.269.448a2.41,2.41,0,0,1,1.928.4.4.4,0,0,0,.643-.066h2.022c.289.359.608.125.932.062,1.671-.321,3.3-1.075,5.066-.456a.672.672,0,0,0,.514-.15c1.6-1.237,3.564-1.065,5.388-1.249,2.363-.239,4.663.521,6.992.849,2,.281,3.943.78,5.908,1.192a10.063,10.063,0,0,1,2.426.426c1.331.707,2.914.473,4.163,1.337a.609.609,0,0,0,.773-.112l.391-.012h.165l0,.006c.233.9.972.425,1.491.548a36.3,36.3,0,0,1,6.807,2.508c2.869,1.272,5.422,3.162,8.387,4.261a7.978,7.978,0,0,1,3.006,1.381,39.01,39.01,0,0,0,5.08,3.944c1.529,1.088,2.954,2.321,4.425,3.49.022.389.194.6.614.524l-.009-.008c-.054.306.073.433.379.382L-818.5-588c.011.611.418.831.932.945l-.012-.012q-.068.635.567.57l-.011-.009c.143.842.832,1.161,1.469,1.53a.586.586,0,0,1,.349.37c.01.431-.085.933.61.9l-.015-.011c-.046.275.078.406.35.411l-.007-.006c-.02.295,0,.563.4.562a.346.346,0,0,1,.2.438.8.8,0,0,0,.136.511,29.489,29.489,0,0,0,2.033,2.612c1.565,2.5,3.407,4.835,4.028,7.851.249,1.208.52,2.445.734,3.645a17.745,17.745,0,0,1,.268,4.6c-.045.519-.135,1.035-.171,1.555a47.473,47.473,0,0,1-.292,5.377,18.543,18.543,0,0,0-.66,4.8,1.025,1.025,0,0,1-.133.522,8.134,8.134,0,0,0-.763,3.323l.027.048-.039.039a.584.584,0,0,0-.571.5c-.131.468-.363.91-.471,1.382-.307,1.345-1.3,2.408-1.466,3.834a3.288,3.288,0,0,1-.924,1.559c-.363.413-.695-.18-1.076-.23-1.94-.252-3.9-.128-5.848-.48-1.61-.291-3.3-.214-4.955-.423-1.023-.129-1.356.148-1.415,1.187a7.148,7.148,0,0,1-.26,1.912c-.327.98-.645,1.958-1,2.929a30.034,30.034,0,0,1-2.276,4.475c-.563.986-1.518,1.8-1.47,3.077l.015,0c-.387-.02-.5.21-.613.547-.181.545-.491,1.048-.678,1.592a15.7,15.7,0,0,0-1.214,4.487c-.065,1.55-.311,3.194-2.081,3.956-.3.129-.739.286-.592.8l0-.009c-.684.012-1.361.035-1.493.931l-.008-.016a1.207,1.207,0,0,0-.953.176c-1.487.881-2.923,1.853-4.493,2.588a.6.6,0,0,0-.365.581l-.059-.014c-.691.05-1.362.136-1.614.939l-.059-.01a1.24,1.24,0,0,0-.814.059,39.491,39.491,0,0,1-5.475,2.4c-2.482,1.073-4.959,2.159-7.5,3.086a.607.607,0,0,0-.462.6l-.066-.021c-1.609-.141-2.955.792-4.46,1.106-2.012.42-3.946,1.237-5.965,1.6-1.552.277-2.986,1.054-4.6,1.01-.34-.009-.322.308-.317.559l.005-.013a16.032,16.032,0,0,0-2.594.035,55.79,55.79,0,0,1-6.5.936c-1.955.1-3.917.35-5.878.5a.461.461,0,0,0-.492.441c-.093.046-.18.058-.242-.049l-.968,0c-.181.17-.395.114-.6.087-.1-.672-.627-.472-1.018-.476-3.325-.03-6.65.011-9.975-.092-3.384-.1-6.745-.7-10.143-.455-.05.1-.1.1-.156,0h-.405c-.068.1-.152.1-.246.037-.014-.357-.287-.476-.558-.5-1.137-.118-2.211-.715-3.4-.447,0,0,0,.025,0,.025a.43.43,0,0,0-.395-.528c-.967-.042-1.839-.688-2.846-.43-.082.09-.166.069-.251,0-.015-.341-.258-.476-.534-.55-1.713-.459-3.454-.831-5.132-1.392a15.494,15.494,0,0,1-2.725-.928c-.448-.247-1.005-.841-1.664-.3l-.377-.142c.015-.366-.164-.523-.52-.628a21.317,21.317,0,0,1-5.356-2.053c-.289-.18-.659-.548-1.03-.065l-.08,0-.054-.059c.018-.689-.6-.59-.975-.744-.671-.277-1.177-1.027-2.049-.748,0,0,0,.018,0,.018a5.052,5.052,0,0,0-3.6-1.9l-.071.007a1.549,1.549,0,0,0-1.8-.924h-.058c-.13-.531-.361-.946-1.007-.893-.059-1.014-1.033-1.1-1.626-1.522a15.561,15.561,0,0,1-4.54-4.553c-.339-.562-.542-1.42-1.392-1.612l.005.005c-.069-1.1.332-2.3-.447-3.263-.513-.635-.539-1.632-1.457-1.954,0,0,.009-.051.01-.052.071-.442-.2-.637-.527-.867-1.135-.8-2.527-.484-3.744-.908l.012.011A15.222,15.222,0,0,0-963-530.322a24.568,24.568,0,0,1-1.752-2.357,44.754,44.754,0,0,1-3.291-8.242,9.759,9.759,0,0,1-.556-2.4,16.206,16.206,0,0,1,.438-2.332c.074-.722-.431-1.285-.387-1.951a33.791,33.791,0,0,1,.855-5.72,1.362,1.362,0,0,0-.085-1.16l.032-.57c.216-.015.438-.025.466-.313C-967.249-555.679-967.445-555.786-967.715-555.819Zm104.363-16.211a11.141,11.141,0,0,0,1.04,3.911,3.06,3.06,0,0,0,4.841,1.084,15.024,15.024,0,0,0,2.3-2.406,37.227,37.227,0,0,0,4.257-7.9,8.237,8.237,0,0,0,.851-2.442.841.841,0,0,0-.388-.956.841.841,0,0,0-1.022.178,4.519,4.519,0,0,0-1.065,1.273c-1.043,1.9-2.066,3.807-3.166,5.67a14.664,14.664,0,0,1-3.465,4.54c-.707.538-.914.436-1.069-.416a14.587,14.587,0,0,1,.382-6.153c.987-4.01,2.8-7.731,4.107-11.63a.615.615,0,0,1,.5-.485c2.361-.328,4.682-1.28,7.12-.284.881.36,1.47-.277,1.216-1.2a1.925,1.925,0,0,0-1.078-1.305,9.7,9.7,0,0,0-5.361-.67c-1.007.1-1.1.048-.754-.941a10.893,10.893,0,0,0,.515-2.823c.059-.845-.526-1.3-1.2-1.585-.714-.3-1,.3-1.286.762a16.589,16.589,0,0,0-1.823,4.549,1.291,1.291,0,0,1-1.254,1.133c-.644.045-1.279.214-1.922.3-4.661.614-9.235,1.754-13.911,2.27-.539.059-.721.322-.534.813a1.639,1.639,0,0,0,.82.967,5.039,5.039,0,0,0,2.883.521q5.742-.8,11.483-1.614c.234-.033.508-.222.693.021s.01.524-.087.784c-.663,1.764-1.4,3.505-1.957,5.3a28.768,28.768,0,0,1-5.3,9.9,11.389,11.389,0,0,1-4.265,3.36,1.589,1.589,0,0,1-1.958-.569c-.382-.728.313-.867.675-1.182a54.193,54.193,0,0,0,4.65-4.26,7.091,7.091,0,0,0,2.105-4.817,2.929,2.929,0,0,0-4.406-2.789,9.8,9.8,0,0,0-2.335,1.938c-2.471,2.857-4.338,5.959-3.88,9.959a.59.59,0,0,1-.221.573,13.065,13.065,0,0,1-6.864,3.241c-1.127.117-1.579-.263-1.8-1.384a6.472,6.472,0,0,1,.3-3.286c.2-.627.376-.894,1.083-.522a2.438,2.438,0,0,0,2.723-.008,7.7,7.7,0,0,0,3.458-5.865,2.933,2.933,0,0,0-3.965-3.109,5.371,5.371,0,0,0-1.923,1.273,18.477,18.477,0,0,0-3.553,4.959,2.576,2.576,0,0,1-2.335,1.55c-.837.057-1-.172-.7-.943a8.413,8.413,0,0,0,.856-3.391c-.035-.823-.621-1.162-1.237-1.472a.772.772,0,0,0-1.057.279,7.58,7.58,0,0,0-1.66,4.729,5,5,0,0,1-.552,2.366c-.456.981-.914,1.961-1.4,2.925a14.516,14.516,0,0,1-2.631,4c-.29.281-.619.739-1.086.535-.427-.187-.471-.7-.5-1.136a12.527,12.527,0,0,1,.79-4.818,14.941,14.941,0,0,0,1.142-4.655,1.964,1.964,0,0,0-1.393-1.961c-.938-.146-1.01.7-1.217,1.237-1.212,3.173-2.3,6.4-4.3,9.2a12.846,12.846,0,0,1-2.548,2.806c-.228.176-.43.588-.757.415-.351-.185-.207-.625-.162-.936a29.759,29.759,0,0,1,1.427-5.935c.662-1.832,1.368-3.649,2-5.491a1.787,1.787,0,0,0-1.338-2.214c-.755-.28-1.213,0-1.635,1.041-.616,1.516-1.3,3.012-1.808,4.563-.941,2.846-1.9,5.709-1.311,8.787a3.2,3.2,0,0,0,2.079,2.725c1.219.426,2.043-.247,2.754-1.043.843-.944,1.589-1.975,2.374-2.971.285-.362.544-1.024.842-1.04.616-.033.428.733.638,1.13,1.535,2.9,3.973,3.177,6.052.663a34.348,34.348,0,0,0,3.832-6.236c.447-.863.8-1.68,1.985-1.03a.87.87,0,0,0,.367.033c1.284.037,1.284.037,1.277,1.294,0,.124,0,.248,0,.371.053,3.065,3.579,6.115,6.846,4.543a37.322,37.322,0,0,0,5.274-3.087c.469-.329.8-.378,1.184.076a5.631,5.631,0,0,0,.7.613,4.015,4.015,0,0,0,5.2.292A15.857,15.857,0,0,0-866.2-568.3C-865.209-569.39-864.473-570.676-863.352-572.03Zm-58.105,6.531a29.23,29.23,0,0,1-3.055-.018c-2.069-.219-3.8-.93-3.539-3.861A16.914,16.914,0,0,1-927-573.686a33.839,33.839,0,0,1,6.613-10.986c1.862-2.091,3.893-4,6.685-4.82,2.283-.674,3.193.171,2.693,2.511a30.632,30.632,0,0,1-2.563,6.248,13.238,13.238,0,0,0-1.271,8.1A1.96,1.96,0,0,0-913.8-571.2c.649.372,1.137.137,1.14-.616.011-2.542,1.079-4.724,2.2-6.906,1.3-2.521,2.764-4.945,2.942-7.929a5.44,5.44,0,0,0-6.56-5.889,15.623,15.623,0,0,0-6.332,2.971c-5.845,4.406-9.148,10.483-10.834,17.449a7.1,7.1,0,0,0,2.425,7.709,10.084,10.084,0,0,0,6.1,1.855,44.235,44.235,0,0,1,5.655.15c1.721.3,1.959.924.915,2.3a11.583,11.583,0,0,1-5.6,3.776,3.566,3.566,0,0,1-4.295-1.242c-.207-.268-.347-.586-.546-.861a1.06,1.06,0,0,0-1.286-.486c-.487.207-.5.71-.4,1.207a6.276,6.276,0,0,0,6.739,4.831,12.646,12.646,0,0,0,7.568-3.972c2.432-2.387,2.377-5.832-1.144-7.632C-917.15-565.516-919.294-565.454-921.458-565.5Zm63.519,36.393.184.034c0,.7.02,1.4,0,2.1-.067,2.008-.3,4.012-.19,6.026.018.349-.019.8.462.726a5.573,5.573,0,0,0,2.51-.52c.63-.456.246-1.329.283-2.022.008-.154.021-.309.024-.463.057-3.984.56-7.954.359-11.948-.049-.968-.186-1.133-1.173-.968a14.97,14.97,0,0,1-1.642.3,1.9,1.9,0,0,0-1.727,1.189c-.988,2.093-2.066,4.145-2.936,6.294-.12.3-.092.773-.519.79-.4.016-.5-.44-.638-.721-.887-1.793-1.813-3.572-2.57-5.42a1.175,1.175,0,0,0-1.627-.836,8.706,8.706,0,0,1-1.364.259c-1.411.123-1.413.11-1.613,1.5-.018.122-.017.247-.029.37-.359,3.854-.161,7.722-.3,11.582-.026.751-.519,1.67.094,2.221.632.568,1.539-.005,2.326-.035a1.531,1.531,0,0,0,.525-.167.543.543,0,0,0,.362-.591,22.686,22.686,0,0,1,.05-2.86c-.088-1.9-.026-3.8-.026-5.686.433-.031.449.2.533.343.918,1.61,1.6,3.344,2.634,4.893.152.228.246.488.569.563a2.676,2.676,0,0,0,2.842-1.44C-859.686-525.439-858.806-527.269-857.939-529.106Zm-45.964-8.971a25.969,25.969,0,0,0-1.1-5.9c-.383-1.657-1.171-3.2-1.433-4.886a24.04,24.04,0,0,0-1.232-4.173,1.439,1.439,0,0,0-2.021-.913c-.886.272-1.775.538-2.669.781-1.249.339-1.613.887-1.25,2.086,1.056,3.486,2.336,6.9,3.234,10.438.2.785.532,1.625.067,2.33-.731,1.111-2,1.179-3.176,1.141-.9-.029-1.12-.95-1.355-1.589-1.322-3.594-2.561-7.218-3.836-10.829-.258-.73-.78-1.2-1.561-.959a36.449,36.449,0,0,0-3.649,1.347,1.376,1.376,0,0,0-.76,2c1.685,4.276,3.277,8.591,5.2,12.767a5.085,5.085,0,0,0,3.705,3.1,11.145,11.145,0,0,0,9.177-2.072A6.321,6.321,0,0,0-903.9-538.077Zm22.775-7.85c.316.48.506.752.679,1.033.94,1.524,1.888,3.044,2.808,4.58a1.872,1.872,0,0,0,1.9,1.056c.862-.072,1.727-.069,2.588-.205,1.681-.267,2.06-1.018,1.069-2.369-1.189-1.621-2.22-3.341-3.318-5.019a1.015,1.015,0,0,1,.112-1.5,5.377,5.377,0,0,0,1.714-3.7,10.016,10.016,0,0,0-1.214-4.81,5.057,5.057,0,0,0-4.423-2.793,25.277,25.277,0,0,0-8.07.914c-1.145.33-1.638.906-1.528,2.068.178,1.877.516,3.731.878,5.58.285,1.453.662,2.9.8,4.366.237,2.531.843,4.992,1.27,7.485.177,1.035.8,1.374,1.827,1.213q1.1-.172,2.193-.368a1.465,1.465,0,0,0,1.331-1.777c-.179-1.348-.4-2.691-.588-4.037A3.742,3.742,0,0,1-881.128-545.927Zm-15.846-11.014c-2.261.483-4.839.64-7.249,1.637-1.617.669-1.958,1.111-1.587,2.8a44.043,44.043,0,0,0,1.193,4.573c1.281,3.814,2.01,7.774,3.16,11.622.354,1.185.955,1.66,2.177,1.383.754-.171,1.5-.377,2.239-.611a1.455,1.455,0,0,0,1.028-1.9c-.52-1.494-.653-3.081-1.169-4.573-.082-.237-.286-.582.087-.72.305-.113.362.267.5.447q1.8,2.355,3.577,4.722a1.588,1.588,0,0,0,1.605.7,25.317,25.317,0,0,0,3-.552c1.347-.363,1.655-1.109.753-2.2-1.356-1.645-2.732-3.271-3.995-4.992a.874.874,0,0,1-.032-1.268,5.676,5.676,0,0,0,1.448-4.088,11.181,11.181,0,0,0-1.447-4.181C-892.791-556.117-894.589-556.812-896.973-556.941Zm38.468,10.9h-.016c0,1.452-.041,2.906.013,4.356.042,1.13.515,1.57,1.618,1.6.959.027,1.92,0,2.879-.033a1.151,1.151,0,0,0,1.237-1.294c.041-1.73-.021-3.459.082-5.193.158-2.677.188-5.363.22-8.046.008-.664.222-.888.859-.826.708.069,1.421.082,2.13.139,1.523.124,2.095-.375,2.169-1.918.031-.648.055-1.3.087-1.944.055-1.13-.177-1.479-1.292-1.611-1.225-.144-2.461-.234-3.694-.264-3.307-.08-6.614-.11-9.92.076-1.106.062-1.565.529-1.442,1.651a12.113,12.113,0,0,1,0,2.037c-.074,1.281.467,1.872,1.726,1.794a14.8,14.8,0,0,1,2.684-.1c.472.056.686.23.681.767C-858.52-551.911-858.505-548.977-858.505-546.042Zm-59.963,32.96h-.219c-.008.155-.02.309-.024.464-.029,1.166.112,1.306,1.275,1.143,1.1-.155,2.2-.37,3.3-.52a5.789,5.789,0,0,0,4.37-2.82,11.457,11.457,0,0,0,1.092-9.706,4.391,4.391,0,0,0-4.437-3.2c-1.515.118-3,.395-4.506.575-.594.071-.73.484-.745,1-.038,1.357-.038,2.714-.078,4.071C-918.529-519.083-918.468-516.082-918.468-513.082Zm43.725-4.557c.211-.048.481-.118.754-.169s.546-.093.821-.123c.959-.1,1.083-.268.783-1.172-1.4-4.219-2.575-8.5-3.7-12.8-.214-.817-.6-1.237-1.517-1a18.516,18.516,0,0,1-1.921.283c-.8.12-1.07.594-1.271,1.258-.85,2.8-1.741,5.594-2.574,8.4-.579,1.951-1.076,3.926-1.637,5.883-.223.777.075.964.778.811a7.066,7.066,0,0,1,1.447-.285.96.96,0,0,0,1.1-.964c.215-1.476.761-2.654,2.557-2.591a2.012,2.012,0,0,0,.451-.1c2.268-.475,2.268-.475,2.967,1.7.038.118.083.233.119.351C-875.469-517.763-875.183-517.633-874.742-517.639Zm-31.862,1.451c0,.432-.012.865,0,1.3.064,1.945.063,1.923,2.055,1.579a.917.917,0,0,0,.885-1.054c.015-1.417.089-2.833.122-4.25a.658.658,0,0,1,.637-.745.661.661,0,0,1,.855.47c.334.9.673,1.8,1.091,2.654,1.2,2.463.57,2.313,3.358,1.893.777-.117.98-.4.545-1.092a47.179,47.179,0,0,1-2.154-4.294.848.848,0,0,1,.207-1.2,5.28,5.28,0,0,0,1.785-5c-.262-2.13-1.286-3.444-2.933-3.483a20.883,20.883,0,0,0-4.965.553,1.372,1.372,0,0,0-1.212,1.471C-906.512-523.658-906.312-519.916-906.6-516.188Zm-18.13-23.756c-.136-3.768-2.487-6.668-6.572-5.924a27.249,27.249,0,0,0-7.625,3.034c-2.06,1.072-2.121,1.456-1.057,3.543.056.11.1.226.156.337q3.435,7.03,6.876,14.057c.725,1.47,1.423,1.692,2.927,1.029,1.725-.76,3.445-1.53,5.169-2.292,5.456-2.409,5.058-8.5,1.509-11.334C-924.32-538.267-925.415-538.653-924.735-539.944Zm96.45-9.82c0-.464.034-.93-.006-1.39a10.631,10.631,0,0,0-3.372-7.01c-1.357-1.289-3.134-1.443-4.841-1.864a8.193,8.193,0,0,0-6.073.752,9.983,9.983,0,0,0-5.082,6.953,13.239,13.239,0,0,0,1.291,9.181,7.676,7.676,0,0,0,2.576,2.96,9.669,9.669,0,0,0,7.026,1.371,7.838,7.838,0,0,0,4.562-1.9C-829.77-543.174-828.009-546.068-828.285-549.764Zm-66.649,27.711c0,2.1.018,4.2-.009,6.293-.009.744.236.984,1,.861,1.978-.321,3.967-.572,5.95-.861.443-.064,1.072.016,1.161-.545a5.4,5.4,0,0,0-.038-2.376c-.058-.2-.318-.128-.5-.1-.854.127-1.715.222-2.562.388-1.955.382-1.97.379-1.779-1.636.155-1.63.155-1.63,1.8-1.834,1.82-.225,1.82-.225,1.861-2.044,0-.093,0-.186,0-.278.022-.519-.211-.744-.736-.656-.7.116-1.4.222-2.105.335-.5.081-.759-.075-.71-.64a17.793,17.793,0,0,0,.072-1.943c-.014-.6.179-.885.827-.947,1.2-.114,2.383-.347,3.579-.482.58-.066.869-.329.786-.894a6.646,6.646,0,0,1,.088-1.474c.037-.518-.151-.76-.7-.679-2.229.334-4.457.67-6.689.983a.919.919,0,0,0-.91,1.035A58.025,58.025,0,0,1-894.933-522.052Zm45.418.8c3.513-.15,5.231-1.474,5.891-4.292.415-1.771-.288-4.653-2.855-5.045-.518-.079-1.049-.074-1.57-.142a1.572,1.572,0,0,1-1.525-1.376,1.729,1.729,0,0,1,1-1.914,2.609,2.609,0,0,1,2.327-.083c.337.14.631.243.924-.079.375-.411.769-.8,1.147-1.213a.762.762,0,0,0-.174-1.313,4.48,4.48,0,0,0-2.333-.81c-3.579-.061-5.426,2.1-5.86,5.21-.287,2.064.531,3.912,2.568,4.288.452.083.924.048,1.384.09a2.116,2.116,0,0,1,1.986,1.263,1.462,1.462,0,0,1-.483,1.749,2.215,2.215,0,0,1-2.668.324,1.118,1.118,0,0,0-1.842.392,6.04,6.04,0,0,1-.64.793c-.316.348-.259.631.053.961A3.879,3.879,0,0,0-849.515-521.249ZM-865.253-558.2c0-.488,0-.8,0-1.107-.014-1.424-.361-1.753-1.786-1.664-1.111.069-2.221.142-3.329.24a1.261,1.261,0,0,0-1.254,1.582c.467,3,.376,6.037.656,9.05.277,2.982.489,5.97.722,8.956a1.274,1.274,0,0,0,1.393,1.285c.966.056,1.909-.145,2.866-.183,1.186-.047,1.676-.582,1.592-1.778-.045-.645-.245-1.284-.253-1.927C-864.709-548.624-864.959-553.5-865.253-558.2Zm22.427-14.561a2.34,2.34,0,0,0,1.772-1.133c.965-1.354,1.878-2.746,2.781-4.143a25.049,25.049,0,0,0,1.849-2.988,1.338,1.338,0,0,0-.514-1.856c-.673-.422-1.242-.078-1.711.443a6.422,6.422,0,0,0-.5.667q-1.365,1.981-2.723,3.967c-.626.918-1.257,1.833-1.853,2.771a1.5,1.5,0,0,0-.134,1.659A1.261,1.261,0,0,0-842.826-572.757Zm-91.005,11.566a1.777,1.777,0,0,0-.566-1.014c-.887-.858-1.751-1.74-2.642-2.595q-1.936-1.857-3.9-3.684a1.144,1.144,0,0,0-1.669-.053,1.244,1.244,0,0,0-.254,1.742,2.934,2.934,0,0,0,.388.516c1.563,1.62,3.112,3.255,4.707,4.842a5.463,5.463,0,0,0,2.256,1.572A1.337,1.337,0,0,0-933.831-561.192Zm-12.448,12.742c1.808-.355,3.563-.68,5.309-1.048a11.7,11.7,0,0,0,3.422-1.069c.53-.3,1.167-.753.9-1.43-.226-.58-.954-.584-1.549-.539a46.251,46.251,0,0,0-5.168.946c-1.058.2-2.117.419-3.155.7a1,1,0,0,0-.827,1.25C-947.2-549.065-946.934-548.529-946.279-548.449Zm113.143-16.419c.9,0,1.794-.017,2.69,0,1.083.025,1.439-.234,1.5-1.148s-.293-1.229-1.38-1.276c-2.1-.091-4.2-.218-6.3-.26a7.591,7.591,0,0,0-2.479.241c-.782.249-.937.761-.408,1.38a2.177,2.177,0,0,0,1.215.623A23.7,23.7,0,0,0-833.136-564.868Zm-4.1,36.344a2.273,2.273,0,0,0,2.3-1.306,1.7,1.7,0,0,0-.087-1.92,2.157,2.157,0,0,0-2.357-.622c-.061.012-.122.02-.182.035a1.9,1.9,0,0,0-1.694,1.974A1.978,1.978,0,0,0-837.238-528.525Zm-88.073,8.987c-1.6.007-2.655.831-2.678,2.089a2.3,2.3,0,0,0,2.208,1.873,2.32,2.32,0,0,0,2.4-2.3A1.718,1.718,0,0,0-925.31-519.538Zm91.27-53.844a1.164,1.164,0,0,0-1.852-.8,10.55,10.55,0,0,0-2.156,1.592.783.783,0,0,0-.158,1.079c.253.409.551.776,1.114.627a5.99,5.99,0,0,0,2.614-1.522A1.628,1.628,0,0,0-834.04-573.382Zm-107.582,15.417c-.472.094-.945.155-1.135.682a1.088,1.088,0,0,0,.345,1.262,4.783,4.783,0,0,0,3.313.908.867.867,0,0,0,.791-.788c.078-.417.069-.829-.352-1.06A10.359,10.359,0,0,0-941.622-557.964Z" transform="translate(968.599 608.756)" fill="#ea6527"/>
          </g>
        </g>
        <rect id="Rectangle_2" data-name="Rectangle 2" width="114.261" height="8.051" transform="translate(24.31 62.028)" fill="#ea6527"/>
        <rect id="Rectangle_3" data-name="Rectangle 3" width="79.931" height="16.423" transform="translate(62.653 50.791)" fill="#ea6527"/>
        <rect id="Rectangle_4" data-name="Rectangle 4" width="61.219" height="6.039" transform="translate(79.768 48.942)" fill="#ea6527"/>
        <rect id="Rectangle_5" data-name="Rectangle 5" width="40.495" height="2.837" transform="translate(91.857 46.968)" fill="#ea6527"/>
        <rect id="Rectangle_6" data-name="Rectangle 6" width="42.225" height="5.698" transform="translate(21.219 72.563)" fill="#ea6527"/>
        <rect id="Rectangle_7" data-name="Rectangle 7" width="49.329" height="11.155" transform="translate(40.611 61.408)" fill="#ea6527"/>
        <rect id="Rectangle_8" data-name="Rectangle 8" width="9.304" height="9.304" transform="translate(66.88 66.986)" fill="#ea6527"/>
        <rect id="Rectangle_9" data-name="Rectangle 9" width="22.412" height="16.951" transform="translate(22.805 67.214)" fill="#ea6527"/>
        <rect id="Rectangle_10" data-name="Rectangle 10" width="2.664" transform="translate(45.217 75.412)" fill="#374399"/>
        <rect id="Rectangle_11" data-name="Rectangle 11" width="6.757" height="5.022" transform="translate(42.331 77.652)" fill="#ea6527"/>
        <rect id="Rectangle_12" data-name="Rectangle 12" width="6.392" height="4.834" transform="translate(39.641 82.331) rotate(99.371)" fill="#ea6527"/>
        <rect id="Rectangle_13" data-name="Rectangle 13" height="0.404" transform="translate(40.703 81.02) rotate(180)" fill="#374399"/>
        <rect id="Rectangle_14" data-name="Rectangle 14" width="3.79" height="5.253" transform="translate(37.905 81.02)" fill="#ea6527"/>
        <rect id="Rectangle_15" data-name="Rectangle 15" width="12.885" height="1.999" transform="translate(57.83 71.638)" fill="#374399"/>
        <rect id="Rectangle_16" data-name="Rectangle 16" width="8.669" height="10.596" transform="translate(60.136 66.053)" fill="#ea6527"/>
        <rect id="Rectangle_17" data-name="Rectangle 17" width="33.135" height="7.719" transform="translate(41.695 59.267)" fill="#ea6527"/>
        <rect id="Rectangle_18" data-name="Rectangle 18" width="9.579" height="8.435" transform="translate(53.156 54.691)" fill="#ea6527"/>
        <rect id="Rectangle_19" data-name="Rectangle 19" width="6.906" height="4.518" transform="translate(44.854 58.344)" fill="#ea6527"/>
        <rect id="Rectangle_20" data-name="Rectangle 20" width="4.507" height="3.937" transform="translate(45.71 56.665)" fill="#ea6527"/>
      </g>
      <rect id="Rectangle_21" data-name="Rectangle 21" width="5.892" height="5.892" transform="translate(130.243 47.775)" fill="#ea6527"/>
      <path id="Tracé_2" data-name="Tracé 2" d="M-205.941,303.642a6.178,6.178,0,0,1-2.6,4.564,10.892,10.892,0,0,1-8.969,2.025,4.969,4.969,0,0,1-3.621-3.033c-1.88-4.081-3.435-8.3-5.082-12.477a1.345,1.345,0,0,1,.743-1.952,35.629,35.629,0,0,1,3.566-1.316c.764-.234,1.274.223,1.526.937,1.246,3.529,2.456,7.071,3.748,10.583.23.625.446,1.525,1.324,1.553,1.15.037,2.389-.03,3.1-1.115.454-.689.129-1.511-.066-2.277-.878-3.456-2.129-6.794-3.161-10.2-.355-1.171,0-1.707,1.222-2.039.874-.238,1.743-.5,2.609-.763a1.406,1.406,0,0,1,1.975.892,23.505,23.505,0,0,1,1.2,4.078c.256,1.65,1.026,3.156,1.4,4.775A25.379,25.379,0,0,1-205.941,303.642Zm-9.268,5.215a9.281,9.281,0,0,0,5.849-2.046,4.506,4.506,0,0,0,1.709-4.4c-.531-3.73-1.952-7.221-2.849-10.853-.449-1.82-.6-1.725-2.417-1.349-.845.175-1.037.439-.725,1.247a87.9,87.9,0,0,1,2.934,9.418c.382,1.459.754,2.947-.738,4.144a6.073,6.073,0,0,1-3.648,1.13,2.4,2.4,0,0,1-2.376-1.34,29.451,29.451,0,0,1-1.869-4.6c-.636-1.691-1.025-3.468-1.739-5.135-.872-2.035-.86-2.021-2.931-1.184-.563.228-.605.465-.39,1.013.86,2.192,1.778,4.367,2.564,6.582.609,1.716,1.417,3.333,2.122,5C-218.9,308.385-217.182,308.941-215.209,308.857Z" transform="translate(271.808 -233.12)" fill="#fff"/>
      <path id="Tracé_3" data-name="Tracé 3" d="M355.5,211.8a3.656,3.656,0,0,0,.023,1.676c.188,1.316.4,2.628.574,3.945a1.432,1.432,0,0,1-1.3,1.737q-1.07.19-2.144.36c-1.007.157-1.612-.174-1.786-1.185-.418-2.437-1.009-4.841-1.241-7.315-.135-1.434-.5-2.847-.782-4.267-.354-1.807-.684-3.619-.858-5.454-.108-1.136.375-1.7,1.493-2.021a24.7,24.7,0,0,1,7.887-.893,4.942,4.942,0,0,1,4.323,2.729,9.789,9.789,0,0,1,1.187,4.7,5.255,5.255,0,0,1-1.675,3.615.992.992,0,0,0-.11,1.469c1.073,1.64,2.081,3.321,3.243,4.9.969,1.32.6,2.054-1.045,2.315-.842.134-1.687.13-2.529.2a1.829,1.829,0,0,1-1.852-1.032c-.9-1.5-1.826-2.986-2.744-4.476C355.992,212.537,355.807,212.272,355.5,211.8Zm.832-11.877c-1.959.255-4.123.167-6.194.841-.411.134-.63.271-.553.74.138.832.185,1.683.37,2.5.935,4.152,1.362,8.392,2.216,12.558.281,1.369.2,1.372,1.561,1.144.527-.089.795-.228.674-.875-.253-1.364-.4-2.747-.6-4.121-.36-2.5-.272-2.082,1.829-2.414a.927.927,0,0,1,1.163.526c.738,1.387,1.725,2.62,2.444,4.028.561,1.1,1.166,2.332,2.826,1.843.222-.065.527.022.622-.264.086-.257-.117-.446-.266-.639-1.272-1.657-2.288-3.48-3.417-5.229-.407-.63-.282-.971.223-1.438,2.3-2.13,2.568-3.465,1.461-6.4C359.979,200.843,358.659,199.975,356.33,199.926Z" transform="translate(-267.372 -148.952)" fill="#fff"/>
      <path id="Tracé_4" data-name="Tracé 4" d="M83.5,242.1c2.33.125,4.087.805,5.164,2.732a10.926,10.926,0,0,1,1.414,4.086,5.547,5.547,0,0,1-1.415,3.995.854.854,0,0,0,.032,1.239c1.234,1.681,2.579,3.271,3.9,4.878.881,1.069.58,1.8-.736,2.153a24.741,24.741,0,0,1-2.929.54,1.552,1.552,0,0,1-1.569-.683q-1.745-2.31-3.5-4.615c-.134-.176-.189-.547-.487-.437-.364.135-.165.472-.085.7.5,1.458.634,3.009,1.143,4.469a1.422,1.422,0,0,1-1,1.858c-.721.228-1.452.429-2.189.6-1.193.271-1.781-.193-2.127-1.351-1.124-3.761-1.836-7.631-3.089-11.358a43.062,43.062,0,0,1-1.166-4.469c-.364-1.652-.03-2.084,1.551-2.738C78.775,242.724,81.294,242.571,83.5,242.1Zm4.95,7.175a7.713,7.713,0,0,0-.918-3.2,3.709,3.709,0,0,0-3.861-2.313,24.232,24.232,0,0,0-6.718,1.434c-.494.2-.614.422-.489.953.454,1.938.993,3.85,1.569,5.755.933,3.09,1.552,6.266,2.5,9.356.2.65.534.881,1.107.615.481-.222,1.374-.081,1.049-1.159-.435-1.443-.756-2.92-1.106-4.388-.359-1.5-.35-1.506,1.072-1.964.173-.056.346-.108.519-.166a1.149,1.149,0,0,1,1.46.525c1.082,1.523,2.305,2.95,3.324,4.512a1.76,1.76,0,0,0,2.222.739c.913-.22,1-.349.35-.984-1.433-1.409-2.375-3.206-3.748-4.655-.647-.683-.53-1.163.1-1.8A4.5,4.5,0,0,0,88.454,249.274Z" transform="translate(-10.865 -190.012)" fill="#fff"/>
      <path id="Tracé_5" data-name="Tracé 5" d="M755.782,189.867c0-2.868-.014-5.736.013-8.6.005-.525-.2-.695-.666-.75a14.467,14.467,0,0,0-2.623.1c-1.23.076-1.759-.5-1.687-1.753a11.842,11.842,0,0,0,0-1.99c-.12-1.1.329-1.553,1.409-1.614,3.231-.182,6.463-.153,9.7-.075,1.205.029,2.413.117,3.61.258,1.09.128,1.316.469,1.263,1.574-.031.633-.054,1.267-.084,1.9-.072,1.508-.631,2-2.12,1.875-.693-.056-1.39-.069-2.081-.136-.622-.061-.831.158-.839.807-.031,2.622-.06,5.247-.215,7.863-.1,1.694-.039,3.384-.08,5.075a1.125,1.125,0,0,1-1.209,1.265c-.937.033-1.877.058-2.813.032-1.078-.03-1.54-.461-1.581-1.565-.053-1.417-.013-2.838-.013-4.257Zm2.124-13.117c-1.441,0-2.742-.038-4.04.01-1.439.053-1.425.094-1.416,1.511,0,.536.229.675.719.653.663-.029,1.329-.027,1.992,0,2.388.1,2.339.1,2.229,2.482-.091,1.953-.05,3.912-.064,5.869-.012,1.689.039,3.381-.042,5.067-.084,1.75.059,1.922,1.8,1.722.5-.058.776-.186.737-.76a39.832,39.832,0,0,1,.056-4.074q.168-4.661.223-9.326c.008-.707.269-.889.906-.856.874.045,1.752.025,2.627.056,1.5.053,1.5.061,1.56-1.412.021-.509-.163-.786-.731-.78C762.228,176.934,760,176.528,757.906,176.749Z" transform="translate(-645.547 -127.129)" fill="#fff"/>
      <path id="Tracé_6" data-name="Tracé 6" d="M-464.054,422.9c-.664,1.262.406,1.639,1.351,2.394,3.468,2.772,3.857,8.723-1.475,11.077-1.685.744-3.366,1.5-5.051,2.239-1.469.648-2.152.431-2.86-1.006q-3.38-6.859-6.72-13.738c-.053-.109-.1-.221-.152-.329-1.04-2.04-.98-2.415,1.034-3.463a26.632,26.632,0,0,1,7.451-2.965C-466.485,416.382-464.186,419.215-464.054,422.9Zm-1.586-.348c-.2-2.308-1.451-4.193-4.17-3.889-2.84.318-5.227,1.779-7.706,3.01-.441.219-.324.523-.153.907,1.1,2.482,2.386,4.873,3.584,7.308,1.105,2.247,2.072,4.561,3.29,6.754.286.515.536.709,1.128.429,1.856-.88,3.755-1.669,5.6-2.573a4.325,4.325,0,0,0,2.252-4.727,4.137,4.137,0,0,0-3.712-3.8c-.891-.123-1.179-.7-.7-1.467A3.212,3.212,0,0,0-465.639,422.55Z" transform="translate(509.561 -354.2)" fill="#fff"/>
      <path id="Tracé_7" data-name="Tracé 7" d="M1019.3,198.76c.27,3.612-1.451,6.44-3.83,8.851a7.66,7.66,0,0,1-4.459,1.853,9.45,9.45,0,0,1-6.866-1.34,7.5,7.5,0,0,1-2.517-2.893,12.936,12.936,0,0,1-1.262-8.972,9.757,9.757,0,0,1,4.966-6.8,8.008,8.008,0,0,1,5.935-.735c1.668.411,3.4.562,4.731,1.822a10.39,10.39,0,0,1,3.3,6.851C1019.334,197.851,1019.3,198.307,1019.3,198.76Zm-17.545-.071a10.96,10.96,0,0,0,1.638,6.375,5.189,5.189,0,0,0,1.65,1.774c2.8,1.974,8.777,1.386,10.937-2.223a10.734,10.734,0,0,0,1.1-9.684c-.725-1.992-1.931-3.679-4.249-4.223a17.444,17.444,0,0,1-1.94-.406c-2.536-.911-4.637.116-6.39,1.724A8.179,8.179,0,0,0,1001.756,198.689Z" transform="translate(-879.532 -139.659)" fill="#fff"/>
      <path id="Tracé_8" data-name="Tracé 8" d="M628.545,180.323c.287,4.59.531,9.355.592,14.128.008.629.2,1.253.247,1.883.082,1.169-.4,1.691-1.556,1.738-.935.037-1.857.233-2.8.178a1.245,1.245,0,0,1-1.362-1.256c-.228-2.918-.435-5.839-.705-8.753-.274-2.944-.185-5.914-.641-8.845a1.232,1.232,0,0,1,1.226-1.546c1.083-.1,2.168-.167,3.254-.235,1.393-.087,1.732.235,1.745,1.626C628.548,179.543,628.545,179.845,628.545,180.323Zm-1.265,7.209c.062-2.617-.3-5.1-.346-7.607-.008-.41-.106-.811-.592-.666-.761.227-1.695-.321-2.3.514a.4.4,0,0,0-.009.267,35.045,35.045,0,0,1,.262,3.874c.283,3.635.57,7.271.815,10.909.138,2.059-.182,1.96,1.946,1.69.555-.07.741-.237.661-.784C627.309,192.974,627.587,190.184,627.28,187.532Z" transform="translate(-524.906 -129.463)" fill="#fff"/>
      <path id="Tracé_9" data-name="Tracé 9" d="M-186.8,339.006c-1.974.084-3.694-.472-4.5-2.381-.705-1.663-1.513-3.28-2.122-5-.786-2.215-1.7-4.389-2.564-6.582-.215-.548-.173-.786.39-1.013,2.071-.837,2.059-.851,2.931,1.184.715,1.667,1.1,3.444,1.739,5.135a29.455,29.455,0,0,0,1.869,4.6,2.4,2.4,0,0,0,2.376,1.34,6.072,6.072,0,0,0,3.648-1.13c1.493-1.2,1.12-2.686.738-4.144a87.912,87.912,0,0,0-2.934-9.418c-.312-.808-.12-1.072.725-1.247,1.815-.375,1.968-.471,2.417,1.349.9,3.632,2.318,7.124,2.849,10.853a4.506,4.506,0,0,1-1.709,4.4A9.28,9.28,0,0,1-186.8,339.006Z" transform="translate(243.403 -263.269)" fill="#ec6527"/>
      <path id="Tracé_10" data-name="Tracé 10" d="M380.851,223.919c2.329.048,3.649.916,4.363,2.807,1.107,2.931.84,4.265-1.461,6.4-.5.467-.629.809-.223,1.438,1.13,1.75,2.145,3.573,3.417,5.229.149.193.351.382.266.639-.095.286-.4.2-.622.264-1.661.489-2.266-.746-2.826-1.843-.719-1.408-1.707-2.641-2.444-4.028a.927.927,0,0,0-1.163-.526c-2.1.333-2.189-.085-1.829,2.414.2,1.374.344,2.757.6,4.121.12.647-.147.787-.674.875-1.36.228-1.28.225-1.561-1.144-.854-4.166-1.281-8.407-2.216-12.558-.185-.821-.232-1.671-.37-2.5-.078-.469.142-.606.553-.74C376.727,224.086,378.892,224.174,380.851,223.919Zm-2.033,8.753c.479-.053.961-.086,1.436-.163a3.67,3.67,0,0,0,3.2-3.192,3.5,3.5,0,0,0-3.077-3.457,18.608,18.608,0,0,0-2.416.115c-.722-.056-.977.355-1.059.948a4.157,4.157,0,0,0,.064,1.435,30.764,30.764,0,0,1,.609,3.278C377.657,232.491,377.938,232.874,378.818,232.672Z" transform="translate(-291.893 -172.945)" fill="#ec6527"/>
      <path id="Tracé_11" data-name="Tracé 11" d="M114.325,274.479a4.5,4.5,0,0,1-1.565,3.262c-.634.638-.75,1.118-.1,1.8,1.372,1.449,2.315,3.245,3.748,4.655.645.634.563.764-.35.984a1.76,1.76,0,0,1-2.222-.739c-1.019-1.562-2.242-2.989-3.324-4.512a1.149,1.149,0,0,0-1.46-.524c-.172.057-.346.11-.519.166-1.422.458-1.431.46-1.072,1.964.351,1.467.672,2.945,1.106,4.388.325,1.078-.569.936-1.049,1.159-.573.265-.908.034-1.107-.616-.947-3.089-1.565-6.265-2.5-9.356-.575-1.906-1.115-3.817-1.569-5.755-.124-.531,0-.758.489-.953a24.235,24.235,0,0,1,6.718-1.434,3.709,3.709,0,0,1,3.861,2.314A7.713,7.713,0,0,1,114.325,274.479Zm-2.387-.1a3.037,3.037,0,0,0-1.773-2.926,4.77,4.77,0,0,0-3.778-.169c-1.078.306-1.365.58-1.116,1.678.352,1.554.814,3.083,1.216,4.626.084.321.259.484.579.419a9.807,9.807,0,0,0,2.882-.73A3.336,3.336,0,0,0,111.937,274.378Z" transform="translate(-36.735 -215.217)" fill="#ec6527"/>
      <path id="Tracé_12" data-name="Tracé 12" d="M783.109,200.8c2.1-.222,4.322.185,6.557.161.569-.006.753.271.731.78-.062,1.473-.061,1.465-1.56,1.412-.875-.031-1.753-.011-2.627-.056-.637-.033-.9.15-.905.856q-.054,4.664-.223,9.326a39.814,39.814,0,0,0-.055,4.074c.038.574-.236.7-.737.76-1.743.2-1.886.028-1.8-1.722.081-1.686.03-3.378.042-5.067.014-1.956-.027-3.916.064-5.869.111-2.381.159-2.385-2.229-2.482-.663-.027-1.329-.03-1.992,0-.489.022-.715-.117-.719-.653-.01-1.416-.024-1.458,1.415-1.511C780.367,200.759,781.668,200.8,783.109,200.8Z" transform="translate(-670.751 -151.175)" fill="#ec6527"/>
      <path id="Tracé_13" data-name="Tracé 13" d="M-437.952,447.618a3.211,3.211,0,0,1-.595,1.956c-.475.769-.186,1.344.7,1.467a4.137,4.137,0,0,1,3.712,3.8,4.325,4.325,0,0,1-2.252,4.727c-1.843.9-3.742,1.693-5.6,2.573-.591.28-.842.086-1.128-.429-1.218-2.194-2.185-4.507-3.29-6.754-1.2-2.434-2.481-4.826-3.584-7.308-.171-.384-.288-.688.153-.907,2.479-1.231,4.866-2.692,7.706-3.01C-439.4,443.425-438.155,445.31-437.952,447.618Zm-2,5.055a3.313,3.313,0,0,0-.863.153c-.58.147-1.257.61-2,.872a1.051,1.051,0,0,0-.671,1.586c.521,1.186,1.07,2.36,1.612,3.536a1.12,1.12,0,0,0,1.71.575c.627-.294,1.266-.563,1.9-.842a2.819,2.819,0,0,0,1.719-3.234A3.212,3.212,0,0,0-439.949,452.673Zm-3.494-6.877a6.4,6.4,0,0,0-2.883,1.184,1.1,1.1,0,0,0-.362,1.455c.46,1.048.955,2.081,1.458,3.11a.811.811,0,0,0,1.2.422c.653-.309,1.336-.563,1.963-.916a3.024,3.024,0,0,0,1.639-3.322C-440.779,446.484-441.754,445.791-443.442,445.8Z" transform="translate(481.873 -379.268)" fill="#ec6527"/>
      <path id="Tracé_14" data-name="Tracé 14" d="M1027.234,221.667A8.18,8.18,0,0,1,1029.98,215c1.752-1.608,3.854-2.634,6.39-1.724a17.434,17.434,0,0,0,1.94.406c2.318.544,3.524,2.231,4.249,4.223a10.734,10.734,0,0,1-1.1,9.684c-2.16,3.609-8.136,4.2-10.937,2.223a5.186,5.186,0,0,1-1.65-1.774A10.961,10.961,0,0,1,1027.234,221.667Zm2.714.161a10.479,10.479,0,0,0,.709,3.71,4.664,4.664,0,0,0,7.385,1.718,7.61,7.61,0,0,0,1.785-8.476,5.329,5.329,0,0,0-6.8-2.425A5.812,5.812,0,0,0,1029.947,221.828Z" transform="translate(-905.01 -162.637)" fill="#ec6527"/>
      <path id="Tracé_15" data-name="Tracé 15" d="M653.568,212.476c.306,2.652.028,5.442.432,8.2.08.547-.106.713-.661.784-2.128.27-1.808.368-1.946-1.69-.245-3.638-.531-7.273-.815-10.909a35.017,35.017,0,0,0-.262-3.874.4.4,0,0,1,.009-.267c.61-.835,1.544-.287,2.3-.514.486-.145.584.256.592.666C653.268,207.371,653.63,209.859,653.568,212.476Z" transform="translate(-551.193 -154.407)" fill="#ec6527"/>
      <path id="Tracé_16" data-name="Tracé 16" d="M156.326,259.445a3.336,3.336,0,0,1-1.991,2.9,9.808,9.808,0,0,1-2.882.73c-.32.066-.5-.1-.579-.419-.4-1.543-.864-3.072-1.216-4.626-.248-1.1.039-1.372,1.116-1.678a4.77,4.77,0,0,1,3.778.169A3.037,3.037,0,0,1,156.326,259.445ZM152.6,257.63c-1.237-.017-1.459.268-1.091,1.395a10.369,10.369,0,0,1,.346,1.126c.308,1.508.671,1.295,1.808.756a1.591,1.591,0,0,0,.311-2.893A2.277,2.277,0,0,0,152.6,257.63Zm20.043-.737a3.4,3.4,0,0,1-2.288,2.738,9.7,9.7,0,0,1-2.952.446c-.326.034-.484-.15-.534-.484-.241-1.608-.543-3.207-.732-4.821-.134-1.14.181-1.389,1.288-1.59a4.71,4.71,0,0,1,3.752.558A3.105,3.105,0,0,1,172.643,256.893Z" transform="translate(-81.124 -200.284)" fill="#fff"/>
      <path id="Tracé_18" data-name="Tracé 18" d="M1072.209,267.31a5.812,5.812,0,0,1,3.084-5.473,5.329,5.329,0,0,1,6.8,2.425,7.61,7.61,0,0,1-1.785,8.476,4.664,4.664,0,0,1-7.385-1.718A10.487,10.487,0,0,1,1072.209,267.31Zm4.919-4.249c-.858-.215-1.5.369-2.086.984a5.985,5.985,0,0,0-.105,7.209,3.058,3.058,0,0,0,4.629,0,6.427,6.427,0,0,0,1.528-3.514C1081.38,264.905,1079.869,263.092,1077.128,263.061Z" transform="translate(-947.271 -208.119)" fill="#fff"/>
      <path id="Tracé_19" data-name="Tracé 19" d="M-365.4,503.477c.706.059,1.267.228,1.26,1.038-.005.622-1.3,1.789-1.96,1.795-.217,0-1.3-1.631-1.166-1.905C-366.894,503.613-366.051,503.673-365.4,503.477Z" transform="translate(404.092 -435.389)" fill="#ec6527"/>
      <path id="Tracé_20" data-name="Tracé 20" d="M1101.322,288.037c2.741.031,4.253,1.844,3.965,4.676a6.429,6.429,0,0,1-1.528,3.514,3.058,3.058,0,0,1-4.629,0,5.985,5.985,0,0,1,.105-7.209C1099.819,288.407,1100.464,287.823,1101.322,288.037Z" transform="translate(-971.466 -233.096)" fill="#ec6527"/>
      <path id="Tracé_21" data-name="Tracé 21" d="M440.079,270.531a2.706,2.706,0,0,1,2.1.528,2.091,2.091,0,0,1,.748,2.555c-.486.876-2.343,1.793-3.068,1.526a.508.508,0,0,1-.348-.414c-.225-1.092-.5-2.176-.664-3.277C438.653,270.147,439.727,270.64,440.079,270.531Z" transform="translate(-352.663 -216.674)" fill="#ec6527"/>
      <path id="Tracé_22" data-name="Tracé 22" d="M-347.7,585.072a3.624,3.624,0,0,1,3.87,2.892,3.059,3.059,0,0,1-1.954,3.536c-.721.305-1.447.6-2.16.92a1.292,1.292,0,0,1-1.945-.629c-.616-1.286-1.24-2.57-1.833-3.866a1.138,1.138,0,0,1,.763-1.733C-349.874,585.825-348.917,585.1-347.7,585.072Zm-.056,1.728a3.424,3.424,0,0,0-1.887.822c-.465.451.335.906.382,1.412a.606.606,0,0,0,.084.18c.732,1.512.716,1.478,2.305.832.893-.363,1.5-.811,1.247-1.844C-345.857,587.255-346.476,586.815-347.76,586.8Z" transform="translate(389.644 -511.989)" fill="#fff"/>
      <path id="Tracé_23" data-name="Tracé 23" d="M-319.283,608.151a2.933,2.933,0,0,1,1.819.2,2.043,2.043,0,0,1,.206,3.729c-1.328.918-1.744,1.264-2.446-.583a13.3,13.3,0,0,0-.671-1.354C-321.076,608.794-320.854,608.387-319.283,608.151Z" transform="translate(360.413 -533.604)" fill="#ec6527"/>
      <path id="Tracé_24" data-name="Tracé 24" d="M169.534,319.465a2.932,2.932,0,0,1,1.762.493,2.043,2.043,0,0,1-.4,3.714c-1.459.691-1.925.966-2.32-.97a13.314,13.314,0,0,0-.444-1.445C167.66,319.811,167.945,319.445,169.534,319.465Z" transform="translate(-98.351 -262.642)" fill="#ec6527"/>
      <path id="Tracé_6355" data-name="Tracé 6355" d="M-348.5,585.072a2.933,2.933,0,0,1,3.132,2.341,2.475,2.475,0,0,1-1.581,2.861c-.583.247-1.171.485-1.748.745a1.046,1.046,0,0,1-1.574-.509c-.5-1.041-1-2.08-1.483-3.129a.921.921,0,0,1,.618-1.4A8.827,8.827,0,0,1-348.5,585.072Zm-.045,1.4a2.771,2.771,0,0,0-1.527.665c-.376.365.271.733.309,1.142a.49.49,0,0,0,.068.146c.592,1.223.58,1.2,1.866.673.722-.294,1.212-.657,1.009-1.492C-347.007,586.839-347.508,586.482-348.547,586.47Z" transform="translate(386.653 -518.624)" fill="#fff"/>
    </g>
    <path id="Tracé_25" data-name="Tracé 25" d="M569.241-100.431a8.392,8.392,0,0,1,1.7-3.066,14.525,14.525,0,0,1,3.565-3.417,1.082,1.082,0,0,1,.858-.307c.45.1.112.372.029.553C574.286-104.265,571.933-102.294,569.241-100.431Z" transform="translate(-475.099 137.94)" fill="#ea6527"/>
    <path id="Tracé_26" data-name="Tracé 26" d="M412.7-86.828a4.532,4.532,0,0,1-1.422,3.282,3.374,3.374,0,0,1-1.592.935c-.461.123-.779.1-.5-.3A20.666,20.666,0,0,1,412.7-86.828Z" transform="translate(-324.744 118.779)" fill="#ea6527"/>
    <path id="Tracé_27" data-name="Tracé 27" d="M-112.989,760.2c0-2.446.02-4.892-.011-7.338-.011-.823.337-1.166,1.127-1.256a3.439,3.439,0,0,1,4,2.809,10.853,10.853,0,0,1-.379,6.016,4.646,4.646,0,0,1-4.04,2.945c-.757.042-1.055-.24-1.021-.986.033-.729.007-1.46.007-2.19Z" transform="translate(165.676 -668.301)" fill="#ea6527"/>
    <path id="Tracé_28" data-name="Tracé 28" d="M471.5,678.648q.8,3.092,1.6,6.185c.124.484-.2.647-.582.714-.861.15-1.723.293-2.589.412-.422.058-.74-.088-.6-.6.607-2.24,1.228-4.475,1.844-6.713Z" transform="translate(-381.275 -599.837)" fill="#ea6527"/>
    <path id="Tracé_29" data-name="Tracé 29" d="M85.727,720.864a2.485,2.485,0,0,1,2.1,1.256,2.644,2.644,0,0,1-.186,2.826,3.5,3.5,0,0,1-1.746,1.379c-1.816.665-2.235.385-2.236-1.5,0-.674-.024-1.348-.024-2.023C83.637,721.131,83.9,720.87,85.727,720.864Z" transform="translate(-19.223 -639.469)" fill="#ea6527"/>
    <path id="Tracé_30" data-name="Tracé 30" d="M1162.086,654.388c-.632-.031-1.238-.249-1.239-.969a1.111,1.111,0,0,1,1.264-1.162c.737.025,1.3.435,1.276,1.169C1163.369,654.122,1162.749,654.351,1162.086,654.388Z" transform="translate(-1030.489 -575.061)" fill="#ea6527"/>
    <path id="Tracé_31" data-name="Tracé 31" d="M-286.261,865.736c-.632-.031-1.238-.249-1.239-.969a1.111,1.111,0,0,1,1.264-1.161c.737.025,1.3.435,1.276,1.169C-284.978,865.469-285.6,865.7-286.261,865.736Z" transform="translate(329.195 -773.471)" fill="#ea6527"/>
  </g>
</svg>
