<svg xmlns="http://www.w3.org/2000/svg" width="300.125" height="222.536" viewBox="0 0 300.125 222.536">
  <g id="Groupe_488" data-name="Groupe 488" transform="translate(-1362.676 -2537.877) rotate(-25)">
    <path id="Tracé_6423" data-name="Tracé 6423" d="M396.262,3050.783l-20.351-10.7.009-.825c1.205-.479,2.386-1.036,3.621-1.421,2.981-.927,4.021-2.319,3.608-5.374a2.72,2.72,0,0,0-1.312-1.616,71.737,71.737,0,0,0-6.719-3.505c-.887-.389-2.371-.614-3-.14-1.369,1.024-3.209,2.081-2.423,4.443.522,1.567.925,3.174,1.535,5.3a18.19,18.19,0,0,1-2.725-.776c-2.133-1.043-4.282-2.076-6.316-3.292-6.661-3.984-14.384-4.814-21.54-7.324-4.978-1.747-10.093-3.106-15.136-4.672-.467-.145-1.235-.588-1.206-.811.064-.51.441-1.28.851-1.4,6.495-1.933,6.323-8.022,7.976-12.877,1.947-5.721,3.65-11.53,5.274-17.353a7.4,7.4,0,0,0-.327-3.911,38.212,38.212,0,0,0-2.082-4.629l.6-.672,20.24,6.209.022.995a29.251,29.251,0,0,0-4.047,2.308,7.554,7.554,0,0,0-2.629,3.131c-2.749,8.441-5.3,16.946-7.938,25.422-.409,1.314-.274,2.213,1.229,2.627,2.139.587,4.227,1.413,6.4,1.82a5.7,5.7,0,0,0,2.961-.755c1.957-.851,3.856-1.833,5.779-2.761l.57.625c-.886,3.166-1.773,6.33-2.826,10.091,3.482-1.39,6.623-1.625,9.133-4,8.292-7.849,16.759-15.512,25.1-23.307a2.844,2.844,0,0,1,3.868-.464c5.868,3.3,5.963,1.755,4.823,9.123-1.428,9.23-2.525,18.512-3.763,27.773-.441,3.3-.584,6.563.8,9.721a15.591,15.591,0,0,1,.63,2.326ZM378,3021.829l6.814,3.469c.768-3.988,1.435-7.448,2.1-10.91l-.689-.361Z" transform="translate(-17.378 -0.647)" fill="#ea6527"/>
    <path id="Tracé_6424" data-name="Tracé 6424" d="M236.816,3010.543l6.265-.593a13.589,13.589,0,0,1-.966,2.287c-1.6,2.243-3.292,4.421-4.9,6.661-.937,1.308-2.137,1.469-3.631,1.3-4.7-.545-9.408-1.051-14.124-1.435-8.134-.66-14.015-4.847-17.638-11.891-4.608-8.961-4.061-17.95,2.224-25.9,8.329-10.534,23.73-10.444,32.247,1.45,5.986,8.358,6.157,17.354,1.294,26.423C237.347,3009.3,237.16,3009.783,236.816,3010.543Zm-24.749-20.573c.156,2.377.2,4.141.407,5.888a27.692,27.692,0,0,0,.941,5.417c1,3.02,1.839,6.24,3.562,8.835,2.635,3.974,8.216,3.125,9.816-1.393a21.679,21.679,0,0,0,.889-7.2c-.022-6.163-.882-12.221-3.606-17.836-1.548-3.191-4.034-4.4-7.071-3.8-2.507.5-4.371,2.877-4.7,6.117C212.152,2987.525,212.119,2989.057,212.067,2989.97Z" transform="translate(-7.36 -0.172)" fill="#ea6527"/>
    <path id="Tracé_6425" data-name="Tracé 6425" d="M344.276,3094.06c-9.906-.127-17.7-6.919-19.894-17.5-2.271-10.958,4.821-23.265,15.4-26.733a19.975,19.975,0,0,1,25.007,12.169,23.919,23.919,0,0,1-14.9,31.1A36.641,36.641,0,0,1,344.276,3094.06Zm-8.133-15.118c.053.987.1,1.826.145,2.664a5.718,5.718,0,0,0,4.008,5.552,4.91,4.91,0,0,0,6.1-1.861,41.265,41.265,0,0,0,4.605-8.341c1.9-4.829,3.408-9.841,3.239-15.133-.084-2.654-1.053-4.877-3.734-6.068a5.146,5.146,0,0,0-6.1,1.163,13.411,13.411,0,0,0-2.668,3.4A50.893,50.893,0,0,0,336.143,3078.942Z" transform="translate(-17.351 -6.202)" fill="#ea6527"/>
    <path id="Tracé_6426" data-name="Tracé 6426" d="M148.616,3073.648c-1.48-.427-2.955-.871-4.439-1.277a39.164,39.164,0,0,0-6.637-1.662c-1.225-.109-3.365.635-3.645,1.475-.448,1.349.16,3.142.615,4.658a3.665,3.665,0,0,0,1.712,1.8c5.528,3.072,11.1,6.067,16.779,9.154.6-2.9-.485-4.941-2.585-5.786a14.245,14.245,0,0,1-2.044-1.234,10.4,10.4,0,0,1,1.907-1.676c2.406-1.251,4.878-2.377,7.319-3.547.329.589.58.846.525.968-1.355,3.031-.186,5.81.817,8.607a.563.563,0,0,1,.07.218c-.7,6.426,4.476,7.219,8.618,9.016.847.367,1.657.823,2.484,1.237l.033.793c-3.827,1.829-7.513,4.519-11.532,5.178-2.62.431-3.908,1.609-5.534,3.023-4.15,3.611-8.813,5.709-14.491,5.087a11.507,11.507,0,0,1-9.362-15.5c.648-1.619,2.228-3.394,1.894-4.725s-2.559-2.136-3.917-3.222c-6.135-4.9-5.867-12.688.647-17.515a29.768,29.768,0,0,1,14.723-5.352,2.861,2.861,0,0,1,2.354.937c1.555,2.773,2.866,5.683,4.264,8.543Zm2.657,25.224-13.451-6.729c-.917,3.082,1.481,7.957,4.316,9.333C144.929,3102.831,148.979,3101.813,151.273,3098.872Z" transform="translate(-1.293 -7.362)" fill="#ea6527"/>
    <path id="Tracé_6427" data-name="Tracé 6427" d="M276.37,2972.163h15.784l.362.644c-1.159,1.225-2.232,2.548-3.5,3.649a4.956,4.956,0,0,0-1.741,4.011c-.168,7.734-.513,15.465-.7,23.2-.133,5.477-4.513,10.6-10.548,11.761a20.923,20.923,0,0,1-16.268-3.152,10.762,10.762,0,0,1-5-9.335c.095-8.038.471-16.073.572-24.111a6.047,6.047,0,0,0-1.428-3.151c-.94-1.305-2.124-2.436-3.563-4.042a13.324,13.324,0,0,1,2.338-.514c5.747.084,11.494.179,17.239.36a7.348,7.348,0,0,1,2.208.84c-.377.626-.6,1.5-1.157,1.839-3.484,2.153-3.91,5.331-3.8,9.1.178,6.353-.173,12.719-.221,19.079-.031,4.205,2.325,6.851,6.184,7.151,3.42.265,6.5-2.387,6.706-6.4.416-8.031.559-16.078.694-24.12a4.752,4.752,0,0,0-1.223-2.57c-.967-1.251-2.116-2.362-3.188-3.531Z" transform="translate(-11.475)" fill="#ea6527"/>
    <path id="Tracé_6428" data-name="Tracé 6428" d="M185.1,3010.336a40.841,40.841,0,0,1-4.922-2.256c-2.457-1.583-4.582-.284-6.738.579-.329.132-.559,1.222-.4,1.738,1.022,3.368,2.092,6.728,3.341,10.016a2.378,2.378,0,0,0,2.071.992,21.778,21.778,0,0,0,5.848-1.976c1.134-.635,1.872-2.08,2.623-3.267,1.006-1.585,1.853-3.271,2.769-4.914l.855.239c1.077,3.153,2.225,6.286,3.2,9.469.611,1.988-1.16,2.258-2.385,2.676-5.8,1.977-11.617,3.876-17.431,5.8-3.125,1.034-6.25,2.069-9.381,3.082-.558.179-1.149.251-2.514.539a37.217,37.217,0,0,1,2.089-4.486,5.724,5.724,0,0,0,.412-5.428c-2.821-8.172-5.49-16.4-8.386-24.543a7.758,7.758,0,0,0-2.734-3.093,30.558,30.558,0,0,0-4.088-2.273l.008-.758c1.578-.625,3.132-1.32,4.738-1.864,7.974-2.7,15.975-5.319,23.934-8.063,1.743-.6,2.779-.315,3.364,1.467.836,2.543,1.74,5.065,2.553,7.616.142.446.161,1.206-.1,1.43-.282.243-.972.095-1.457-.009a2.981,2.981,0,0,1-1.253-.555c-4.091-3.383-8.248-2.051-12.448-.261-1.1.466-1.56.952-1.068,2.239.873,2.285,1.451,4.684,2.372,6.947a2.425,2.425,0,0,0,1.987,1.015c3.3-.257,5-2.471,6.192-5.326.305-.732,1.145-1.241,1.739-1.853a13.543,13.543,0,0,1,1.172,2.089c1.224,3.463,2.389,6.947,3.546,10.433A25.567,25.567,0,0,1,185.1,3010.336Z" transform="translate(-3.412 -0.889)" fill="#ea6527"/>
    <path id="Tracé_6429" data-name="Tracé 6429" d="M227.823,3081.437c1.245-1.516,2.243-2.549,3.024-3.727a20.817,20.817,0,0,0,2.786-4.883c3.463-10.855,6.779-21.757,10.11-32.654a2.6,2.6,0,0,1,2.831-2.1c7.558.031,5.984-1.666,9.064,5.725q5.43,13.032,10.769,26.1c1.087,2.654,2.369,5.147,4.758,6.881a7.467,7.467,0,0,1,2.393,2.307c-7.965,1.618-15.67,1.764-23.384,1.727l-.344-.694a39.737,39.737,0,0,1,3.037-3.543c1.754-1.64.939-3.264.379-5.048-.585-1.867-1.984-1.639-3.332-1.576-1.908.088-3.809.335-5.717.418-3.52.153-4.05.552-4.511,4.038a2.809,2.809,0,0,0,.554,1.841c.588.788,1.468,1.357,2.08,2.132a19.028,19.028,0,0,1,1.4,2.386,10.535,10.535,0,0,1-2.514.779c-3.441.177-6.888.254-10.335.3A23.437,23.437,0,0,1,227.823,3081.437Zm18.966-28.447-.56.056c-.957,3.1-1.965,6.191-2.809,9.324a1.84,1.84,0,0,0,.975,1.5,24.578,24.578,0,0,0,4.781-.108c.354-.039.982-.916.885-1.217C249.04,3059.341,247.9,3056.171,246.789,3052.99Z" transform="translate(-9.677 -5.332)" fill="#ea6527"/>
    <path id="Tracé_6430" data-name="Tracé 6430" d="M390.126,3065.854c3.755.026,7,1.546,10.014,3.588,2.472,1.674,4.865,3.469,7.216,5.309,1.955,1.531,1.874,2.124-.227,3.563-1.643,1.126-3.305,2.223-4.939,3.364-1.307.913-2.1.654-2.437-.937a40.638,40.638,0,0,0-.93-4.021c-.608-1.907-1.7-3.441-3.833-3.879a3.746,3.746,0,0,0-4.064,1.477c-1.259,1.707-.928,3.457-.067,5.194,2.038,4.111,4.334,8.115,6.069,12.349,2.019,4.926.368,9.36-3.068,13.1a12.724,12.724,0,0,1-13.083,4.123c-6.285-1.494-10.94-5.672-15.892-9.376-1.116-.835-1.136-1.746.043-2.594,1.989-1.429,4-2.83,5.954-4.3,1.4-1.057,2.11-.412,2.472.949.471,1.771.673,3.629,1.276,5.349,1.382,3.933,6.552,5.131,9.123,2.2a4.241,4.241,0,0,0,.76-5.091c-1.831-3.62-3.746-7.2-5.478-10.867-3.115-6.6-1.876-13.021,3.637-17.06,2.046-1.5,4.775-2.066,7.191-3.057Z" transform="translate(-20.551 -7.511)" fill="#ea6527"/>
    <path id="Tracé_6431" data-name="Tracé 6431" d="M312.662,3069.967c-.448,3.684-.806,7.385-1.428,11.04-.111.659-1.224,1.425-2.014,1.65-7.927,2.246-15.615,1.925-22.107-3.669-6.885-5.932-9.391-13.637-7.382-22.573,1.9-8.435,6.854-14.379,15.291-16.719,6.734-1.867,13.226-.539,19.118,3.209a3.446,3.446,0,0,1,1.221,2.651c-.153,2.976-.582,5.939-.975,8.9-.061.451-.432,1.136-.765,1.206a1.756,1.756,0,0,1-1.344-.631c-1.492-1.748-2.9-3.563-4.351-5.347-.675-.831-1.32-1.7-2.072-2.454-3.542-3.57-8.61-2.764-10.482,1.91a45.932,45.932,0,0,0-2.8,22.353c.633,5.724,5.829,7.8,10.521,4.48,2.186-1.545,4.212-3.316,6.346-4.937a27.787,27.787,0,0,1,2.418-1.49Z" transform="translate(-13.767 -5.406)" fill="#ea6527"/>
    <path id="Tracé_6432" data-name="Tracé 6432" d="M220.849,3052.418c-1.834-1.17-3.611-2.448-5.527-3.463a6.613,6.613,0,0,0-3.4-.835c-2.385.185-2.877,1.017-2.4,3.372,1.717,8.472,3.392,16.953,5.251,25.394a7.654,7.654,0,0,0,2.27,3.4c1.054,1.032,2.431,1.735,3.637,3-6.765,2.562-13.838,3.241-20.712,4.8l-.551-.509a14.807,14.807,0,0,1,1.42-2.8,7.714,7.714,0,0,0,1.7-6.981c-1.747-8.072-3.215-16.2-4.874-24.294-.16-.78-1-2.1-1.342-2.046-1.5.252-3.256.556-4.3,1.516-1.424,1.308-2.249,3.254-3.41,4.87-.312.433-1,.988-1.361.891a1.957,1.957,0,0,1-1.038-1.334c-.593-2.847-1.113-5.71-1.58-8.58-.265-1.626,1.036-1.863,2.163-2.094q6.859-1.4,13.732-2.73c5.557-1.072,11.139-2.027,16.674-3.2,1.714-.363,2.469.148,2.764,1.7.594,3.122,1.162,6.247,1.74,9.372Z" transform="translate(-6.227 -5.552)" fill="#ea6527"/>
    <path id="Tracé_6433" data-name="Tracé 6433" d="M132.436,3048.421a15.285,15.285,0,0,1,.613-3.346c1.436-3,.513-5.529-1.023-8.208-3.81-6.644-7.4-13.416-11.146-20.094-.5-.9-1.875-2.324-2.1-2.2-1.435.823-3.131,1.76-3.851,3.128-1.108,2.105-1.5,4.588-2.41,7.642-1.027-1.462-1.717-2.311-2.259-3.244-1.113-1.919-2.123-3.9-3.224-5.828-.738-1.293-.658-2.195.79-2.982,9.286-5.047,18.528-10.177,27.838-15.177a2.647,2.647,0,0,1,2.489.31c1.684,2.731,3.124,5.613,4.619,8.459a4.9,4.9,0,0,1,.095,1.361,68.238,68.238,0,0,1-6.9-1.831c-2.023-.759-3.444.173-4.833,1.215a2.035,2.035,0,0,0-.3,1.931c4.438,8.223,8.823,16.482,13.593,24.51.822,1.383,3.373,1.723,5.106,2.583.63.312,1.2.737,1.8,1.109a7.393,7.393,0,0,1-1.475,1.537q-7.405,4.179-14.879,8.234A19.357,19.357,0,0,1,132.436,3048.421Z" transform="translate(0 -2.14)" fill="#ea6527"/>
    <path id="Tracé_6434" data-name="Tracé 6434" d="M304.3,2974.048c1.262.088,2.542.077,3.786.28q7.583,1.236,15.143,2.6a7.706,7.706,0,0,1,1.9.929c-.414.592-.7,1.461-1.265,1.729-3.282,1.546-4.36,4.265-4.857,7.659-1.163,7.941-2.662,15.831-3.848,23.77a7.248,7.248,0,0,0,.956,3.81,43.834,43.834,0,0,0,2.987,4.606,26.613,26.613,0,0,1-3.49-.02q-8.265-1.322-16.51-2.774a2.477,2.477,0,0,1-1.463-.878c-.15-.205.209-1.136.536-1.278,5.653-2.448,5.394-7.818,6.225-12.6,1.087-6.255,1.907-12.559,3.1-18.792a5.517,5.517,0,0,0-1.314-5.026,39.172,39.172,0,0,1-2.262-3.337Z" transform="translate(-15.247 -0.233)" fill="#ea6527"/>
  </g>
</svg>
