<svg xmlns="http://www.w3.org/2000/svg" xmlns:xlink="http://www.w3.org/1999/xlink" width="567.963" height="333.622" viewBox="0 0 567.963 333.622">
  <defs>
    <filter id="Tracé_34" x="0" y="0" width="567.963" height="333.622" filterUnits="userSpaceOnUse">
      <feOffset dy="10" input="SourceAlpha"/>
      <feGaussianBlur stdDeviation="5" result="blur"/>
      <feFlood flood-opacity="0.161"/>
      <feComposite operator="in" in2="blur"/>
      <feComposite in="SourceGraphic"/>
    </filter>
  </defs>
  <g id="Groupe_24" data-name="Groupe 24" transform="translate(-4848.982 557.163)">
    <g id="Groupe_14" data-name="Groupe 14" transform="translate(4863.982 -552.163)">
      <g id="Sticker_WTLF" data-name="Sticker WTLF" transform="translate(0 0)">
        <g id="Groupe_26" data-name="Groupe 26">
          <g id="Groupe_24-2" data-name="Groupe 24" transform="translate(18.849 18.795)">
            <path id="Tracé_33" data-name="Tracé 33" d="M5402.151-423.575l-76.3-12.412a23.886,23.886,0,0,0-2.373-33.695,23.886,23.886,0,0,0-33.7,2.374A23.887,23.887,0,0,0,5284-453.44a23.865,23.865,0,0,0-32.192-10.135,23.868,23.868,0,0,0-11.622,13.646L5233.646-451a23.844,23.844,0,0,0-25.214-4.1l-43.472-7.074-37.131,23.659a23.826,23.826,0,0,0-21.561,13.73l-5.569,3.548a23.868,23.868,0,0,0-33.7-1.971,23.869,23.869,0,0,0-7.937,16.042,23.89,23.89,0,0,0-32.23-10.133,23.89,23.89,0,0,0-10.132,32.23,23.883,23.883,0,0,0,10.8,10.469l-65.2,41.541A46.4,46.4,0,0,0,4948.1-269a46.4,46.4,0,0,0,31.678,20.866l237.179,38.614,202.669-129.118a46.4,46.4,0,0,0,14.2-64.056,46.39,46.39,0,0,0-31.679-20.867Z" transform="translate(-4940.831 475.532)" fill="#fff"/>
          </g>
          <g id="Groupe_25" data-name="Groupe 25">
            <g transform="matrix(1, 0, 0, 1, -15, -5)" filter="url(#Tracé_34)">
              <path id="Tracé_34-2" data-name="Tracé 34" d="M5162.758-248.925a18.859,18.859,0,0,1-6.826.137L4918.754-287.4a65.235,65.235,0,0,1-53.916-74.865,65.231,65.231,0,0,1,29.344-44.55l46.661-29.724a42.687,42.687,0,0,1,21.508-56.408,42.687,42.687,0,0,1,32.786-.879,42.438,42.438,0,0,1,45-9.258,42.822,42.822,0,0,1,23.482-11.645l33.232-21.169A18.835,18.835,0,0,1,5110-538.606l38.9,6.328a42.892,42.892,0,0,1,26.177,1.435,42.437,42.437,0,0,1,44.99-9.258,42.746,42.746,0,0,1,60.446.922,42.742,42.742,0,0,1,12.06,30.274l54.61,8.887h0a65.24,65.24,0,0,1,53.912,74.873,65.242,65.242,0,0,1-29.34,44.542L5169.08-251.485A18.855,18.855,0,0,1,5162.758-248.925Zm-183.88-209.963a5.033,5.033,0,0,0-3.946,5.923,5.032,5.032,0,0,0,2.8,3.569,18.844,18.844,0,0,1,8.727,25.181,18.84,18.84,0,0,1-6.83,7.668l-65.187,41.538A27.548,27.548,0,0,0,4906-336.976a27.551,27.551,0,0,0,18.818,12.4L5154.9-287.133,5351.507-412.38a27.548,27.548,0,0,0,8.445-38.032,27.545,27.545,0,0,0-18.822-12.4h0l-76.305-12.424a18.842,18.842,0,0,1-15.573-21.622,18.847,18.847,0,0,1,4.35-9.3,5.044,5.044,0,0,0-.455-7.118,5.044,5.044,0,0,0-7.118.453,5.047,5.047,0,0,0-1.245,2.977,18.841,18.841,0,0,1-20.205,17.371,18.841,18.841,0,0,1-15.285-10.068,5.026,5.026,0,0,0-6.767-2.174,5.034,5.034,0,0,0-2.492,2.941,18.845,18.845,0,0,1-20.889,12.6l-6.523-1.062a18.829,18.829,0,0,1-9.441-4.47,5,5,0,0,0-5.337-.906,18.862,18.862,0,0,1-10.436,1.273l-36.367-5.916-31.084,19.8a18.842,18.842,0,0,1-10.1,2.954,5.15,5.15,0,0,0-1.018.105,5.084,5.084,0,0,0-3.536,2.836,18.84,18.84,0,0,1-6.912,7.835l-5.569,3.55a18.846,18.846,0,0,1-24.171-3.332,5.027,5.027,0,0,0-7.091-.5,5.027,5.027,0,0,0-1.718,3.45,18.841,18.841,0,0,1-20.207,17.371,18.84,18.84,0,0,1-15.284-10.068A5.1,5.1,0,0,0,4978.878-458.887Z" transform="translate(-4848.98 557.16)" fill="#fff"/>
            </g>
          </g>
        </g>
        <g id="Groupe_34" data-name="Groupe 34" transform="translate(18.67 31.379)">
          <g id="Groupe_31" data-name="Groupe 31" transform="translate(11.061 11.593)">
            <g id="Groupe_30" data-name="Groupe 30">
              <path id="Tracé_37" data-name="Tracé 37" d="M5433.7-339.04l-233.015-37.922L5001.575-250.124c-27.375,17.438-18.727,59.463,13.309,64.679L5247.9-147.521l199.114-126.831C5474.386-291.8,5465.739-333.825,5433.7-339.04Z" transform="translate(-4985.199 376.962)" fill="#fff"/>
            </g>
          </g>
          <g id="Groupe_33" data-name="Groupe 33">
            <g id="Groupe_32" data-name="Groupe 32">
              <path id="Tracé_38" data-name="Tracé 38" d="M5216.234-171.6l-237.179-38.614a46.4,46.4,0,0,1-38.345-53.242,46.4,46.4,0,0,1,20.871-31.684l202.671-129.09,237.177,38.6a46.4,46.4,0,0,1,38.339,53.25A46.4,46.4,0,0,1,5418.9-300.7Zm-47.21-229.439-195.541,124.57a24.273,24.273,0,0,0-7.433,33.512,24.27,24.27,0,0,0,16.575,10.918l228.837,37.251,195.567-124.581a24.275,24.275,0,0,0,7.425-33.517,24.274,24.274,0,0,0-16.566-10.912Z" transform="translate(-4940.102 424.227)" fill="#e36226"/>
            </g>
          </g>
        </g>
        <g id="Groupe_39" data-name="Groupe 39" transform="translate(91.848 73.55)">
          <g id="Groupe_36" data-name="Groupe 36" transform="translate(0.945 0.943)">
            <g id="Groupe_35" data-name="Groupe 35">
              <circle id="Ellipse_2" data-name="Ellipse 2" cx="22.964" cy="22.964" r="22.964" fill="#fff"/>
            </g>
          </g>
          <g id="Groupe_38" data-name="Groupe 38">
            <g id="Groupe_37" data-name="Groupe 37">
              <path id="Tracé_39" data-name="Tracé 39" d="M5267.184-204.971a23.905,23.905,0,0,1-28.233-18.6,23.905,23.905,0,0,1,18.6-28.232,23.9,23.9,0,0,1,28.231,18.594A23.937,23.937,0,0,1,5267.184-204.971Zm-9.256-44.983a22.02,22.02,0,0,0-17.131,26.007,22.02,22.02,0,0,0,26.007,17.131,22.02,22.02,0,0,0,17.13-26.007h0a22.044,22.044,0,0,0-26.006-17.134Z" transform="translate(-5238.456 252.294)" fill="#162039"/>
            </g>
          </g>
        </g>
        <g id="Groupe_44" data-name="Groupe 44" transform="translate(136.837 64.293)">
          <g id="Groupe_41" data-name="Groupe 41" transform="translate(0.943 0.943)">
            <g id="Groupe_40" data-name="Groupe 40">
              <circle id="Ellipse_3" data-name="Ellipse 3" cx="22.964" cy="22.964" r="22.964" fill="#fff"/>
            </g>
          </g>
          <g id="Groupe_43" data-name="Groupe 43">
            <g id="Groupe_42" data-name="Groupe 42">
              <path id="Tracé_40" data-name="Tracé 40" d="M5450.6-242.712a23.9,23.9,0,0,1-28.23-18.6,23.9,23.9,0,0,1,18.6-28.23,23.9,23.9,0,0,1,28.227,18.595A23.934,23.934,0,0,1,5450.6-242.712Zm-9.256-44.983a22.022,22.022,0,0,0-17.129,26.009,22.022,22.022,0,0,0,26.01,17.128,22.022,22.022,0,0,0,17.128-26.007,22.046,22.046,0,0,0-26.012-17.133Z" transform="translate(-5421.877 290.036)" fill="#162039"/>
            </g>
          </g>
        </g>
        <g id="Groupe_49" data-name="Groupe 49" transform="translate(181.818 55.037)">
          <g id="Groupe_46" data-name="Groupe 46" transform="translate(0.945 0.943)">
            <g id="Groupe_45" data-name="Groupe 45">
              <circle id="Ellipse_4" data-name="Ellipse 4" cx="22.964" cy="22.964" r="22.964" fill="#fff"/>
            </g>
          </g>
          <g id="Groupe_48" data-name="Groupe 48">
            <g id="Groupe_47" data-name="Groupe 47">
              <path id="Tracé_41" data-name="Tracé 41" d="M5634-280.447a23.906,23.906,0,0,1-28.232-18.6,23.906,23.906,0,0,1,18.6-28.232,23.905,23.905,0,0,1,28.232,18.594A23.933,23.933,0,0,1,5634-280.447Zm-9.256-44.984a22.019,22.019,0,0,0-17.145,26,22.02,22.02,0,0,0,26,17.146,22.022,22.022,0,0,0,17.146-26l0-.015a22.043,22.043,0,0,0-25.995-17.134Z" transform="translate(-5605.268 327.771)" fill="#162039"/>
            </g>
          </g>
        </g>
        <g id="Groupe_54" data-name="Groupe 54" transform="translate(226.804 45.781)">
          <g id="Groupe_51" data-name="Groupe 51" transform="translate(0.945 0.943)">
            <g id="Groupe_50" data-name="Groupe 50">
              <circle id="Ellipse_5" data-name="Ellipse 5" cx="22.964" cy="22.964" r="22.964" fill="#fff"/>
            </g>
          </g>
          <g id="Groupe_53" data-name="Groupe 53">
            <g id="Groupe_52" data-name="Groupe 52">
              <path id="Tracé_42" data-name="Tracé 42" d="M5817.408-318.187a23.906,23.906,0,0,1-28.233-18.6,23.9,23.9,0,0,1,18.6-28.232A23.9,23.9,0,0,1,5836-346.421,23.934,23.934,0,0,1,5817.408-318.187Zm-9.258-44.984a22.021,22.021,0,0,0-17.13,26.007,22.021,22.021,0,0,0,26.006,17.131,22.02,22.02,0,0,0,17.132-26.007h0a22.045,22.045,0,0,0-26.008-17.134Z" transform="translate(-5788.68 365.51)" fill="#162039"/>
            </g>
          </g>
        </g>
        <g id="Groupe_59" data-name="Groupe 59" transform="translate(271.789 36.524)">
          <g id="Groupe_56" data-name="Groupe 56" transform="translate(0.945 0.943)">
            <g id="Groupe_55" data-name="Groupe 55">
              <circle id="Ellipse_6" data-name="Ellipse 6" cx="22.964" cy="22.964" r="22.964" fill="#fff"/>
            </g>
          </g>
          <g id="Groupe_58" data-name="Groupe 58">
            <g id="Groupe_57" data-name="Groupe 57">
              <path id="Tracé_43" data-name="Tracé 43" d="M6000.818-355.926a23.9,23.9,0,0,1-28.232-18.6,23.905,23.905,0,0,1,18.6-28.232,23.9,23.9,0,0,1,28.23,18.594A23.934,23.934,0,0,1,6000.818-355.926Zm-9.256-44.983a22.021,22.021,0,0,0-17.131,26.007,22.021,22.021,0,0,0,26.007,17.131,22.02,22.02,0,0,0,17.131-26.007h0a22.045,22.045,0,0,0-26.007-17.134Z" transform="translate(-5972.091 403.25)" fill="#162039"/>
            </g>
          </g>
        </g>
        <g id="Groupe_64" data-name="Groupe 64" transform="translate(316.773 27.268)">
          <g id="Groupe_61" data-name="Groupe 61" transform="translate(0.945 0.943)">
            <g id="Groupe_60" data-name="Groupe 60">
              <circle id="Ellipse_7" data-name="Ellipse 7" cx="22.964" cy="22.964" r="22.964" fill="#fff"/>
            </g>
          </g>
          <g id="Groupe_63" data-name="Groupe 63">
            <g id="Groupe_62" data-name="Groupe 62">
              <path id="Tracé_44" data-name="Tracé 44" d="M6184.22-393.663a23.9,23.9,0,0,1-28.231-18.6,23.9,23.9,0,0,1,18.6-28.232,23.906,23.906,0,0,1,28.233,18.594A23.937,23.937,0,0,1,6184.22-393.663Zm-9.255-44.983a22.021,22.021,0,0,0-17.131,26.007,22.02,22.02,0,0,0,26.007,17.131,22.023,22.023,0,0,0,17.132-26.008h0a22.047,22.047,0,0,0-26.009-17.133Z" transform="translate(-6155.493 440.987)" fill="#162039"/>
            </g>
          </g>
        </g>
        <g id="Groupe_69" data-name="Groupe 69" transform="translate(361.761 18.012)">
          <g id="Groupe_66" data-name="Groupe 66" transform="translate(0.943 0.943)">
            <g id="Groupe_65" data-name="Groupe 65">
              <circle id="Ellipse_8" data-name="Ellipse 8" cx="22.964" cy="22.964" r="22.964" fill="#fff"/>
            </g>
          </g>
          <g id="Groupe_68" data-name="Groupe 68">
            <g id="Groupe_67" data-name="Groupe 67">
              <path id="Tracé_45" data-name="Tracé 45" d="M6367.639-431.4a23.9,23.9,0,0,1-28.23-18.6,23.9,23.9,0,0,1,18.6-28.23,23.9,23.9,0,0,1,28.229,18.594A23.935,23.935,0,0,1,6367.639-431.4Zm-9.256-44.984a22.02,22.02,0,0,0-17.128,26.009,22.021,22.021,0,0,0,26.01,17.128,22.021,22.021,0,0,0,17.128-26.007,22.046,22.046,0,0,0-26.01-17.133Z" transform="translate(-6338.914 478.728)" fill="#162039"/>
            </g>
          </g>
        </g>
        <g id="Groupe_209" data-name="Groupe 209" transform="translate(152.383 112.112)">
          <g id="Groupe_208" data-name="Groupe 208" transform="translate(89.765 0)">
            <g id="Groupe_204" data-name="Groupe 204" transform="translate(0 2.338)">
              <g id="Groupe_203" data-name="Groupe 203">
                <g id="Groupe_202" data-name="Groupe 202">
                  <path id="Tracé_89" data-name="Tracé 89" d="M5843.926-123.394l11.668-2.4.511,2.477-4.376.9,2.477,12.04-2.917.6-2.477-12.04-4.376.9Z" transform="translate(-5843.926 125.795)" fill="#162039"/>
                </g>
              </g>
            </g>
            <g id="Groupe_207" data-name="Groupe 207" transform="translate(15.045)">
              <g id="Groupe_206" data-name="Groupe 206">
                <g id="Groupe_205" data-name="Groupe 205">
                  <path id="Tracé_90" data-name="Tracé 90" d="M5905.566-126.149a7.107,7.107,0,0,1,4.77-8.849c.223-.067.449-.123.678-.167a7.092,7.092,0,0,1,8.429,5.436,6.945,6.945,0,0,1,.115.7,7.076,7.076,0,0,1-4.728,8.819,7.145,7.145,0,0,1-.7.174,7.089,7.089,0,0,1-8.442-5.41A6.874,6.874,0,0,1,5905.566-126.149Zm10.985-2.26c-.6-2.9-2.358-4.889-5.021-4.341s-3.555,3.08-2.957,5.983,2.425,4.855,5.075,4.31S5917.144-125.531,5916.551-128.409Z" transform="translate(-5905.266 135.326)" fill="#162039"/>
                </g>
              </g>
            </g>
          </g>
          <text id="MEXICO" transform="translate(14.423 119.814) rotate(-11.574)" fill="#233f93" font-size="89" font-family="Barbaro-Western, Barbaro"><tspan x="0" y="0">MEXICO</tspan></text>
        </g>
        <g id="Groupe_212" data-name="Groupe 212" transform="translate(99.252 83.382)">
          <g id="Groupe_211" data-name="Groupe 211">
            <g id="Groupe_210" data-name="Groupe 210">
              <path id="Tracé_91" data-name="Tracé 91" d="M5268.641-206.36l4.64-.955,5.209,10.536c.832,1.823,1.979,4.693,1.979,4.693l.063-.013s-.011-2.909.054-4.982l.134-11.764,4.393-.9,4.759,10.727c.875,1.88,2.023,4.588,2.023,4.588l.064-.013s.045-3.116.085-5.151l.533-11.687,4.488-.923-1.783,23.749-4.237.872-5.19-11.459c-.712-1.554-1.6-3.823-1.6-3.823l-.077.016s.142,2.424.09,4.134l-.281,12.585-4.2.865Z" transform="translate(-5268.641 212.209)" fill="#162039"/>
            </g>
          </g>
        </g>
        <g id="Groupe_215" data-name="Groupe 215" transform="translate(150.15 75.362)">
          <g id="Groupe_214" data-name="Groupe 214">
            <g id="Groupe_213" data-name="Groupe 213">
              <path id="Tracé_92" data-name="Tracé 92" d="M5476.156-241.51l16.5-3.4.787,3.826-11.949,2.459,1.033,5.022L5493-235.753l.767,3.731-10.476,2.156,1.244,6.055,12.045-2.479.782,3.8-16.6,3.415Z" transform="translate(-5476.156 244.905)" fill="#162039"/>
            </g>
          </g>
        </g>
        <g id="Groupe_218" data-name="Groupe 218" transform="translate(195.889 68.41)">
          <g id="Groupe_217" data-name="Groupe 217">
            <g id="Groupe_216" data-name="Groupe 216">
              <path id="Tracé_93" data-name="Tracé 93" d="M5662.641-272.315l4.55-.936,3.834,18.635,10.54-2.169.783,3.8-15.091,3.105Z" transform="translate(-5662.641 273.251)" fill="#162039"/>
            </g>
          </g>
        </g>
        <g id="Groupe_221" data-name="Groupe 221" transform="translate(241.007 57.442)">
          <g id="Groupe_220" data-name="Groupe 220">
            <g id="Groupe_219" data-name="Groupe 219">
              <path id="Tracé_94" data-name="Tracé 94" d="M5846.905-303.637c-1.368-6.651,1.718-12.584,8.348-13.948a8.686,8.686,0,0,1,10.81,5.656l-4.517.929a4.522,4.522,0,0,0-5.505-2.757c-4.132.85-5.409,4.708-4.493,9.164.943,4.58,4.006,7.383,7.771,6.608a4.61,4.61,0,0,0,4.016-4.944l4.457-.917a8.107,8.107,0,0,1-1.389,5.812,9.681,9.681,0,0,1-6.315,3.783,11.04,11.04,0,0,1-13.046-8.576Q5846.958-303.229,5846.905-303.637Z" transform="translate(-5846.587 317.967)" fill="#162039"/>
            </g>
          </g>
        </g>
        <g id="Groupe_224" data-name="Groupe 224" transform="translate(284.594 48.581)">
          <g id="Groupe_223" data-name="Groupe 223">
            <g id="Groupe_222" data-name="Groupe 222">
              <path id="Tracé_95" data-name="Tracé 95" d="M6024.614-339.9c-1.381-6.714,1.8-12.568,8.417-13.93s11.819,2.767,13.2,9.482-1.772,12.527-8.392,13.889S6026-333.19,6024.614-339.9Zm16.972-3.492c-.924-4.488-3.647-7.555-7.758-6.71s-5.493,4.758-4.569,9.246,3.734,7.507,7.843,6.662S6042.5-338.94,6041.586-343.4Z" transform="translate(-6024.296 354.093)" fill="#162039"/>
            </g>
          </g>
        </g>
        <g id="Groupe_227" data-name="Groupe 227" transform="translate(327.346 37.752)">
          <g id="Groupe_226" data-name="Groupe 226">
            <g id="Groupe_225" data-name="Groupe 225">
              <path id="Tracé_96" data-name="Tracé 96" d="M6198.6-393.7l6.4-1.316,5.477,10.612c1.364,2.664,2.658,5.765,2.658,5.765l.064-.013s-.07-3.353.135-6.339l.859-11.916,6.5-1.336,4.616,22.432-4.235.871-2.647-12.864c-.374-1.821-.769-4.684-.769-4.684l-.051.011s.031,2.743-.094,4.469l-1.146,14.037-4.363.9-6.487-12.467c-.8-1.534-1.85-4.066-1.85-4.066l-.066.014s.769,2.786,1.144,4.607l2.646,12.862-4.168.858Z" transform="translate(-6198.603 398.244)" fill="#162039"/>
            </g>
          </g>
        </g>
        <g id="Groupe_230" data-name="Groupe 230" transform="translate(375.077 29.08)">
          <g id="Groupe_229" data-name="Groupe 229">
            <g id="Groupe_228" data-name="Groupe 228">
              <path id="Tracé_97" data-name="Tracé 97" d="M6393.2-430.205l16.5-3.4.787,3.826-11.953,2.459,1.033,5.022,10.477-2.156.769,3.732-10.477,2.156,1.246,6.055,12.045-2.478.782,3.8-16.6,3.415Z" transform="translate(-6393.204 433.601)" fill="#162039"/>
            </g>
          </g>
        </g>
      </g>
    </g>
  </g>
</svg>
